<?xml version="1.0" encoding="UTF-8" standalone="no"?>
<!-- Created with Inkscape (http://www.inkscape.org/) -->

<svg
   version="1.1"
   id="svg1"
   width="576"
   height="269.44"
   viewBox="0 0 576 269.44"
   xmlns="http://www.w3.org/2000/svg"
   xmlns:svg="http://www.w3.org/2000/svg">
  <defs
     id="defs1">
    <clipPath
       clipPathUnits="userSpaceOnUse"
       id="clipPath2">
      <path
         d="M 0,0 H 1800 V 839.99023 H 0 Z"
         transform="scale(0.31999999)"
         clip-rule="evenodd"
         id="path2" />
    </clipPath>
    <clipPath
       clipPathUnits="userSpaceOnUse"
       id="clipPath4">
      <path
         d="m 78.125,34.375 h 1643.75 V 806.25 H 78.125 Z"
         transform="matrix(0.36629831,0,0,0.36629831,-30.275792,-294.23618)"
         clip-rule="evenodd"
         id="path4" />
    </clipPath>
    <clipPath
       clipPathUnits="userSpaceOnUse"
       id="clipPath6">
      <path
         d="m 78.125,34.375 h 1643.75 V 806.25 H 78.125 Z"
         transform="matrix(0.36629831,0,0,0.36629831,-30.275792,-294.23618)"
         clip-rule="evenodd"
         id="path6" />
    </clipPath>
    <clipPath
       clipPathUnits="userSpaceOnUse"
       id="clipPath8">
      <path
         d="m 78.125,34.375 h 1643.75 V 806.25 H 78.125 Z"
         transform="matrix(0.36629831,0,0,0.36629831,-30.275792,-294.23618)"
         clip-rule="evenodd"
         id="path8" />
    </clipPath>
    <clipPath
       clipPathUnits="userSpaceOnUse"
       id="clipPath10">
      <path
         d="m 78.125,34.375 h 1643.75 V 806.25 H 78.125 Z"
         transform="matrix(0.36629831,0,0,0.36629831,-30.275792,-294.23618)"
         clip-rule="evenodd"
         id="path10" />
    </clipPath>
    <clipPath
       clipPathUnits="userSpaceOnUse"
       id="clipPath12">
      <path
         d="m 78.125,34.375 h 1643.75 V 806.25 H 78.125 Z"
         transform="matrix(0.36629831,0,0,0.36629831,-30.275792,-294.23618)"
         clip-rule="evenodd"
         id="path12" />
    </clipPath>
    <clipPath
       clipPathUnits="userSpaceOnUse"
       id="clipPath14">
      <path
         d="m 78.125,34.375 h 1643.75 V 806.25 H 78.125 Z"
         transform="matrix(0.36629831,0,0,0.36629831,-30.275792,-294.23618)"
         clip-rule="evenodd"
         id="path14" />
    </clipPath>
    <clipPath
       clipPathUnits="userSpaceOnUse"
       id="clipPath16">
      <path
         d="m 78.125,34.375 h 1643.75 V 806.25 H 78.125 Z"
         transform="matrix(0.36629831,0,0,0.36629831,-30.275792,-294.23618)"
         clip-rule="evenodd"
         id="path16" />
    </clipPath>
    <clipPath
       clipPathUnits="userSpaceOnUse"
       id="clipPath18">
      <path
         d="m 78.125,34.375 h 1643.75 V 806.25 H 78.125 Z"
         transform="matrix(0.36629831,0,0,0.36629831,-30.275792,-294.23618)"
         clip-rule="evenodd"
         id="path18" />
    </clipPath>
    <clipPath
       clipPathUnits="userSpaceOnUse"
       id="clipPath20">
      <path
         d="m 78.125,34.375 h 1643.75 V 806.25 H 78.125 Z"
         transform="matrix(0.36629831,0,0,0.36629831,-114.04142,-132.73619)"
         clip-rule="evenodd"
         id="path20" />
    </clipPath>
    <clipPath
       clipPathUnits="userSpaceOnUse"
       id="clipPath22">
      <path
         d="m 78.125,34.375 h 1643.75 V 806.25 H 78.125 Z"
         transform="matrix(0.36629831,0,0,0.36629831,-154.04142,-132.73619)"
         clip-rule="evenodd"
         id="path22" />
    </clipPath>
    <clipPath
       clipPathUnits="userSpaceOnUse"
       id="clipPath24">
      <path
         d="m 78.125,34.375 h 1643.75 V 806.25 H 78.125 Z"
         transform="matrix(0.36629831,0,0,0.36629831,-194.04141,-132.73619)"
         clip-rule="evenodd"
         id="path24" />
    </clipPath>
    <clipPath
       clipPathUnits="userSpaceOnUse"
       id="clipPath26">
      <path
         d="m 78.125,34.375 h 1643.75 V 806.25 H 78.125 Z"
         transform="matrix(0.36629831,0,0,0.36629831,-114.04142,-172.7362)"
         clip-rule="evenodd"
         id="path26" />
    </clipPath>
    <clipPath
       clipPathUnits="userSpaceOnUse"
       id="clipPath28">
      <path
         d="m 78.125,34.375 h 1643.75 V 806.25 H 78.125 Z"
         transform="matrix(0.36629831,0,0,0.36629831,-154.04142,-172.7362)"
         clip-rule="evenodd"
         id="path28" />
    </clipPath>
    <clipPath
       clipPathUnits="userSpaceOnUse"
       id="clipPath30">
      <path
         d="m 78.125,34.375 h 1643.75 V 806.25 H 78.125 Z"
         transform="matrix(0.36629831,0,0,0.36629831,-194.04141,-172.7362)"
         clip-rule="evenodd"
         id="path30" />
    </clipPath>
    <clipPath
       clipPathUnits="userSpaceOnUse"
       id="clipPath32">
      <path
         d="m 78.125,34.375 h 1643.75 V 806.25 H 78.125 Z"
         transform="matrix(0.36629831,0,0,0.36629831,-68.166417,-212.73619)"
         clip-rule="evenodd"
         id="path32" />
    </clipPath>
    <clipPath
       clipPathUnits="userSpaceOnUse"
       id="clipPath34">
      <path
         d="m 78.125,34.375 h 1643.75 V 806.25 H 78.125 Z"
         transform="matrix(0.36629831,0,0,0.36629831,-30.275792,-294.23618)"
         clip-rule="evenodd"
         id="path34" />
    </clipPath>
    <clipPath
       clipPathUnits="userSpaceOnUse"
       id="clipPath36">
      <path
         d="m 78.125,34.375 h 1643.75 V 806.25 H 78.125 Z"
         transform="matrix(0.36629831,0,0,0.36629831,-30.275792,-294.23618)"
         clip-rule="evenodd"
         id="path36" />
    </clipPath>
    <clipPath
       clipPathUnits="userSpaceOnUse"
       id="clipPath38">
      <path
         d="m 78.125,34.375 h 1643.75 V 806.25 H 78.125 Z"
         transform="matrix(0.36629831,0,0,0.36629831,-30.275792,-294.23618)"
         clip-rule="evenodd"
         id="path38" />
    </clipPath>
    <clipPath
       clipPathUnits="userSpaceOnUse"
       id="clipPath40">
      <path
         d="m 78.125,34.375 h 1643.75 V 806.25 H 78.125 Z"
         transform="matrix(0.36629831,0,0,0.36629831,-30.275792,-294.23618)"
         clip-rule="evenodd"
         id="path40" />
    </clipPath>
    <clipPath
       clipPathUnits="userSpaceOnUse"
       id="clipPath42">
      <path
         d="m 78.125,34.375 h 1643.75 V 806.25 H 78.125 Z"
         transform="matrix(0.36629831,0,0,0.36629831,-30.275792,-294.23618)"
         clip-rule="evenodd"
         id="path42" />
    </clipPath>
    <clipPath
       clipPathUnits="userSpaceOnUse"
       id="clipPath44">
      <path
         d="m 78.125,34.375 h 1643.75 V 806.25 H 78.125 Z"
         transform="matrix(0.36629831,0,0,0.36629831,-30.275792,-294.23618)"
         clip-rule="evenodd"
         id="path44" />
    </clipPath>
    <clipPath
       clipPathUnits="userSpaceOnUse"
       id="clipPath46">
      <path
         d="m 78.125,34.375 h 1643.75 V 806.25 H 78.125 Z"
         transform="matrix(0.36629831,0,0,0.36629831,-30.275792,-294.23618)"
         clip-rule="evenodd"
         id="path46" />
    </clipPath>
    <clipPath
       clipPathUnits="userSpaceOnUse"
       id="clipPath48">
      <path
         d="m 78.125,34.375 h 1643.75 V 806.25 H 78.125 Z"
         transform="matrix(0.36629831,0,0,0.36629831,-30.275792,-294.23618)"
         clip-rule="evenodd"
         id="path48" />
    </clipPath>
    <clipPath
       clipPathUnits="userSpaceOnUse"
       id="clipPath50">
      <path
         d="m 78.125,34.375 h 1643.75 V 806.25 H 78.125 Z"
         transform="matrix(0.36629831,0,0,0.36629831,-30.275792,-294.23618)"
         clip-rule="evenodd"
         id="path50" />
    </clipPath>
    <clipPath
       clipPathUnits="userSpaceOnUse"
       id="clipPath52">
      <path
         d="m 78.125,34.375 h 1643.75 V 806.25 H 78.125 Z"
         transform="matrix(0.36629831,0,0,0.36629831,-30.275792,-294.23618)"
         clip-rule="evenodd"
         id="path52" />
    </clipPath>
    <clipPath
       clipPathUnits="userSpaceOnUse"
       id="clipPath54">
      <path
         d="m 78.125,34.375 h 1643.75 V 806.25 H 78.125 Z"
         transform="matrix(0.36629831,0,0,0.36629831,-30.275792,-294.23618)"
         clip-rule="evenodd"
         id="path54" />
    </clipPath>
    <clipPath
       clipPathUnits="userSpaceOnUse"
       id="clipPath56">
      <path
         d="m 78.125,34.375 h 1643.75 V 806.25 H 78.125 Z"
         transform="matrix(0.36629831,0,0,0.36629831,-30.275792,-294.23618)"
         clip-rule="evenodd"
         id="path56" />
    </clipPath>
    <clipPath
       clipPathUnits="userSpaceOnUse"
       id="clipPath58">
      <path
         d="m 78.125,34.375 h 1643.75 V 806.25 H 78.125 Z"
         transform="matrix(0.36629831,0,0,0.36629831,-30.275792,-294.23618)"
         clip-rule="evenodd"
         id="path58" />
    </clipPath>
    <clipPath
       clipPathUnits="userSpaceOnUse"
       id="clipPath60">
      <path
         d="m 78.125,34.375 h 1643.75 V 806.25 H 78.125 Z"
         transform="matrix(0.36629831,0,0,0.36629831,-30.275792,-294.23618)"
         clip-rule="evenodd"
         id="path60" />
    </clipPath>
    <clipPath
       clipPathUnits="userSpaceOnUse"
       id="clipPath62">
      <path
         d="m 78.125,34.375 h 1643.75 V 806.25 H 78.125 Z"
         transform="matrix(0.36629831,0,0,0.36629831,-30.275792,-294.23618)"
         clip-rule="evenodd"
         id="path62" />
    </clipPath>
    <clipPath
       clipPathUnits="userSpaceOnUse"
       id="clipPath64">
      <path
         d="m 78.125,34.375 h 1643.75 V 806.25 H 78.125 Z"
         transform="matrix(0.36629831,0,0,0.36629831,-30.275792,-294.23618)"
         clip-rule="evenodd"
         id="path64" />
    </clipPath>
    <clipPath
       clipPathUnits="userSpaceOnUse"
       id="clipPath66">
      <path
         d="m 78.125,34.375 h 1643.75 V 806.25 H 78.125 Z"
         transform="matrix(0.36629831,0,0,0.36629831,-404.04142,-92.736193)"
         clip-rule="evenodd"
         id="path66" />
    </clipPath>
    <clipPath
       clipPathUnits="userSpaceOnUse"
       id="clipPath68">
      <path
         d="m 78.125,34.375 h 1643.75 V 806.25 H 78.125 Z"
         transform="matrix(0.36629831,0,0,0.36629831,-444.04142,-92.736193)"
         clip-rule="evenodd"
         id="path68" />
    </clipPath>
    <clipPath
       clipPathUnits="userSpaceOnUse"
       id="clipPath70">
      <path
         d="m 78.125,34.375 h 1643.75 V 806.25 H 78.125 Z"
         transform="matrix(0.36629831,0,0,0.36629831,-484.04142,-92.736193)"
         clip-rule="evenodd"
         id="path70" />
    </clipPath>
    <clipPath
       clipPathUnits="userSpaceOnUse"
       id="clipPath72">
      <path
         d="m 78.125,34.375 h 1643.75 V 806.25 H 78.125 Z"
         transform="matrix(0.36629831,0,0,0.36629831,-444.04142,-132.73619)"
         clip-rule="evenodd"
         id="path72" />
    </clipPath>
    <clipPath
       clipPathUnits="userSpaceOnUse"
       id="clipPath74">
      <path
         d="m 78.125,34.375 h 1643.75 V 806.25 H 78.125 Z"
         transform="matrix(0.36629831,0,0,0.36629831,-484.04142,-132.73619)"
         clip-rule="evenodd"
         id="path74" />
    </clipPath>
    <clipPath
       clipPathUnits="userSpaceOnUse"
       id="clipPath76">
      <path
         d="m 78.125,34.375 h 1643.75 V 806.25 H 78.125 Z"
         transform="matrix(0.36629831,0,0,0.36629831,-404.04142,-132.73619)"
         clip-rule="evenodd"
         id="path76" />
    </clipPath>
    <clipPath
       clipPathUnits="userSpaceOnUse"
       id="clipPath78">
      <path
         d="m 78.125,34.375 h 1643.75 V 806.25 H 78.125 Z"
         transform="matrix(0.36629831,0,0,0.36629831,-524.04142,-92.736193)"
         clip-rule="evenodd"
         id="path78" />
    </clipPath>
    <clipPath
       clipPathUnits="userSpaceOnUse"
       id="clipPath80">
      <path
         d="m 78.125,34.375 h 1643.75 V 806.25 H 78.125 Z"
         transform="matrix(0.36629831,0,0,0.36629831,-524.04142,-132.73619)"
         clip-rule="evenodd"
         id="path80" />
    </clipPath>
    <clipPath
       clipPathUnits="userSpaceOnUse"
       id="clipPath82">
      <path
         d="m 78.125,34.375 h 1643.75 V 806.25 H 78.125 Z"
         transform="matrix(0.36629831,0,0,0.36629831,-524.04142,-172.7362)"
         clip-rule="evenodd"
         id="path82" />
    </clipPath>
    <clipPath
       clipPathUnits="userSpaceOnUse"
       id="clipPath84">
      <path
         d="m 78.125,34.375 h 1643.75 V 806.25 H 78.125 Z"
         transform="matrix(0.36629831,0,0,0.36629831,-524.04142,-212.73619)"
         clip-rule="evenodd"
         id="path84" />
    </clipPath>
    <clipPath
       clipPathUnits="userSpaceOnUse"
       id="clipPath86">
      <path
         d="m 78.125,34.375 h 1643.75 V 806.25 H 78.125 Z"
         transform="matrix(0.36629831,0,0,0.36629831,-484.04142,-172.7362)"
         clip-rule="evenodd"
         id="path86" />
    </clipPath>
    <clipPath
       clipPathUnits="userSpaceOnUse"
       id="clipPath88">
      <path
         d="m 78.125,34.375 h 1643.75 V 806.25 H 78.125 Z"
         transform="matrix(0.36629831,0,0,0.36629831,-484.04142,-212.73619)"
         clip-rule="evenodd"
         id="path88" />
    </clipPath>
    <clipPath
       clipPathUnits="userSpaceOnUse"
       id="clipPath90">
      <path
         d="m 78.125,34.375 h 1643.75 V 806.25 H 78.125 Z"
         transform="matrix(0.36629831,0,0,0.36629831,-444.04142,-172.7362)"
         clip-rule="evenodd"
         id="path90" />
    </clipPath>
    <clipPath
       clipPathUnits="userSpaceOnUse"
       id="clipPath92">
      <path
         d="m 78.125,34.375 h 1643.75 V 806.25 H 78.125 Z"
         transform="matrix(0.36629831,0,0,0.36629831,-444.04142,-212.73619)"
         clip-rule="evenodd"
         id="path92" />
    </clipPath>
    <clipPath
       clipPathUnits="userSpaceOnUse"
       id="clipPath94">
      <path
         d="m 78.125,34.375 h 1643.75 V 806.25 H 78.125 Z"
         transform="matrix(0.36629831,0,0,0.36629831,-404.04142,-172.7362)"
         clip-rule="evenodd"
         id="path94" />
    </clipPath>
    <clipPath
       clipPathUnits="userSpaceOnUse"
       id="clipPath96">
      <path
         d="m 78.125,34.375 h 1643.75 V 806.25 H 78.125 Z"
         transform="matrix(0.36629831,0,0,0.36629831,-404.04142,-212.73619)"
         clip-rule="evenodd"
         id="path96" />
    </clipPath>
    <clipPath
       clipPathUnits="userSpaceOnUse"
       id="clipPath98">
      <path
         d="m 78.125,34.375 h 1643.75 V 806.25 H 78.125 Z"
         transform="matrix(0.36629831,0,0,0.36629831,-375.77579,-251.73619)"
         clip-rule="evenodd"
         id="path98" />
    </clipPath>
    <clipPath
       clipPathUnits="userSpaceOnUse"
       id="clipPath100">
      <path
         d="m 78.125,34.375 h 1643.75 V 806.25 H 78.125 Z"
         transform="matrix(0.36629831,0,0,0.36629831,-555.77579,-256.7362)"
         clip-rule="evenodd"
         id="path100" />
    </clipPath>
  </defs>
  <g
     id="g1">
    <path
       id="path1"
       d="M 0,0 H 576 V 269 H 0 Z"
       style="fill:#ffffff;fill-opacity:1;fill-rule:nonzero;stroke:none"
       clip-path="url(#clipPath2)" />
    <path
       id="path3"
       d="m 230,-150 h 73.63"
       style="fill:none;stroke:#000000;stroke-width:1;stroke-linecap:butt;stroke-linejoin:miter;stroke-miterlimit:10;stroke-dasharray:none;stroke-opacity:1"
       transform="matrix(0.87360486,0,0,0.87360486,26.449079,257.04616)"
       clip-path="url(#clipPath4)" />
    <path
       id="path5"
       d="m 308.88,-150 -7,3.5 1.75,-3.5 -1.75,-3.5 z"
       style="fill:#000000;fill-opacity:1;fill-rule:nonzero;stroke:#000000;stroke-width:1;stroke-linecap:butt;stroke-linejoin:miter;stroke-miterlimit:10;stroke-dasharray:none;stroke-opacity:1"
       transform="matrix(0.87360486,0,0,0.87360486,26.449079,257.04616)"
       clip-path="url(#clipPath6)" />
    <path
       id="path7"
       d="m 70,-190 h 40 v 40 H 70 Z"
       style="fill:#ffffff;fill-opacity:1;fill-rule:nonzero;stroke:#000000;stroke-width:1;stroke-linecap:butt;stroke-linejoin:miter;stroke-miterlimit:10;stroke-dasharray:none;stroke-opacity:1"
       transform="matrix(0.87360486,0,0,0.87360486,26.449079,257.04616)"
       clip-path="url(#clipPath8)" />
    <path
       id="path9"
       d="m 110,-190 h 40 v 40 h -40 z"
       style="fill:#ffffff;fill-opacity:1;fill-rule:nonzero;stroke:#000000;stroke-width:1;stroke-linecap:butt;stroke-linejoin:miter;stroke-miterlimit:10;stroke-dasharray:none;stroke-opacity:1"
       transform="matrix(0.87360486,0,0,0.87360486,26.449079,257.04616)"
       clip-path="url(#clipPath10)" />
    <path
       id="path11"
       d="m 150,-190 h 40 v 40 h -40 z"
       style="fill:#ffffff;fill-opacity:1;fill-rule:nonzero;stroke:#000000;stroke-width:1;stroke-linecap:butt;stroke-linejoin:miter;stroke-miterlimit:10;stroke-dasharray:none;stroke-opacity:1"
       transform="matrix(0.87360486,0,0,0.87360486,26.449079,257.04616)"
       clip-path="url(#clipPath12)" />
    <path
       id="path13"
       d="m 70,-150 h 40 v 40 H 70 Z"
       style="fill:#ffffff;fill-opacity:1;fill-rule:nonzero;stroke:#000000;stroke-width:1;stroke-linecap:butt;stroke-linejoin:miter;stroke-miterlimit:10;stroke-dasharray:none;stroke-opacity:1"
       transform="matrix(0.87360486,0,0,0.87360486,26.449079,257.04616)"
       clip-path="url(#clipPath14)" />
    <path
       id="path15"
       d="m 110,-150 h 40 v 40 h -40 z"
       style="fill:#ffffff;fill-opacity:1;fill-rule:nonzero;stroke:#000000;stroke-width:1;stroke-linecap:butt;stroke-linejoin:miter;stroke-miterlimit:10;stroke-dasharray:none;stroke-opacity:1"
       transform="matrix(0.87360486,0,0,0.87360486,26.449079,257.04616)"
       clip-path="url(#clipPath16)" />
    <path
       id="path17"
       d="m 150,-150 h 40 v 40 h -40 z"
       style="fill:#ffffff;fill-opacity:1;fill-rule:nonzero;stroke:#000000;stroke-width:1;stroke-linecap:butt;stroke-linejoin:miter;stroke-miterlimit:10;stroke-dasharray:none;stroke-opacity:1"
       transform="matrix(0.87360486,0,0,0.87360486,26.449079,257.04616)"
       clip-path="url(#clipPath18)" />
    <g
       id="g18" />
    <path
       id="path19"
       d="m 6.4766353,-0.18109064 c -1.7527947,0 -3.1478763,-0.65282661 -4.1852446,-1.96742266 -1.0284255,-1.3235389 -1.53816678,-3.3893327 -1.53816678,-6.2063242 0,-2.3698505 0.54104128,-4.3372725 1.62759508,-5.9022685 1.0954967,-1.560523 2.584478,-2.343021 4.4714152,-2.343021 0.4292558,0 0.8629831,0.06707 1.3056532,0.196742 0.4381987,0.178857 0.8137976,0.268285 1.1267966,0.268285 0.2503993,0 0.4516129,-0.02683 0.6081125,-0.08943 0.1520285,-0.05813 0.2951135,-0.183328 0.4292555,-0.375599 l 0.840626,4.131588 -0.572341,0.178856 c -0.371127,-1.180453 -0.8719257,-2.079208 -1.5023952,-2.700735 -0.6215268,-0.630469 -1.4308529,-0.94794 -2.4324499,-0.94794 -1.314596,0 -2.3251359,0.72437 -3.0405623,2.164165 -0.7154264,1.430853 -1.0731396,3.210476 -1.0731396,5.3299272 0,2.316193 0.3085276,4.1271162 0.9300543,5.4372408 0.6170553,1.314596 1.6499522,1.9674227 3.0942193,1.9674227 1.001597,0 1.8601087,-0.3577133 2.5755351,-1.0731397 0.7154265,-0.7154264 1.1983393,-1.6678378 1.4487383,-2.8617057 l 0.572341,0.2861706 c -0.312999,1.314596 -0.889811,2.3922071 -1.7349087,3.2373046 -0.8495689,0.84956884 -1.8332802,1.26988186 -2.951134,1.26988186 z m 0,0"
       style="fill:#000000;fill-opacity:1;fill-rule:nonzero;stroke:none"
       aria-label="C"
       transform="matrix(0.87360486,0,0,0.87360486,99.627136,115.95898)"
       clip-path="url(#clipPath20)" />
    <g
       id="g20" />
    <path
       id="path21"
       d="m 6.4734438,-0.18109064 c -1.7527948,0 -3.1478763,-0.65282661 -4.1852446,-1.96742266 -1.0284255,-1.3235389 -1.53816681,-3.3893327 -1.53816681,-6.2063242 0,-2.3698505 0.54104121,-4.3372725 1.62759511,-5.9022685 1.0954967,-1.560523 2.584478,-2.343021 4.4714151,-2.343021 0.4292559,0 0.8629832,0.06707 1.3056533,0.196742 0.4381987,0.178857 0.8137975,0.268285 1.1267966,0.268285 0.2503992,0 0.4516129,-0.02683 0.6081124,-0.08943 0.1520281,-0.05813 0.2951131,-0.183328 0.4292561,-0.375599 l 0.840626,4.131588 -0.572341,0.178856 c -0.371128,-1.180453 -0.8719262,-2.079208 -1.5023958,-2.700735 -0.6215267,-0.630469 -1.4308528,-0.94794 -2.4324498,-0.94794 -1.3145961,0 -2.3251359,0.72437 -3.0405623,2.164165 -0.7154264,1.430853 -1.0731396,3.210476 -1.0731396,5.3299272 0,2.316193 0.3085276,4.1271162 0.9300543,5.4372408 0.6170553,1.314596 1.6499522,1.9674227 3.0942193,1.9674227 1.001597,0 1.8601087,-0.3577133 2.5755351,-1.0731397 0.7154264,-0.7154264 1.1983388,-1.6678378 1.4487388,-2.8617057 l 0.572341,0.2861706 c -0.312999,1.314596 -0.889812,2.3922071 -1.7349092,3.2373046 -0.8495689,0.84956884 -1.8332802,1.26988186 -2.951134,1.26988186 z m 0,0"
       style="fill:#000000;fill-opacity:1;fill-rule:nonzero;stroke:none"
       aria-label="C"
       transform="matrix(0.87360486,0,0,0.87360486,134.57133,115.95898)"
       clip-path="url(#clipPath22)" />
    <g
       id="g22" />
    <path
       id="path23"
       d="m 5.0617565,-0.93228838 v 0.55445547 H 0.55457001 V -0.93228838 H 1.2163395 c 0.3085276,0 0.5231555,-0.0581284 0.6438837,-0.17885662 0.1296711,-0.129671 0.1967423,-0.3219419 0.1967423,-0.5723411 V -15.097732 c 0,-0.250399 -0.067071,-0.433727 -0.1967423,-0.554455 -0.1207282,-0.129671 -0.3353561,-0.196742 -0.6438837,-0.196742 H 0.66188398 v -0.554456 H 10.409569 l 1.126797,3.362504 -0.465028,0.196743 C 10.57054,-13.845735 9.9713703,-14.596933 9.2827724,-15.097732 8.589703,-15.59853 7.8385053,-15.848929 7.0291791,-15.848929 H 4.399987 c -0.2503992,0 -0.4560843,0.06707 -0.6081124,0.196742 -0.1564996,0.120728 -0.2325136,0.304056 -0.2325136,0.554455 v 6.0095824 h 3.0942193 c 0.6304695,0 1.0820824,-0.1430853 1.3593102,-0.4292559 0.2861705,-0.2861705 0.4292558,-0.7377835 0.4292558,-1.3593105 v -0.465027 h 0.5544555 v 5.437241 H 8.4421463 v -0.3755989 c 0,-0.7511977 -0.1430853,-1.3101246 -0.4292558,-1.6812521 C 7.7356627,-8.3414233 7.2840498,-8.5336941 6.6535803,-8.5336941 H 3.559361 v 6.850208 c 0,0.2503992 0.076014,0.4426701 0.2325136,0.5723411 0.1520281,0.12072822 0.3577132,0.17885662 0.6081124,0.17885662 z m 0,0"
       style="fill:#000000;fill-opacity:1;fill-rule:nonzero;stroke:none"
       aria-label="F"
       transform="matrix(0.87360486,0,0,0.87360486,169.51552,115.95898)"
       clip-path="url(#clipPath24)" />
    <g
       id="g24" />
    <path
       id="path25"
       d="m 6.8522342,-16.688275 v 14.254871 c 0,0.5007985 0.1520281,0.8763974 0.4650272,1.1267966 0.3085276,0.2503993 0.7422549,0.3755989 1.3056532,0.3755989 h 0.94794 v 0.55445548 H 2.7206466 V -0.9310085 h 0.840626 c 0.6304696,0 1.0820825,-0.1251996 1.3593102,-0.3755989 0.2861706,-0.2503992 0.4292559,-0.6259981 0.4292559,-1.1267966 v -11.357394 c 0,-0.2504 -0.080485,-0.451613 -0.2325136,-0.608113 -0.1564995,-0.152028 -0.3934845,-0.232514 -0.7154264,-0.232514 H 2.7206466 v -0.554455 h 0.840626 c 0.7511978,0 1.3593102,-0.1252 1.8243374,-0.375599 0.47397,-0.250399 0.8406261,-0.625998 1.0910253,-1.126796 z m 0,0"
       style="fill:#000000;fill-opacity:1;fill-rule:nonzero;stroke:none"
       aria-label="1"
       transform="matrix(0.87360486,0,0,0.87360486,99.627136,150.90318)"
       clip-path="url(#clipPath26)" />
    <g
       id="g26" />
    <path
       id="path27"
       d="M 9.4603491,-4.1325417 H 9.6570914 V -15.096452 c 0,-0.250399 -0.067071,-0.433727 -0.1967423,-0.554455 -0.1207282,-0.129671 -0.3353561,-0.196742 -0.6438838,-0.196742 H 8.0652676 v -0.554456 h 3.7559884 v 0.554456 h -0.751197 c -0.2504,0 -0.460556,0.06707 -0.625999,0.196742 -0.156499,0.120728 -0.232513,0.304056 -0.232513,0.554455 V -0.37655302 H 9.6570914 L 2.5385985,-14.345254 H 2.3418562 v 12.6630478 c 0,0.2503992 0.076014,0.4426701 0.2325136,0.5723411 0.1520281,0.12072821 0.3577132,0.1788566 0.6081124,0.1788566 H 3.93368 v 0.55445548 H 0.17769125 V -0.9310085 H 0.928889 c 0.3219419,0 0.5410412,-0.0581284 0.6617694,-0.1788566 0.1296711,-0.129671 0.1967423,-0.3219419 0.1967423,-0.5723411 V -15.096452 c 0,-0.250399 -0.067071,-0.433727 -0.1967423,-0.554455 -0.1207282,-0.129671 -0.3398275,-0.196742 -0.6617694,-0.196742 H 0.37443352 v -0.554456 H 3.0930539 Z m 0,0"
       style="fill:#000000;fill-opacity:1;fill-rule:nonzero;stroke:none"
       aria-label="N"
       transform="matrix(0.87360486,0,0,0.87360486,134.57133,150.90318)"
       clip-path="url(#clipPath28)" />
    <g
       id="g28" />
    <path
       id="path29"
       d="m 6.2779814,-7.1194471 3.5592465,5.5266692 c 0.1877991,0.2503992 0.3621841,0.4247844 0.5186841,0.5186841 0.152028,0.0983711 0.326413,0.1430853 0.518684,0.1430853 h 0.375599 v 0.55445548 H 7.404778 V -0.9310085 h 0.2861706 c 0.3085276,0 0.5231556,-0.0447142 0.6438838,-0.1430853 0.129671,-0.0939 0.098371,-0.2682849 -0.089428,-0.5186841 L 5.347927,-6.1893927 3.4699327,-4.22197 v 2.5397638 c 0,0.2503992 0.076014,0.4426701 0.2325136,0.5723411 0.1520281,0.12072821 0.3577132,0.1788566 0.6081124,0.1788566 h 0.4650272 v 0.55445548 H 0.84074058 V -0.9310085 H 1.3057678 c 0.3219418,0 0.5410412,-0.0581284 0.6617694,-0.1788566 0.129671,-0.129671 0.1967423,-0.3219419 0.1967423,-0.5723411 V -15.096452 c 0,-0.250399 -0.067071,-0.433727 -0.1967423,-0.554455 -0.1207282,-0.129671 -0.3398276,-0.196742 -0.6617694,-0.196742 H 0.75131228 v -0.554456 H 1.5919383 c 0.3800703,0 0.7064836,-0.05813 0.9837114,-0.178857 0.2861705,-0.129671 0.5186841,-0.321941 0.6975407,-0.572341 H 3.4699327 V -5.2593384 L 7.404778,-9.4624686 C 7.5344491,-9.7128678 7.5836346,-9.9140815 7.5478633,-10.070581 7.512092,-10.236023 7.3690067,-10.32098 7.1186074,-10.32098 H 6.564152 v -0.554456 h 3.934845 v 0.554456 H 10.03397 c -0.1922707,0 -0.4292557,0.04919 -0.7154263,0.143085 -0.2772277,0.09837 -0.5365698,0.2682849 -0.7869691,0.5186841 z M 9.1933441,-10.32098 Z m -1.0373683,0 z m 0.4650271,9.3899715 z m 1.6991381,0 z m 0,0"
       style="fill:#000000;fill-opacity:1;fill-rule:nonzero;stroke:none"
       aria-label="k"
       transform="matrix(0.87360486,0,0,0.87360486,169.51552,150.90318)"
       clip-path="url(#clipPath30)" />
    <g
       id="g30" />
    <path
       id="path31"
       d="m 7.2261137,-9.3717604 c -1.3145961,0 -1.9674227,-0.5946982 -1.9674227,-1.7885656 0,-4.243373 -0.035771,-6.930694 -0.107314,-8.066433 l 1.5023955,0.858511 H 16.687628 l 0.94794,-0.94794 1.305653,1.305654 -0.751197,0.482912 c 0,1.815395 0.02683,3.183648 0.08943,4.113702 l -1.395082,0.572341 v -1.037368 H 6.5643442 v 2.164165 c 0,0.871926 0.4694986,1.305653 1.4129672,1.305653 H 18.565622 c 0.558927,0 0.916641,-0.250399 1.07314,-0.751197 0.152028,-0.500799 0.268285,-1.591824 0.339828,-3.273076 h 0.465027 c 0,1.064196 0.07601,1.922708 0.232513,2.575535 0.152029,0.657298 0.451613,1.046311 0.894283,1.162568 -0.384541,0.8853399 -1.260939,1.3235386 -2.629192,1.3235386 z M 6.5643442,-17.813792 v 3.38039 H 16.88437 v -3.38039 z m 4.0242738,17.34909057 c 1.752795,0.19227085 2.90642,0.30405623 3.469818,0.33982755 0.572341,0.02682849 0.88534,-0.24145642 0.94794,-0.80485473 V -5.7230856 H 4.6863499 c -0.8137976,0 -1.5649953,0.098371 -2.2535933,0.2861705 l -0.840626,-0.840626 H 15.006376 c 0,-1.2519963 -0.0313,-2.2222933 -0.08943,-2.9153627 l 2.235707,1.0373683 -0.840626,0.6617695 v 1.2162249 h 2.539764 l 1.502396,-1.5023955 2.05685,2.056851 h -6.09901 v 5.34781247 c 0,1.05972539 -0.751198,1.90482283 -2.253593,2.53976383 C 13.879579,1.2791505 12.721483,0.55925263 10.588618,3.2574182e-4 Z M 6.4749159,-5.1507445 6.7432008,-5.4369151 c 1.8824658,1.3145961 2.8348772,2.2848932 2.8617057,2.9153627 0.035771,0.6215267 -0.089428,1.055254 -0.3755989,1.3056532 -0.2772277,0.25039927 -0.4784414,0.37559889 -0.6081124,0.37559889 -0.2503993,0 -0.4650272,-0.34429899 -0.6438838,-1.03736829 C 7.7269122,-2.8792656 7.2261137,-3.9702909 6.4749159,-5.1507445 Z M 31.318098,-17.90322 l 0.840627,-0.840627 c 2.311721,0.813798 3.720217,1.699138 4.221015,2.664964 0.500799,0.965826 1.091026,2.481635 1.770681,4.542958 0.630469,2.0657935 1.775152,4.1941871 3.434047,6.3851805 1.654423,2.1820506 3.60396,3.6218463 5.848611,4.31044419 v 0.37559888 c -1.064197,0 -1.873523,0.40689877 -2.43245,1.21622492 -1.564995,-1.18939643 -2.87512,-2.49057819 -3.934846,-3.89907399 -1.064196,-1.4040244 -1.922708,-2.8259344 -2.575535,-4.2567872 -0.657298,-1.4397957 -1.269882,-3.2238903 -1.842223,-5.3478123 -0.871926,2.8751197 -2.11945,5.4551262 -3.738103,7.7444908 -1.623123,2.2804217 -4.091345,4.48035795 -7.404663,6.5998087 L 25.308517,1.2165507 c 2.81252,-2.17757921 5.048227,-4.534015 6.707122,-7.064836 1.654424,-2.5397638 2.830406,-5.4014697 3.523475,-8.5851167 0.178857,-0.751198 -0.125199,-1.404025 -0.912168,-1.967423 -0.778027,-0.572341 -1.877995,-1.07314 -3.308848,-1.502395 z m 21.838392,3.738103 v 6.0095815 h 4.8649 v -6.0095815 z m 0,6.564037 v 6.5640374 h 4.8649 V -7.60108 Z m 6.09901,-5.991696 c 0,7.3107635 0.02683,12.0907063 0.08943,14.34429949 L 58.02139,1.5027212 v -1.96742263 h -4.8649 V 1.1271224 l -1.305653,0.7511977 c 0.05813,-2.9421912 0.08943,-5.8664967 0.08943,-8.7639737 0,-2.9064198 -0.0313,-5.7994254 -0.08943,-8.6745454 l 1.395081,0.840626 h 0.94794 c 0.617056,-2.119451 0.956883,-3.747046 1.019483,-4.882785 l 2.074737,1.126796 c -0.634941,0.312999 -1.480039,1.564996 -2.539764,3.755989 h 3.094219 l 0.930054,-0.930054 1.412968,1.395081 z m 4.596615,-5.902268 2.056851,1.216225 c -0.500798,0.312999 -1.283296,1.591823 -2.343022,3.845417 h 5.061642 l 1.037369,-1.037369 1.395081,1.412968 -0.840626,0.643883 C 70.085268,-6.0897417 69.915354,-1.9492113 69.700726,-0.98338559 69.486098,-0.01755992 69.173099,0.64868094 68.770672,1.0198084 68.363773,1.3998787 67.719889,1.7441776 66.83902,2.0571767 66.526021,1.0555797 65.497596,0.30885339 63.744801,-0.17853086 V -0.6614437 c 1.560524,0.32194189 2.687321,0.48291284 3.38039,0.48291284 0.688598,0 1.113382,-0.52762699 1.269882,-1.59182384 0.152028,-1.0731396 0.290642,-5.1063561 0.41137,-12.1085923 h -5.437241 c -1.122325,1.815395 -2.30725,3.344619 -3.559246,4.5966149 l -0.286171,-0.1788566 c 1.310125,-2.0031943 2.275951,-3.7828173 2.897477,-5.3478123 0.63047,-1.560524 1.108911,-3.121048 1.430853,-4.686043 z m -1.699138,9.175344 c 1.502396,1.135739 2.378793,1.9674223 2.629192,2.5039921 0.2504,0.527627 0.375599,0.9121687 0.375599,1.1625679 0,0.4292559 -0.125199,0.8048547 -0.375599,1.1267966 -0.250399,0.3129991 -0.44267,0.4650272 -0.572341,0.4650272 -0.241456,0 -0.424784,-0.4337273 -0.554455,-1.3056532 -0.250399,-1.2519963 -0.813798,-2.4726926 -1.681252,-3.6665606 z m 19.982755,-2.14628 c 0,-1.131268 -0.2504,-1.989779 -0.751198,-2.575535 -0.500799,-0.594698 -1.251996,-0.894283 -2.253593,-0.894283 -0.751198,0 -1.395082,0.205685 -1.931652,0.608113 -0.527627,0.406898 -0.786969,0.921111 -0.786969,1.538166 0,0.384542 0.1252,0.697541 0.375599,0.94794 0.178857,0.2504 0.268285,0.500799 0.268285,0.751198 0,0.312999 -0.08048,0.545513 -0.232514,0.697541 -0.156499,0.156499 -0.389013,0.232514 -0.69754,0.232514 -0.371128,0 -0.670713,-0.107314 -0.894283,-0.321942 -0.214628,-0.223571 -0.321942,-0.581284 -0.321942,-1.07314 0,-1.323539 0.465027,-2.325136 1.395081,-3.004791 0.938997,-0.688598 1.940594,-1.037368 3.004791,-1.037368 1.502396,0 2.611307,0.375599 3.326733,1.126796 0.724369,0.751198 1.091025,1.690195 1.091025,2.808049 0,0.751198 -0.174385,1.502396 -0.518684,2.253593 -0.34877,0.751198 -0.894283,1.4755673 -1.645481,2.1641652 -1.815394,1.7438519 -3.201533,3.1612905 -4.167358,4.2567872 -0.965826,1.0999682 -1.54711,1.8332802 -1.73491,2.1999363 h 5.52667 c 0.558926,0 1.023954,-0.2146279 1.395081,-0.6438838 0.38007,-0.4381987 0.634941,-1.0954967 0.769084,-1.9674227 h 0.554455 l -0.554455,4.02427367 H 74.623754 V -1.591498 c 0.308528,-0.5589269 0.822741,-1.2743534 1.538167,-2.1462793 0.724369,-0.8808688 1.685723,-1.9182371 2.879591,-3.112105 1.059726,-1.0597253 1.842223,-2.0568509 2.343022,-2.9869053 0.500798,-0.9389974 0.751198,-1.8153944 0.751198,-2.6291924 z m 8.799745,-3.755988 6.760779,6.7607793 6.456724,-6.7607793 0.84063,0.751197 -6.564042,6.7428944 6.760782,6.6713514 -0.84063,0.840626 -6.653464,-6.7607797 -6.760779,6.7607797 -0.751198,-0.7511977 6.76078,-6.7607797 -6.76078,-6.7428944 z m 29.909293,11.5362507 c 0,1.1804536 -0.44267,2.2312361 -1.32354,3.1478762 -0.87192,0.90769731 -2.08815,1.35931024 -3.64867,1.35931024 -1.12233,0 -2.08815,-0.30852765 -2.89748,-0.93005434 -0.8138,-0.6304695 -1.21622,-1.3503674 -1.21622,-2.1641649 0,-0.3800703 0.1252,-0.7064836 0.3756,-0.9837114 0.2504,-0.2861705 0.50079,-0.4292558 0.75119,-0.4292558 0.36666,0 0.63047,0.1430853 0.78697,0.4292558 0.15203,0.2772278 0.23252,0.5097414 0.23252,0.6975408 0,0.312999 -0.0626,0.5633983 -0.17886,0.7511977 -0.13414,0.2503993 -0.19674,0.4650272 -0.19674,0.6438838 0,0.3845417 0.23251,0.6975408 0.69754,0.94794 0.47397,0.25039927 0.99265,0.37559889 1.55605,0.37559889 1.11785,0 1.95848,-0.32641329 2.52188,-0.98371129 0.57234,-0.6528266 0.85851,-1.6723093 0.85851,-3.058448 0,-1.1178538 -0.29958,-2.0210796 -0.89428,-2.7007347 -0.59917,-0.688598 -1.70808,-1.0373684 -3.32674,-1.0373684 v -0.6617694 c 1.252,0 2.16864,-0.2951134 2.7544,-0.8942829 0.59469,-0.594698 0.89428,-1.42191 0.89428,-2.486107 0,-0.867454 -0.23251,-1.632066 -0.69754,-2.289365 -0.46503,-0.652826 -1.19834,-0.983711 -2.19994,-0.983711 -0.44267,0 -0.91217,0.116257 -1.41296,0.339828 -0.5008,0.214628 -0.7512,0.567869 -0.7512,1.055254 0,0.500798 0.0626,0.818269 0.19674,0.94794 0.11626,0.120728 0.17886,0.277227 0.17886,0.465027 0,0.312999 -0.0671,0.563398 -0.19675,0.751198 -0.12072,0.19227 -0.33535,0.28617 -0.64388,0.28617 -0.2504,0 -0.49186,-0.0939 -0.71543,-0.28617 -0.21462,-0.1878 -0.32194,-0.53657 -0.32194,-1.037369 0,-0.930054 0.40243,-1.690195 1.21623,-2.289364 0.82274,-0.594698 1.76173,-0.894283 2.82593,-0.894283 1.252,0 2.24465,0.393484 2.98691,1.180453 0.75119,0.778027 1.12679,1.605238 1.12679,2.486107 0,0.930054 -0.23251,1.725966 -0.69754,2.378793 -0.46502,0.657298 -1.19834,1.1446823 -2.19993,1.4666242 1.36825,0.4918556 2.30725,1.1446822 2.80804,1.9674226 0.5008,0.8137976 0.7512,1.6231237 0.7512,2.4324499 z m 23.25136,-12.9492187 v 15.5784108 c 0,1.25199622 0.0268,2.36985 0.0894,3.3625042 l -1.39508,0.7511977 V 0.17918235 H 127.49824 V 1.6815778 l -1.41297,0.5723412 c 0.0715,-1.2519963 0.10732,-2.530821 0.10732,-3.845417 v -14.165443 c 0,-1.059726 -0.0358,-2.244651 -0.10732,-3.559247 l 1.41297,0.840626 h 15.0955 l 0.66177,-0.930054 1.50239,1.216225 z m -16.59789,-0.268284 v 11.5362506 c 2.93325,-1.2519963 5.21367,-2.6560206 6.85021,-4.2210156 -0.8138,-1.131268 -1.5337,-2.414564 -2.16417,-3.845417 -1.0016,1.564995 -2.06579,2.87512 -3.18365,3.934845 l -0.28617,-0.196742 c 1.0016,-1.310125 1.84223,-2.669435 2.52188,-4.077931 0.6886,-1.404024 1.09997,-2.450335 1.23411,-3.12999 z m 0,17.52794687 h 15.29224 V -17.90322 h -10.14117 l 1.60971,0.840626 -0.57234,0.28617 c -0.37113,0.563398 -0.65283,0.997126 -0.84063,1.305653 h 4.97221 l 0.64389,-0.840626 1.41297,1.305654 -0.7512,0.465027 c -1.0642,1.502395 -2.15522,2.879591 -3.27308,4.131587 1.93165,1.4442674 4.14947,2.2893648 6.65347,2.5397641 v 0.3755989 c -0.94347,0.0626 -1.53817,0.4381986 -1.78857,1.1267966 -2.18205,-0.8227404 -4.09134,-1.949537 -5.72341,-3.3803899 -2.18205,1.7527948 -4.68157,3.0360909 -7.49409,3.8454171 z m 5.06164,-14.54104187 c 0.88087,1.573938 1.72597,2.799106 2.53976,3.66656 0.86746,-1.001597 1.74386,-2.222293 2.6292,-3.66656 z m 0.57234,7.2258067 c 1.48898,0.3129991 2.54424,0.5902268 3.16576,0.840626 0.63047,0.2503993 0.91664,0.6751837 0.85851,1.2698819 -0.0626,0.5991697 -0.18779,0.8942831 -0.37559,0.8942831 -0.19227,0 -0.41137,-0.1520281 -0.66177,-0.4650272 -0.62153,-0.6304695 -1.65443,-1.3816673 -3.09422,-2.2535932 z m -1.78856,3.3803898 c 2.87064,0.3129991 4.76205,0.6081125 5.66975,0.8942831 0.90323,0.2772277 1.38614,0.7601405 1.44874,1.4487385 0.0715,0.6930693 -0.0537,1.03736829 -0.3756,1.03736829 -0.17886,0 -0.49186,-0.18779939 -0.93006,-0.57234109 -0.94346,-0.7511978 -2.87959,-1.5605239 -5.81283,-2.4324499 z m 23.34078,-7.5119775 c 0,1.502396 -0.0626,2.852763 -0.17885,4.0421594 h 7.86969 l 0.66177,-1.0373683 1.59182,1.2162249 -0.7512,0.6617694 c 0,4.1852446 0.0268,7.05589314 0.0894,8.6208884 l -1.5024,0.6617695 c 0.0581,-1.87352297 0.0894,-5.061642 0.0894,-9.5688284 h -8.04854 c -0.44267,3.8185885 -2.28937,6.85467938 -5.54456,9.1038012 l -0.17886,-0.2861706 c 1.68126,-1.67678065 2.8483,-3.4564039 3.50559,-5.3299268 0.66624,-1.8824658 1.01054,-4.3685726 1.03737,-7.4583207 0.0358,-3.09869 0.0224,-5.490898 -0.0358,-7.17215 l 2.23571,1.019483 -0.84063,0.751198 v 4.221016 h 6.38518 c 0,-3.183648 -0.0358,-5.589269 -0.10731,-7.225807 l 2.16416,1.037368 -0.75119,0.751198 v 5.437241 h 3.93484 l 1.41297,-1.412968 1.68125,1.967423 z m 20.62664,3.9527311 v 6.1884385 c 0,0.2503993 0.076,0.4426701 0.23251,0.5723412 0.15203,0.12072819 0.35772,0.17885659 0.60812,0.17885659 h 0.66177 v 0.55445548 h -4.50719 v -0.55445548 h 0.66177 c 0.30853,0 0.52315,-0.0581284 0.64388,-0.17885659 0.12967,-0.1296711 0.19674,-0.3219419 0.19674,-0.5723412 V -15.095172 c 0,-0.250399 -0.0671,-0.433727 -0.19674,-0.554455 -0.12073,-0.129671 -0.33535,-0.196743 -0.64388,-0.196743 h -0.55446 v -0.554455 h 5.52667 c 1.56053,0 2.76334,0.393485 3.61291,1.180454 0.84509,0.778026 1.26988,1.752794 1.26988,2.933248 0,1.444267 -0.45609,2.5397637 -1.35931,3.2909615 -0.9077,0.7511977 -1.98531,1.1267966 -3.23731,1.1267966 z m 2.34302,-0.5723412 c 0.939,0 1.77068,-0.2772277 2.48611,-0.840626 0.71543,-0.5589269 1.07314,-1.5247529 1.07314,-2.8974769 0,-1.251996 -0.29959,-2.173108 -0.89428,-2.772278 -0.58576,-0.594698 -1.5337,-0.894283 -2.84382,-0.894283 h -1.32354 c -0.2504,0 -0.45609,0.06707 -0.60812,0.196743 -0.1565,0.120728 -0.23251,0.304056 -0.23251,0.554455 v 6.6534659 z m 0,0"
       style="fill:#000000;fill-opacity:1;fill-rule:nonzero;stroke:none"
       aria-label="导入的2×3图片P"
       transform="matrix(0.87360486,0,0,0.87360486,59.550513,185.84737)"
       clip-path="url(#clipPath32)" />
    <path
       id="path33"
       d="m 360,-230 h 40 v 40 h -40 z"
       style="fill:#ffffff;fill-opacity:1;fill-rule:nonzero;stroke:#000000;stroke-width:1;stroke-linecap:butt;stroke-linejoin:miter;stroke-miterlimit:10;stroke-dasharray:none;stroke-opacity:1"
       transform="matrix(0.87360486,0,0,0.87360486,26.449079,257.04616)"
       clip-path="url(#clipPath34)" />
    <path
       id="path35"
       d="m 400,-230 h 40 v 40 h -40 z"
       style="fill:#ffffff;fill-opacity:1;fill-rule:nonzero;stroke:#000000;stroke-width:1;stroke-linecap:butt;stroke-linejoin:miter;stroke-miterlimit:10;stroke-dasharray:none;stroke-opacity:1"
       transform="matrix(0.87360486,0,0,0.87360486,26.449079,257.04616)"
       clip-path="url(#clipPath36)" />
    <path
       id="path37"
       d="m 440,-230 h 40 v 40 h -40 z"
       style="fill:#ffffff;fill-opacity:1;fill-rule:nonzero;stroke:#000000;stroke-width:1;stroke-linecap:butt;stroke-linejoin:miter;stroke-miterlimit:10;stroke-dasharray:none;stroke-opacity:1"
       transform="matrix(0.87360486,0,0,0.87360486,26.449079,257.04616)"
       clip-path="url(#clipPath38)" />
    <path
       id="path39"
       d="m 480,-230 h 40 v 40 h -40 z"
       style="fill:#ffffff;fill-opacity:1;fill-rule:nonzero;stroke:#000000;stroke-width:1;stroke-linecap:butt;stroke-linejoin:miter;stroke-miterlimit:10;stroke-dasharray:none;stroke-opacity:1"
       transform="matrix(0.87360486,0,0,0.87360486,26.449079,257.04616)"
       clip-path="url(#clipPath40)" />
    <path
       id="path41"
       d="m 360,-190 h 40 v 40 h -40 z"
       style="fill:#ffffff;fill-opacity:1;fill-rule:nonzero;stroke:#000000;stroke-width:1;stroke-linecap:butt;stroke-linejoin:miter;stroke-miterlimit:10;stroke-dasharray:none;stroke-opacity:1"
       transform="matrix(0.87360486,0,0,0.87360486,26.449079,257.04616)"
       clip-path="url(#clipPath42)" />
    <path
       id="path43"
       d="m 400,-190 h 40 v 40 h -40 z"
       style="fill:#ffffff;fill-opacity:1;fill-rule:nonzero;stroke:#000000;stroke-width:1;stroke-linecap:butt;stroke-linejoin:miter;stroke-miterlimit:10;stroke-dasharray:none;stroke-opacity:1"
       transform="matrix(0.87360486,0,0,0.87360486,26.449079,257.04616)"
       clip-path="url(#clipPath44)" />
    <path
       id="path45"
       d="m 440,-190 h 40 v 40 h -40 z"
       style="fill:#ffffff;fill-opacity:1;fill-rule:nonzero;stroke:#000000;stroke-width:1;stroke-linecap:butt;stroke-linejoin:miter;stroke-miterlimit:10;stroke-dasharray:none;stroke-opacity:1"
       transform="matrix(0.87360486,0,0,0.87360486,26.449079,257.04616)"
       clip-path="url(#clipPath46)" />
    <path
       id="path47"
       d="m 480,-190 h 40 v 40 h -40 z"
       style="fill:#ffffff;fill-opacity:1;fill-rule:nonzero;stroke:#000000;stroke-width:1;stroke-linecap:butt;stroke-linejoin:miter;stroke-miterlimit:10;stroke-dasharray:none;stroke-opacity:1"
       transform="matrix(0.87360486,0,0,0.87360486,26.449079,257.04616)"
       clip-path="url(#clipPath48)" />
    <path
       id="path49"
       d="m 360,-150 h 40 v 40 h -40 z"
       style="fill:#ffffff;fill-opacity:1;fill-rule:nonzero;stroke:#000000;stroke-width:1;stroke-linecap:butt;stroke-linejoin:miter;stroke-miterlimit:10;stroke-dasharray:none;stroke-opacity:1"
       transform="matrix(0.87360486,0,0,0.87360486,26.449079,257.04616)"
       clip-path="url(#clipPath50)" />
    <path
       id="path51"
       d="m 400,-150 h 40 v 40 h -40 z"
       style="fill:#ffffff;fill-opacity:1;fill-rule:nonzero;stroke:#000000;stroke-width:1;stroke-linecap:butt;stroke-linejoin:miter;stroke-miterlimit:10;stroke-dasharray:none;stroke-opacity:1"
       transform="matrix(0.87360486,0,0,0.87360486,26.449079,257.04616)"
       clip-path="url(#clipPath52)" />
    <path
       id="path53"
       d="m 440,-150 h 40 v 40 h -40 z"
       style="fill:#ffffff;fill-opacity:1;fill-rule:nonzero;stroke:#000000;stroke-width:1;stroke-linecap:butt;stroke-linejoin:miter;stroke-miterlimit:10;stroke-dasharray:none;stroke-opacity:1"
       transform="matrix(0.87360486,0,0,0.87360486,26.449079,257.04616)"
       clip-path="url(#clipPath54)" />
    <path
       id="path55"
       d="m 480,-150 h 40 v 40 h -40 z"
       style="fill:#ffffff;fill-opacity:1;fill-rule:nonzero;stroke:#000000;stroke-width:1;stroke-linecap:butt;stroke-linejoin:miter;stroke-miterlimit:10;stroke-dasharray:none;stroke-opacity:1"
       transform="matrix(0.87360486,0,0,0.87360486,26.449079,257.04616)"
       clip-path="url(#clipPath56)" />
    <path
       id="path57"
       d="m 360,-110 h 40 v 40 h -40 z"
       style="fill:#ffffff;fill-opacity:1;fill-rule:nonzero;stroke:#000000;stroke-width:1;stroke-linecap:butt;stroke-linejoin:miter;stroke-miterlimit:10;stroke-dasharray:none;stroke-opacity:1"
       transform="matrix(0.87360486,0,0,0.87360486,26.449079,257.04616)"
       clip-path="url(#clipPath58)" />
    <path
       id="path59"
       d="m 400,-110 h 40 v 40 h -40 z"
       style="fill:#ffffff;fill-opacity:1;fill-rule:nonzero;stroke:#000000;stroke-width:1;stroke-linecap:butt;stroke-linejoin:miter;stroke-miterlimit:10;stroke-dasharray:none;stroke-opacity:1"
       transform="matrix(0.87360486,0,0,0.87360486,26.449079,257.04616)"
       clip-path="url(#clipPath60)" />
    <path
       id="path61"
       d="m 440,-110 h 40 v 40 h -40 z"
       style="fill:#ffffff;fill-opacity:1;fill-rule:nonzero;stroke:#000000;stroke-width:1;stroke-linecap:butt;stroke-linejoin:miter;stroke-miterlimit:10;stroke-dasharray:none;stroke-opacity:1"
       transform="matrix(0.87360486,0,0,0.87360486,26.449079,257.04616)"
       clip-path="url(#clipPath62)" />
    <path
       id="path63"
       d="m 480,-110 h 40 v 40 h -40 z"
       style="fill:#ffffff;fill-opacity:1;fill-rule:nonzero;stroke:#000000;stroke-width:1;stroke-linecap:butt;stroke-linejoin:miter;stroke-miterlimit:10;stroke-dasharray:none;stroke-opacity:1"
       transform="matrix(0.87360486,0,0,0.87360486,26.449079,257.04616)"
       clip-path="url(#clipPath64)" />
    <g
       id="g64" />
    <path
       id="path65"
       d="m 6.474731,-0.17789911 c -1.7527948,0 -3.1478763,-0.65282661 -4.1852446,-1.96742269 -1.0284255,-1.3235389 -1.53816683,-3.3893327 -1.53816683,-6.2063242 0,-2.36985 0.54104123,-4.337273 1.62759513,-5.902268 1.0954967,-1.560524 2.5844779,-2.343022 4.4714151,-2.343022 0.4292559,0 0.8629831,0.06707 1.3056532,0.196743 0.4381987,0.178856 0.8137976,0.268285 1.1267967,0.268285 0.2503992,0 0.4516129,-0.02683 0.6081124,-0.08943 0.1520279,-0.05813 0.2951139,-0.183328 0.4292559,-0.375599 l 0.840626,4.131588 -0.572341,0.178857 c -0.371128,-1.180454 -0.8719261,-2.079208 -1.5023956,-2.700735 -0.6215267,-0.63047 -1.4308528,-0.94794 -2.4324498,-0.94794 -1.3145961,0 -2.3251359,0.724369 -3.0405623,2.164165 -0.7154265,1.430853 -1.0731397,3.210476 -1.0731397,5.3299267 0,2.316193 0.3085277,4.1271162 0.9300544,5.4372408 0.6170553,1.3145961 1.6499522,1.9674227 3.0942193,1.9674227 1.0015969,0 1.8601087,-0.3577132 2.5755351,-1.0731397 0.7154264,-0.7154264 1.1983396,-1.6678378 1.4487386,-2.8617056 l 0.572341,0.2861705 c -0.312999,1.3145961 -0.889812,2.3922071 -1.7349091,3.2373046 -0.8495688,0.84956886 -1.8332802,1.26988189 -2.9511339,1.26988189 z m 0,0"
       style="fill:#000000;fill-opacity:1;fill-rule:nonzero;stroke:none"
       aria-label="C"
       transform="matrix(0.87360486,0,0,0.87360486,352.97255,81.014789)"
       clip-path="url(#clipPath66)" />
    <g
       id="g66" />
    <path
       id="path67"
       d="m 6.4760108,-0.17789911 c -1.7527947,0 -3.1478762,-0.65282661 -4.1852445,-1.96742269 -1.0284255,-1.3235389 -1.53816685,-3.3893327 -1.53816685,-6.2063242 0,-2.36985 0.54104125,-4.337273 1.62759515,-5.902268 1.0954967,-1.560524 2.5844779,-2.343022 4.4714151,-2.343022 0.4292559,0 0.8629831,0.06707 1.3056532,0.196743 0.4381987,0.178856 0.8137976,0.268285 1.1267967,0.268285 0.2503992,0 0.4516129,-0.02683 0.6081124,-0.08943 0.152028,-0.05813 0.295113,-0.183328 0.429256,-0.375599 l 0.840626,4.131588 -0.572341,0.178857 c -0.371128,-1.180454 -0.8719262,-2.079208 -1.5023957,-2.700735 -0.6215267,-0.63047 -1.4308529,-0.94794 -2.4324499,-0.94794 -1.314596,0 -2.3251358,0.724369 -3.0405623,2.164165 -0.7154264,1.430853 -1.0731396,3.210476 -1.0731396,5.3299267 0,2.316193 0.3085277,4.1271162 0.9300544,5.4372408 0.6170553,1.3145961 1.6499522,1.9674227 3.0942192,1.9674227 1.001597,0 1.8601087,-0.3577132 2.5755352,-1.0731397 0.7154264,-0.7154264 1.1983397,-1.6678378 1.4487387,-2.8617056 l 0.572341,0.2861705 c -0.312999,1.3145961 -0.889812,2.3922071 -1.7349092,3.2373046 -0.8495688,0.84956886 -1.8332802,1.26988189 -2.951134,1.26988189 z m 0,0"
       style="fill:#000000;fill-opacity:1;fill-rule:nonzero;stroke:none"
       aria-label="C"
       transform="matrix(0.87360486,0,0,0.87360486,387.91674,81.014789)"
       clip-path="url(#clipPath68)" />
    <g
       id="g68" />
    <path
       id="path69"
       d="m 5.0598521,-0.92909686 v 0.55445548 H 0.55266566 V -0.92909686 H 1.2144351 c 0.3085276,0 0.5231556,-0.0581284 0.6438838,-0.17885664 0.129671,-0.129671 0.1967422,-0.3219419 0.1967422,-0.5723411 V -15.09454 c 0,-0.250399 -0.067071,-0.433727 -0.1967422,-0.554456 -0.1207282,-0.129671 -0.3353562,-0.196742 -0.6438838,-0.196742 H 0.65997962 v -0.554455 H 10.407665 l 1.126796,3.362504 -0.465027,0.196742 C 10.568636,-13.842544 9.969466,-14.593742 9.280868,-15.09454 8.5877987,-15.595339 7.8366009,-15.845738 7.0272748,-15.845738 H 4.3980827 c -0.2503993,0 -0.4560844,0.06707 -0.6081125,0.196742 -0.1564995,0.120729 -0.2325136,0.304057 -0.2325136,0.554456 v 6.0095819 h 3.0942193 c 0.6304696,0 1.0820825,-0.1430853 1.3593102,-0.4292558 0.2861706,-0.2861706 0.4292559,-0.7377831 0.4292559,-1.3593101 v -0.465027 h 0.5544555 v 5.4372405 H 8.440242 v -0.3755989 c 0,-0.7511977 -0.1430853,-1.3101246 -0.4292559,-1.6812521 C 7.7337584,-8.3382318 7.2821455,-8.5305026 6.6516759,-8.5305026 H 3.5574566 v 6.850208 c 0,0.2503992 0.076014,0.4426701 0.2325136,0.5723411 0.1520281,0.12072825 0.3577132,0.17885664 0.6081125,0.17885664 z m 0,0"
       style="fill:#000000;fill-opacity:1;fill-rule:nonzero;stroke:none"
       aria-label="F"
       transform="matrix(0.87360486,0,0,0.87360486,422.86094,81.014789)"
       clip-path="url(#clipPath70)" />
    <g
       id="g70" />
    <path
       id="path71"
       d="M 9.4629162,-4.1338216 H 9.6596584 V -15.097732 c 0,-0.250399 -0.067071,-0.433727 -0.1967422,-0.554455 C 9.3421879,-15.781858 9.12756,-15.848929 8.8190324,-15.848929 H 8.0678346 v -0.554456 h 3.7559884 v 0.554456 h -0.751197 c -0.2504,0 -0.460556,0.06707 -0.625999,0.196742 -0.156499,0.120728 -0.232513,0.304056 -0.232513,0.554455 V -0.37783291 H 9.6596584 L 2.5411655,-14.346534 H 2.3444232 v 12.6630479 c 0,0.2503992 0.076014,0.4426701 0.2325136,0.5723411 0.1520281,0.12072822 0.3577132,0.17885662 0.6081125,0.17885662 H 3.936247 v 0.55445547 H 0.18025832 v -0.55445547 h 0.75119774 c 0.32194194,0 0.54104124,-0.0581284 0.66176944,-0.17885662 0.129671,-0.129671 0.1967423,-0.3219419 0.1967423,-0.5723411 V -15.097732 c 0,-0.250399 -0.067071,-0.433727 -0.1967423,-0.554455 -0.1207282,-0.129671 -0.3398275,-0.196742 -0.66176944,-0.196742 H 0.37700058 v -0.554456 H 3.095621 Z m 0,0"
       style="fill:#000000;fill-opacity:1;fill-rule:nonzero;stroke:none"
       aria-label="N"
       transform="matrix(0.87360486,0,0,0.87360486,387.91674,115.95898)"
       clip-path="url(#clipPath72)" />
    <g
       id="g72" />
    <path
       id="path73"
       d="m 6.276077,-7.1207269 3.5592465,5.5266691 c 0.1877995,0.2503992 0.3621845,0.4247844 0.5186845,0.5186841 0.152028,0.0983712 0.326413,0.14308532 0.518684,0.14308532 h 0.375599 v 0.55445547 H 7.4028737 v -0.55445547 h 0.2861705 c 0.3085277,0 0.5231556,-0.0447142 0.6438838,-0.14308532 0.1296711,-0.0939 0.098371,-0.2682849 -0.089428,-0.5186841 L 5.346023,-6.1906726 3.4680286,-4.2232499 v 2.5397638 c 0,0.2503992 0.076014,0.4426701 0.2325136,0.5723411 0.1520281,0.12072822 0.3577132,0.17885662 0.6081125,0.17885662 h 0.4650272 v 0.55445547 H 0.83883623 V -0.93228838 H 1.3038634 c 0.3219419,0 0.5410412,-0.0581284 0.6617694,-0.17885662 0.1296711,-0.129671 0.1967423,-0.3219419 0.1967423,-0.5723411 V -15.097732 c 0,-0.250399 -0.067071,-0.433727 -0.1967423,-0.554455 -0.1207282,-0.129671 -0.3398275,-0.196742 -0.6617694,-0.196742 H 0.74940793 v -0.554456 H 1.590034 c 0.3800703,0 0.7064836,-0.05813 0.9837113,-0.178856 0.2861706,-0.129671 0.5186842,-0.321942 0.6975408,-0.572342 H 3.4680283 V -5.2606182 L 7.4028737,-9.4637485 C 7.5325447,-9.7141477 7.5817303,-9.9153614 7.5459589,-10.071861 7.5101876,-10.237303 7.3671023,-10.32226 7.1167031,-10.32226 H 6.5622476 v -0.554456 h 3.9348454 v 0.554456 h -0.465027 c -0.1922711,0 -0.4292561,0.04918 -0.7154267,0.143085 -0.2772277,0.09837 -0.5365698,0.268285 -0.786969,0.5186843 z M 9.1914397,-10.32226 Z m -1.0373683,0 z m 0.4650272,9.38997162 z m 1.6991374,0 z m 0,0"
       style="fill:#000000;fill-opacity:1;fill-rule:nonzero;stroke:none"
       aria-label="k"
       transform="matrix(0.87360486,0,0,0.87360486,422.86094,115.95898)"
       clip-path="url(#clipPath74)" />
    <g
       id="g74" />
    <path
       id="path75"
       d="m 6.8503298,-16.689555 v 14.2548711 c 0,0.5007985 0.1520281,0.8763974 0.4650272,1.1267966 0.3085276,0.2503993 0.7422549,0.37559892 1.3056532,0.37559892 h 0.94794 v 0.55445547 h -6.850208 v -0.55445547 h 0.8406261 c 0.6304695,0 1.0820824,-0.12519962 1.3593102,-0.37559892 0.2861706,-0.2503992 0.4292558,-0.6259981 0.4292558,-1.1267966 V -13.792078 c 0,-0.2504 -0.080485,-0.451613 -0.2325136,-0.608113 -0.1564995,-0.152028 -0.3934845,-0.232513 -0.7154264,-0.232513 H 2.7187422 v -0.554456 h 0.8406261 c 0.7511977,0 1.3593102,-0.125199 1.8243374,-0.375599 0.47397,-0.250399 0.840626,-0.625998 1.0910253,-1.126796 z m 0,0"
       style="fill:#000000;fill-opacity:1;fill-rule:nonzero;stroke:none"
       aria-label="1"
       transform="matrix(0.87360486,0,0,0.87360486,352.97255,115.95898)"
       clip-path="url(#clipPath76)" />
    <g
       id="g76" />
    <path
       id="path77"
       d="m 2.5392539,-10.694668 c -0.3845417,0 -0.6975408,-0.125199 -0.94794,-0.375598 -0.2503993,-0.2504 -0.3755989,-0.715427 -0.3755989,-1.395082 0,-1.131268 0.4650272,-2.150751 1.3950815,-3.058448 0.9389972,-0.903226 2.1015651,-1.35931 3.4877038,-1.35931 1.3682531,0 2.4905783,0.41137 3.3625042,1.23411 0.8808685,0.813798 1.3235385,1.873523 1.3235385,3.183648 0,0.679655 -0.125199,1.319068 -0.375598,1.913766 -0.2504,0.5991694 -0.813798,1.144682 -1.6812526,1.6454805 -0.9434686,0.5633983 -1.6186522,1.0150113 -2.0210796,1.3593102 -0.4068988,0.3487704 -0.6081125,0.8585117 -0.6081125,1.5381668 v 1.6991378 H 5.3473026 v -1.8779944 c 0,-0.6885979 0.1073139,-1.238582 0.3219419,-1.6454807 0.2235707,-0.4024274 0.6170553,-0.7914405 1.1804536,-1.162568 0.9300543,-0.6304695 1.529224,-1.1983392 1.8064517,-1.6991382 0.2861706,-0.500798 0.4292558,-1.117853 0.4292558,-1.860108 0,-1.189397 -0.2682849,-2.065794 -0.8048547,-2.629192 -0.527627,-0.558927 -1.3190674,-0.840626 -2.3787928,-0.840626 -1.1223252,0 -1.9987226,0.299584 -2.6291921,0.894283 -0.6215267,0.585755 -0.9300544,1.158096 -0.9300544,1.717023 0,0.192271 0.044714,0.335356 0.1430853,0.429256 0.0939,0.09837 0.236985,0.205685 0.4292558,0.321942 0.236985,0.134142 0.4024274,0.295113 0.5007985,0.482913 0.0939,0.178856 0.1430853,0.393484 0.1430853,0.643883 0,0.312999 -0.098371,0.532099 -0.2861705,0.66177 -0.1788566,0.120728 -0.4247845,0.178856 -0.7333121,0.178856 z m 4.5787291,9.2826583 c 0,0.3845417 -0.1251996,0.69754077 -0.3755989,0.94794002 -0.2503992,0.25039925 -0.5633983,0.37559887 -0.9300543,0.37559887 -0.3711275,0 -0.6796551,-0.12519962 -0.9300544,-0.37559887 C 4.6318762,-0.71446893 4.5066765,-1.027468 4.5066765,-1.4120097 c 0,-0.366656 0.1251997,-0.6796551 0.3755989,-0.9300543 0.2503993,-0.2503993 0.5589269,-0.3755989 0.9300544,-0.3755989 0.366656,0 0.6796551,0.1251996 0.9300543,0.3755989 0.2503993,0.2503992 0.3755989,0.5633983 0.3755989,0.9300543 z m 0,0"
       style="fill:#000000;fill-opacity:1;fill-rule:nonzero;stroke:none"
       aria-label="?"
       transform="matrix(0.87360486,0,0,0.87360486,457.80513,81.014789)"
       clip-path="url(#clipPath78)" />
    <g
       id="g78" />
    <path
       id="path79"
       d="m 2.5392539,-10.697859 c -0.3845417,0 -0.6975408,-0.1252 -0.94794,-0.375599 -0.2503993,-0.250399 -0.3755989,-0.715426 -0.3755989,-1.395081 0,-1.131268 0.4650272,-2.150751 1.3950815,-3.058448 0.9389972,-0.903226 2.1015651,-1.359311 3.4877038,-1.359311 1.3682531,0 2.4905783,0.411371 3.3625042,1.234111 0.8808685,0.813798 1.3235385,1.873523 1.3235385,3.183648 0,0.679655 -0.125199,1.319067 -0.375598,1.913765 -0.2504,0.5991699 -0.813798,1.1446825 -1.6812526,1.645481 -0.9434686,0.5633983 -1.6186522,1.0150112 -2.0210796,1.3593102 -0.4068988,0.3487704 -0.6081125,0.8585117 -0.6081125,1.5381668 v 1.6991378 H 5.3473026 v -1.8779944 c 0,-0.6885979 0.1073139,-1.238582 0.3219419,-1.6454808 0.2235707,-0.4024273 0.6170553,-0.7914404 1.1804536,-1.1625679 0.9300543,-0.6304695 1.529224,-1.1983397 1.8064517,-1.6991377 0.2861706,-0.500799 0.4292558,-1.117854 0.4292558,-1.860109 0,-1.189396 -0.2682849,-2.065794 -0.8048547,-2.629192 -0.527627,-0.558927 -1.3190674,-0.840626 -2.3787928,-0.840626 -1.1223252,0 -1.9987226,0.299585 -2.6291921,0.894283 -0.6215267,0.585755 -0.9300544,1.158097 -0.9300544,1.717024 0,0.19227 0.044714,0.335356 0.1430853,0.429255 0.0939,0.09837 0.236985,0.205685 0.4292558,0.321942 0.236985,0.134143 0.4024274,0.295114 0.5007985,0.482913 0.0939,0.178857 0.1430853,0.393485 0.1430853,0.643884 0,0.312999 -0.098371,0.532098 -0.2861705,0.661769 -0.1788566,0.120729 -0.4247845,0.178857 -0.7333121,0.178857 z m 4.5787291,9.2826578 c 0,0.3845417 -0.1251996,0.69754074 -0.3755989,0.94793999 -0.2503992,0.25039925 -0.5633983,0.37559887 -0.9300543,0.37559887 -0.3711275,0 -0.6796551,-0.12519962 -0.9300544,-0.37559887 C 4.6318762,-0.71766046 4.5066765,-1.0306595 4.5066765,-1.4152012 c 0,-0.3666561 0.1251997,-0.6796551 0.3755989,-0.9300544 0.2503993,-0.2503992 0.5589269,-0.3755988 0.9300544,-0.3755988 0.366656,0 0.6796551,0.1251996 0.9300543,0.3755988 0.2503993,0.2503993 0.3755989,0.5633983 0.3755989,0.9300544 z m 0,0"
       style="fill:#000000;fill-opacity:1;fill-rule:nonzero;stroke:none"
       aria-label="?"
       transform="matrix(0.87360486,0,0,0.87360486,457.80513,115.95898)"
       clip-path="url(#clipPath80)" />
    <g
       id="g80" />
    <path
       id="path81"
       d="m 2.5392539,-10.696579 c -0.3845417,0 -0.6975408,-0.1252 -0.94794,-0.375599 -0.2503993,-0.250399 -0.3755989,-0.715426 -0.3755989,-1.395082 0,-1.131268 0.4650272,-2.15075 1.3950815,-3.058448 0.9389972,-0.903225 2.1015651,-1.35931 3.4877038,-1.35931 1.3682531,0 2.4905783,0.41137 3.3625042,1.234111 0.8808685,0.813797 1.3235385,1.873523 1.3235385,3.183647 0,0.679656 -0.125199,1.319068 -0.375598,1.913766 -0.2504,0.5991697 -0.813798,1.1446824 -1.6812526,1.6454809 -0.9434686,0.5633983 -1.6186522,1.0150112 -2.0210796,1.3593102 -0.4068988,0.3487704 -0.6081125,0.8585117 -0.6081125,1.5381668 v 1.6991378 H 5.3473026 v -1.8779944 c 0,-0.6885979 0.1073139,-1.238582 0.3219419,-1.6454808 0.2235707,-0.4024273 0.6170553,-0.7914405 1.1804536,-1.1625679 0.9300543,-0.6304696 1.529224,-1.1983396 1.8064517,-1.6991376 0.2861706,-0.500799 0.4292558,-1.117854 0.4292558,-1.860109 0,-1.189396 -0.2682849,-2.065794 -0.8048547,-2.629192 -0.527627,-0.558927 -1.3190674,-0.840626 -2.3787928,-0.840626 -1.1223252,0 -1.9987226,0.299585 -2.6291921,0.894283 -0.6215267,0.585755 -0.9300544,1.158097 -0.9300544,1.717023 0,0.192271 0.044714,0.335357 0.1430853,0.429256 0.0939,0.09837 0.236985,0.205685 0.4292558,0.321942 0.236985,0.134143 0.4024274,0.295114 0.5007985,0.482913 0.0939,0.178857 0.1430853,0.393485 0.1430853,0.643884 0,0.312999 -0.098371,0.532098 -0.2861705,0.661769 -0.1788566,0.120728 -0.4247845,0.178857 -0.7333121,0.178857 z m 4.5787291,9.2826577 c 0,0.3845417 -0.1251996,0.69754073 -0.3755989,0.94793998 -0.2503992,0.25039925 -0.5633983,0.37559887 -0.9300543,0.37559887 -0.3711275,0 -0.6796551,-0.12519962 -0.9300544,-0.37559887 C 4.6318762,-0.71638057 4.5066765,-1.0293796 4.5066765,-1.4139213 c 0,-0.3666561 0.1251997,-0.6796551 0.3755989,-0.9300544 0.2503993,-0.2503992 0.5589269,-0.3755989 0.9300544,-0.3755989 0.366656,0 0.6796551,0.1251997 0.9300543,0.3755989 0.2503993,0.2503993 0.3755989,0.5633983 0.3755989,0.9300544 z m 0,0"
       style="fill:#000000;fill-opacity:1;fill-rule:nonzero;stroke:none"
       aria-label="?"
       transform="matrix(0.87360486,0,0,0.87360486,457.80513,150.90318)"
       clip-path="url(#clipPath82)" />
    <g
       id="g82" />
    <path
       id="path83"
       d="m 2.5392539,-10.695299 c -0.3845417,0 -0.6975408,-0.1252 -0.94794,-0.375599 -0.2503993,-0.250399 -0.3755989,-0.715427 -0.3755989,-1.395082 0,-1.131268 0.4650272,-2.15075 1.3950815,-3.058448 0.9389972,-0.903226 2.1015651,-1.35931 3.4877038,-1.35931 1.3682531,0 2.4905783,0.41137 3.3625042,1.234111 0.8808685,0.813797 1.3235385,1.873523 1.3235385,3.183647 0,0.679655 -0.125199,1.319068 -0.375598,1.913766 -0.2504,0.5991696 -0.813798,1.1446823 -1.6812526,1.6454808 C 7.7842238,-8.3433349 7.1090402,-7.891722 6.7066128,-7.547423 6.299714,-7.1986526 6.0985003,-6.6889113 6.0985003,-6.0092562 v 1.6991377 H 5.3473026 v -1.8779943 c 0,-0.688598 0.1073139,-1.238582 0.3219419,-1.6454808 0.2235707,-0.4024274 0.6170553,-0.7914405 1.1804536,-1.1625679 0.9300543,-0.6304696 1.529224,-1.1983395 1.8064517,-1.6991375 0.2861706,-0.500799 0.4292558,-1.117854 0.4292558,-1.860109 0,-1.189396 -0.2682849,-2.065794 -0.8048547,-2.629192 -0.527627,-0.558927 -1.3190674,-0.840626 -2.3787928,-0.840626 -1.1223252,0 -1.9987226,0.299585 -2.6291921,0.894283 -0.6215267,0.585755 -0.9300544,1.158096 -0.9300544,1.717023 0,0.192271 0.044714,0.335356 0.1430853,0.429256 0.0939,0.09837 0.236985,0.205685 0.4292558,0.321942 0.236985,0.134143 0.4024274,0.295113 0.5007985,0.482913 0.0939,0.178856 0.1430853,0.393484 0.1430853,0.643884 0,0.312999 -0.098371,0.532098 -0.2861705,0.661769 -0.1788566,0.120728 -0.4247845,0.178857 -0.7333121,0.178857 z m 4.5787291,9.2826576 c 0,0.3845417 -0.1251996,0.69754072 -0.3755989,0.94793997 -0.2503992,0.25039924 -0.5633983,0.37559887 -0.9300543,0.37559887 -0.3711275,0 -0.6796551,-0.12519963 -0.9300544,-0.37559887 C 4.6318762,-0.71510068 4.5066765,-1.0280997 4.5066765,-1.4126414 c 0,-0.3666561 0.1251997,-0.6796551 0.3755989,-0.9300544 0.2503993,-0.2503992 0.5589269,-0.3755989 0.9300544,-0.3755989 0.366656,0 0.6796551,0.1251997 0.9300543,0.3755989 0.2503993,0.2503993 0.3755989,0.5633983 0.3755989,0.9300544 z m 0,0"
       style="fill:#000000;fill-opacity:1;fill-rule:nonzero;stroke:none"
       aria-label="?"
       transform="matrix(0.87360486,0,0,0.87360486,457.80513,185.84737)"
       clip-path="url(#clipPath84)" />
    <g
       id="g84" />
    <path
       id="path85"
       d="m 2.537974,-10.696579 c -0.3845417,0 -0.6975408,-0.1252 -0.94794,-0.375599 -0.2503993,-0.250399 -0.3755989,-0.715426 -0.3755989,-1.395082 0,-1.131268 0.4650272,-2.15075 1.3950815,-3.058448 0.9389972,-0.903225 2.1015651,-1.35931 3.4877038,-1.35931 1.3682531,0 2.4905783,0.41137 3.3625042,1.234111 0.8808684,0.813797 1.3235394,1.873523 1.3235394,3.183647 0,0.679656 -0.1252,1.319068 -0.375599,1.913766 -0.2504,0.5991697 -0.8137979,1.1446824 -1.6812525,1.6454809 -0.9434686,0.5633983 -1.6186522,1.0150112 -2.0210796,1.3593102 -0.4068988,0.3487704 -0.6081125,0.8585117 -0.6081125,1.5381668 v 1.6991378 H 5.3460227 v -1.8779944 c 0,-0.6885979 0.107314,-1.238582 0.3219419,-1.6454808 0.2235707,-0.4024273 0.6170553,-0.7914405 1.1804536,-1.1625679 0.9300543,-0.6304696 1.529224,-1.1983396 1.8064517,-1.6991376 0.2861706,-0.500799 0.4292559,-1.117854 0.4292559,-1.860109 0,-1.189396 -0.268285,-2.065794 -0.8048548,-2.629192 -0.527627,-0.558927 -1.3190674,-0.840626 -2.3787928,-0.840626 -1.1223252,0 -1.9987226,0.299585 -2.6291921,0.894283 -0.6215267,0.585755 -0.9300544,1.158097 -0.9300544,1.717023 0,0.192271 0.044714,0.335357 0.1430853,0.429256 0.0939,0.09837 0.236985,0.205685 0.4292559,0.321942 0.236985,0.134143 0.4024273,0.295114 0.5007985,0.482913 0.0939,0.178857 0.1430852,0.393485 0.1430852,0.643884 0,0.312999 -0.098371,0.532098 -0.2861705,0.661769 -0.1788566,0.120728 -0.4247845,0.178857 -0.7333121,0.178857 z m 4.5787291,9.2826577 c 0,0.3845417 -0.1251996,0.69754073 -0.3755989,0.94793998 -0.2503992,0.25039925 -0.5633983,0.37559887 -0.9300543,0.37559887 -0.3711275,0 -0.6796551,-0.12519962 -0.9300544,-0.37559887 C 4.6305963,-0.71638057 4.5053966,-1.0293796 4.5053966,-1.4139213 c 0,-0.3666561 0.1251997,-0.6796551 0.3755989,-0.9300544 0.2503993,-0.2503992 0.5589269,-0.3755989 0.9300544,-0.3755989 0.366656,0 0.6796551,0.1251997 0.9300543,0.3755989 0.2503993,0.2503993 0.3755989,0.5633983 0.3755989,0.9300544 z m 0,0"
       style="fill:#000000;fill-opacity:1;fill-rule:nonzero;stroke:none"
       aria-label="?"
       transform="matrix(0.87360486,0,0,0.87360486,422.86094,150.90318)"
       clip-path="url(#clipPath86)" />
    <g
       id="g86" />
    <path
       id="path87"
       d="m 2.537974,-10.695299 c -0.3845417,0 -0.6975408,-0.1252 -0.94794,-0.375599 -0.2503993,-0.250399 -0.3755989,-0.715427 -0.3755989,-1.395082 0,-1.131268 0.4650272,-2.15075 1.3950815,-3.058448 0.9389972,-0.903226 2.1015651,-1.35931 3.4877038,-1.35931 1.3682531,0 2.4905783,0.41137 3.3625042,1.234111 0.8808684,0.813797 1.3235394,1.873523 1.3235394,3.183647 0,0.679655 -0.1252,1.319068 -0.375599,1.913766 -0.2504,0.5991696 -0.8137979,1.1446823 -1.6812525,1.6454808 -0.9434686,0.5633983 -1.6186522,1.0150112 -2.0210796,1.3593102 -0.4068988,0.3487704 -0.6081125,0.8585117 -0.6081125,1.5381668 v 1.6991377 H 5.3460227 v -1.8779943 c 0,-0.688598 0.107314,-1.238582 0.3219419,-1.6454808 0.2235707,-0.4024274 0.6170553,-0.7914405 1.1804536,-1.1625679 0.9300543,-0.6304696 1.529224,-1.1983395 1.8064517,-1.6991375 0.2861706,-0.500799 0.4292559,-1.117854 0.4292559,-1.860109 0,-1.189396 -0.268285,-2.065794 -0.8048548,-2.629192 -0.527627,-0.558927 -1.3190674,-0.840626 -2.3787928,-0.840626 -1.1223252,0 -1.9987226,0.299585 -2.6291921,0.894283 -0.6215267,0.585755 -0.9300544,1.158096 -0.9300544,1.717023 0,0.192271 0.044714,0.335356 0.1430853,0.429256 0.0939,0.09837 0.236985,0.205685 0.4292559,0.321942 0.236985,0.134143 0.4024273,0.295113 0.5007985,0.482913 0.0939,0.178856 0.1430852,0.393484 0.1430852,0.643884 0,0.312999 -0.098371,0.532098 -0.2861705,0.661769 -0.1788566,0.120728 -0.4247845,0.178857 -0.7333121,0.178857 z m 4.5787291,9.2826576 c 0,0.3845417 -0.1251996,0.69754072 -0.3755989,0.94793997 -0.2503992,0.25039924 -0.5633983,0.37559887 -0.9300543,0.37559887 -0.3711275,0 -0.6796551,-0.12519963 -0.9300544,-0.37559887 C 4.6305963,-0.71510068 4.5053966,-1.0280997 4.5053966,-1.4126414 c 0,-0.3666561 0.1251997,-0.6796551 0.3755989,-0.9300544 0.2503993,-0.2503992 0.5589269,-0.3755989 0.9300544,-0.3755989 0.366656,0 0.6796551,0.1251997 0.9300543,0.3755989 0.2503993,0.2503993 0.3755989,0.5633983 0.3755989,0.9300544 z m 0,0"
       style="fill:#000000;fill-opacity:1;fill-rule:nonzero;stroke:none"
       aria-label="?"
       transform="matrix(0.87360486,0,0,0.87360486,422.86094,185.84737)"
       clip-path="url(#clipPath88)" />
    <g
       id="g88" />
    <path
       id="path89"
       d="m 2.5411655,-10.696579 c -0.3845417,0 -0.6975408,-0.1252 -0.94794,-0.375599 -0.2503992,-0.250399 -0.3755989,-0.715426 -0.3755989,-1.395082 0,-1.131268 0.4650272,-2.15075 1.3950816,-3.058448 0.9389971,-0.903225 2.1015651,-1.35931 3.4877038,-1.35931 1.368253,0 2.4905782,0.41137 3.3625042,1.234111 0.8808688,0.813797 1.3235388,1.873523 1.3235388,3.183647 0,0.679656 -0.1252,1.319068 -0.375599,1.913766 -0.250399,0.5991697 -0.8137974,1.1446824 -1.6812519,1.6454809 -0.9434686,0.5633983 -1.6186523,1.0150112 -2.0210797,1.3593102 -0.4068988,0.3487704 -0.6081124,0.8585117 -0.6081124,1.5381668 v 1.6991378 H 5.3492142 v -1.8779944 c 0,-0.6885979 0.107314,-1.238582 0.3219419,-1.6454808 0.2235708,-0.4024273 0.6170553,-0.7914405 1.1804536,-1.1625679 0.9300544,-0.6304696 1.529224,-1.1983396 1.8064517,-1.6991376 0.2861706,-0.500799 0.4292559,-1.117854 0.4292559,-1.860109 0,-1.189396 -0.2682849,-2.065794 -0.8048547,-2.629192 -0.527627,-0.558927 -1.3190675,-0.840626 -2.3787929,-0.840626 -1.1223252,0 -1.9987226,0.299585 -2.6291921,0.894283 -0.6215267,0.585755 -0.9300544,1.158097 -0.9300544,1.717023 0,0.192271 0.044714,0.335357 0.1430853,0.429256 0.0939,0.09837 0.236985,0.205685 0.4292559,0.321942 0.236985,0.134143 0.4024273,0.295114 0.5007985,0.482913 0.0939,0.178857 0.1430853,0.393485 0.1430853,0.643884 0,0.312999 -0.098371,0.532098 -0.2861706,0.661769 -0.1788566,0.120728 -0.4247844,0.178857 -0.7333121,0.178857 z m 4.5787291,9.2826577 c 0,0.3845417 -0.1251996,0.69754073 -0.3755989,0.94793998 -0.2503992,0.25039925 -0.5633983,0.37559887 -0.9300543,0.37559887 -0.3711275,0 -0.6796551,-0.12519962 -0.9300544,-0.37559887 C 4.6337878,-0.71638057 4.5085882,-1.0293796 4.5085882,-1.4139213 c 0,-0.3666561 0.1251996,-0.6796551 0.3755988,-0.9300544 0.2503993,-0.2503992 0.5589269,-0.3755989 0.9300544,-0.3755989 0.366656,0 0.6796551,0.1251997 0.9300543,0.3755989 0.2503993,0.2503993 0.3755989,0.5633983 0.3755989,0.9300544 z m 0,0"
       style="fill:#000000;fill-opacity:1;fill-rule:nonzero;stroke:none"
       aria-label="?"
       transform="matrix(0.87360486,0,0,0.87360486,387.91674,150.90318)"
       clip-path="url(#clipPath90)" />
    <g
       id="g90" />
    <path
       id="path91"
       d="m 2.5411655,-10.695299 c -0.3845417,0 -0.6975408,-0.1252 -0.94794,-0.375599 -0.2503992,-0.250399 -0.3755989,-0.715427 -0.3755989,-1.395082 0,-1.131268 0.4650272,-2.15075 1.3950816,-3.058448 0.9389971,-0.903226 2.1015651,-1.35931 3.4877038,-1.35931 1.368253,0 2.4905782,0.41137 3.3625042,1.234111 0.8808688,0.813797 1.3235388,1.873523 1.3235388,3.183647 0,0.679655 -0.1252,1.319068 -0.375599,1.913766 -0.250399,0.5991696 -0.8137974,1.1446823 -1.6812519,1.6454808 C 7.7861355,-8.3433349 7.1109518,-7.891722 6.7085244,-7.547423 6.3016256,-7.1986526 6.100412,-6.6889113 6.100412,-6.0092562 v 1.6991377 H 5.3492142 v -1.8779943 c 0,-0.688598 0.107314,-1.238582 0.3219419,-1.6454808 0.2235708,-0.4024274 0.6170553,-0.7914405 1.1804536,-1.1625679 0.9300544,-0.6304696 1.529224,-1.1983395 1.8064517,-1.6991375 0.2861706,-0.500799 0.4292559,-1.117854 0.4292559,-1.860109 0,-1.189396 -0.2682849,-2.065794 -0.8048547,-2.629192 -0.527627,-0.558927 -1.3190675,-0.840626 -2.3787929,-0.840626 -1.1223252,0 -1.9987226,0.299585 -2.6291921,0.894283 -0.6215267,0.585755 -0.9300544,1.158096 -0.9300544,1.717023 0,0.192271 0.044714,0.335356 0.1430853,0.429256 0.0939,0.09837 0.236985,0.205685 0.4292559,0.321942 0.236985,0.134143 0.4024273,0.295113 0.5007985,0.482913 0.0939,0.178856 0.1430853,0.393484 0.1430853,0.643884 0,0.312999 -0.098371,0.532098 -0.2861706,0.661769 -0.1788566,0.120728 -0.4247844,0.178857 -0.7333121,0.178857 z m 4.5787291,9.2826576 c 0,0.3845417 -0.1251996,0.69754072 -0.3755989,0.94793997 -0.2503992,0.25039924 -0.5633983,0.37559887 -0.9300543,0.37559887 -0.3711275,0 -0.6796551,-0.12519963 -0.9300544,-0.37559887 C 4.6337878,-0.71510068 4.5085882,-1.0280997 4.5085882,-1.4126414 c 0,-0.3666561 0.1251996,-0.6796551 0.3755988,-0.9300544 0.2503993,-0.2503992 0.5589269,-0.3755989 0.9300544,-0.3755989 0.366656,0 0.6796551,0.1251997 0.9300543,0.3755989 0.2503993,0.2503993 0.3755989,0.5633983 0.3755989,0.9300544 z m 0,0"
       style="fill:#000000;fill-opacity:1;fill-rule:nonzero;stroke:none"
       aria-label="?"
       transform="matrix(0.87360486,0,0,0.87360486,387.91674,185.84737)"
       clip-path="url(#clipPath92)" />
    <g
       id="g92" />
    <path
       id="path93"
       d="m 2.5398856,-10.696579 c -0.3845417,0 -0.6975407,-0.1252 -0.94794,-0.375599 -0.2503992,-0.250399 -0.3755989,-0.715426 -0.3755989,-1.395082 0,-1.131268 0.4650272,-2.15075 1.3950816,-3.058448 0.9389971,-0.903225 2.1015651,-1.35931 3.4877038,-1.35931 1.368253,0 2.4905782,0.41137 3.3625042,1.234111 0.8808687,0.813797 1.3235387,1.873523 1.3235387,3.183647 0,0.679656 -0.125199,1.319068 -0.375599,1.913766 -0.250399,0.5991697 -0.8137973,1.1446824 -1.6812518,1.6454809 -0.9434686,0.5633983 -1.6186523,1.0150112 -2.0210797,1.3593102 -0.4068987,0.3487704 -0.6081124,0.8585117 -0.6081124,1.5381668 v 1.6991378 H 5.3479343 v -1.8779944 c 0,-0.6885979 0.107314,-1.238582 0.3219419,-1.6454808 0.2235708,-0.4024273 0.6170553,-0.7914405 1.1804536,-1.1625679 0.9300544,-0.6304696 1.529224,-1.1983396 1.8064517,-1.6991376 0.2861706,-0.500799 0.4292559,-1.117854 0.4292559,-1.860109 0,-1.189396 -0.2682849,-2.065794 -0.8048547,-2.629192 -0.527627,-0.558927 -1.3190675,-0.840626 -2.3787929,-0.840626 -1.1223252,0 -1.9987226,0.299585 -2.6291921,0.894283 -0.6215267,0.585755 -0.9300543,1.158097 -0.9300543,1.717023 0,0.192271 0.044714,0.335357 0.1430852,0.429256 0.0939,0.09837 0.236985,0.205685 0.4292559,0.321942 0.236985,0.134143 0.4024274,0.295114 0.5007985,0.482913 0.0939,0.178857 0.1430853,0.393485 0.1430853,0.643884 0,0.312999 -0.098371,0.532098 -0.2861706,0.661769 -0.1788566,0.120728 -0.4247844,0.178857 -0.7333121,0.178857 z m 4.5787291,9.2826577 c 0,0.3845417 -0.1251996,0.69754073 -0.3755988,0.94793998 -0.2503993,0.25039925 -0.5633983,0.37559887 -0.9300544,0.37559887 -0.3711274,0 -0.6796551,-0.12519962 -0.9300543,-0.37559887 C 4.6325079,-0.71638057 4.5073083,-1.0293796 4.5073083,-1.4139213 c 0,-0.3666561 0.1251996,-0.6796551 0.3755989,-0.9300544 0.2503992,-0.2503992 0.5589269,-0.3755989 0.9300543,-0.3755989 0.3666561,0 0.6796551,0.1251997 0.9300544,0.3755989 0.2503992,0.2503993 0.3755988,0.5633983 0.3755988,0.9300544 z m 0,0"
       style="fill:#000000;fill-opacity:1;fill-rule:nonzero;stroke:none"
       aria-label="?"
       transform="matrix(0.87360486,0,0,0.87360486,352.97255,150.90318)"
       clip-path="url(#clipPath94)" />
    <g
       id="g94" />
    <path
       id="path95"
       d="m 2.5398856,-10.695299 c -0.3845417,0 -0.6975407,-0.1252 -0.94794,-0.375599 -0.2503992,-0.250399 -0.3755989,-0.715427 -0.3755989,-1.395082 0,-1.131268 0.4650272,-2.15075 1.3950816,-3.058448 0.9389971,-0.903226 2.1015651,-1.35931 3.4877038,-1.35931 1.368253,0 2.4905782,0.41137 3.3625042,1.234111 0.8808687,0.813797 1.3235387,1.873523 1.3235387,3.183647 0,0.679655 -0.125199,1.319068 -0.375599,1.913766 -0.250399,0.5991696 -0.8137973,1.1446823 -1.6812518,1.6454808 -0.9434686,0.5633983 -1.6186523,1.0150112 -2.0210797,1.3593102 -0.4068987,0.3487704 -0.6081124,0.8585117 -0.6081124,1.5381668 v 1.6991377 H 5.3479343 v -1.8779943 c 0,-0.688598 0.107314,-1.238582 0.3219419,-1.6454808 0.2235708,-0.4024274 0.6170553,-0.7914405 1.1804536,-1.1625679 0.9300544,-0.6304696 1.529224,-1.1983395 1.8064517,-1.6991375 0.2861706,-0.500799 0.4292559,-1.117854 0.4292559,-1.860109 0,-1.189396 -0.2682849,-2.065794 -0.8048547,-2.629192 -0.527627,-0.558927 -1.3190675,-0.840626 -2.3787929,-0.840626 -1.1223252,0 -1.9987226,0.299585 -2.6291921,0.894283 -0.6215267,0.585755 -0.9300543,1.158096 -0.9300543,1.717023 0,0.192271 0.044714,0.335356 0.1430852,0.429256 0.0939,0.09837 0.236985,0.205685 0.4292559,0.321942 0.236985,0.134143 0.4024274,0.295113 0.5007985,0.482913 0.0939,0.178856 0.1430853,0.393484 0.1430853,0.643884 0,0.312999 -0.098371,0.532098 -0.2861706,0.661769 -0.1788566,0.120728 -0.4247844,0.178857 -0.7333121,0.178857 z m 4.5787291,9.2826576 c 0,0.3845417 -0.1251996,0.69754072 -0.3755988,0.94793997 -0.2503993,0.25039924 -0.5633983,0.37559887 -0.9300544,0.37559887 -0.3711274,0 -0.6796551,-0.12519963 -0.9300543,-0.37559887 C 4.6325079,-0.71510068 4.5073083,-1.0280997 4.5073083,-1.4126414 c 0,-0.3666561 0.1251996,-0.6796551 0.3755989,-0.9300544 0.2503992,-0.2503992 0.5589269,-0.3755989 0.9300543,-0.3755989 0.3666561,0 0.6796551,0.1251997 0.9300544,0.3755989 0.2503992,0.2503993 0.3755988,0.5633983 0.3755988,0.9300544 z m 0,0"
       style="fill:#000000;fill-opacity:1;fill-rule:nonzero;stroke:none"
       aria-label="?"
       transform="matrix(0.87360486,0,0,0.87360486,352.97255,185.84737)"
       clip-path="url(#clipPath96)" />
    <g
       id="g96" />
    <path
       id="path97"
       d="m 5.9042047,-18.10028 2.1641649,1.216225 c -0.6349409,0.321942 -1.3861387,1.480038 -2.2535932,3.469818 h 5.5266686 c 0,-2.870648 -0.0313,-4.963271 -0.08943,-6.277867 l 2.253593,0.94794 -0.751197,0.643884 v 4.686043 h 5.347812 l 1.395082,-1.395081 1.788566,1.967422 h -8.53146 v 5.81284 h 4.221016 l 1.502395,-1.4129672 1.681252,1.9674227 h -7.404663 v 6.76077971 h 6.742894 L 20.9997,-1.2162163 22.877695,0.84063468 H 4.2229526 c -0.8137976,0 -1.5649953,0.0938997 -2.2535932,0.28617062 L 1.1287333,0.28617921 H 11.341445 V -6.4746005 H 7.782199 c -0.8137975,0 -1.5649953,0.098371 -2.2535932,0.2861706 L 4.6879798,-7.029056 h 6.6534652 v -5.81284 H 5.6359198 c -1.4442671,2.682849 -2.7275633,4.5921437 -3.8454171,5.7234117 L 1.5043322,-7.3152265 c 1.0597254,-1.6186523 1.9674226,-3.3982755 2.7186204,-5.3299265 0.7511977,-1.940595 1.3101246,-3.760461 1.6812521,-5.455127 z m 34.3181113,-0.930054 c 1.310125,0.751198 2.182051,1.332481 2.611306,1.734909 0.438199,0.406899 0.612584,0.813797 0.518685,1.216225 -0.08496,0.406899 -0.2504,0.688598 -0.500799,0.840626 -0.250399,0.156499 -0.41137,0.232513 -0.482913,0.232513 -0.241456,0 -0.424784,-0.250399 -0.554455,-0.751197 -0.192271,-0.679655 -0.818269,-1.67231 -1.877995,-2.986906 z m 4.8649,18.65474376 1.126796,-4.02427366 0.375599,0.089428 c -0.250399,1.9316514 -0.375599,3.2149475 -0.375599,3.84541706 0,0.61705529 0.160971,1.20728209 0.482913,1.77068044 0.116257,0.2503992 0.05366,0.3755988 -0.196742,0.3755988 -0.44267,0 -1.260939,-0.2235707 -2.450336,-0.6617694 C 42.869394,0.59023514 41.496669,-0.59468988 39.936145,-2.5397555 38.004494,-0.53656148 35.880572,0.96583401 33.56885,1.967431 L 33.461536,1.5918324 c 2.503993,-1.61865225 4.408816,-3.3356757 5.723412,-5.1510702 -1.251997,-2.3117216 -2.065794,-5.6876401 -2.43245,-10.1232842 h -7.404664 l -0.08943,4.4893011 h 4.310444 l 0.840626,-0.9300541 1.412967,1.305653 -0.858511,0.6617694 c -0.178857,3.7470459 -0.429256,5.9156822 -0.751198,6.5103805 -0.312999,0.5991696 -0.903226,1.08655384 -1.77068,1.46662413 C 32.249783,-1.0597168 31.404685,-1.7796146 29.90229,-2.3430129 v -0.3755989 c 1.189396,0.1922709 2.021079,0.3174705 2.486107,0.3755989 0.465027,0.0626 0.755669,-0.2012137 0.876397,-0.7869691 0.129671,-0.5946982 0.259342,-2.423507 0.393484,-5.4908978 H 29.258406 C 29.066135,-3.4340382 27.747068,0.18780807 25.305675,2.2536019 L 25.126818,1.9674313 c 1.618653,-2.31172163 2.477164,-4.793357 2.575536,-7.4404348 0.0939,-2.6560206 0.143085,-4.6771005 0.143085,-6.0632385 0,-1.368253 -0.0313,-2.55765 -0.08943,-3.559247 l 1.681253,0.840626 h 7.225806 c -0.19227,-2.061322 -0.353241,-3.747046 -0.482912,-5.061642 l 2.450335,0.94794 -0.661769,0.733312 c 0,1.001597 0.0626,2.128394 0.196742,3.38039 h 5.15107 l 1.305653,-1.305653 1.877995,1.877994 h -8.334718 c 0.366656,4.1271165 1.023954,7.0290649 1.967423,8.710317 0.500798,-0.7511977 0.992654,-1.7170234 1.484509,-2.897477 0.500799,-1.1893964 1.001597,-2.539764 1.502396,-4.042159 l 1.967423,1.502395 -0.840626,0.4650274 c -1.064197,2.5665922 -2.155223,4.663686 -3.273076,6.2957525 1.310124,1.5649953 2.682849,2.65602057 4.113702,3.27307586 z M 52.219123,-14.165435 v 6.0095824 h 4.864899 v -6.0095824 z m 0,6.5640379 v 6.5640374 h 4.864899 v -6.5640374 z m 6.09901,-5.9916959 c 0,7.3107634 0.02683,12.0907061 0.08943,14.34429938 L 57.084022,1.5024041 V -0.46501854 H 52.219123 V 1.1268053 L 50.91347,1.878003 c 0.05813,-2.9421912 0.08943,-5.8664967 0.08943,-8.7639737 0,-2.9064198 -0.0313,-5.7994253 -0.08943,-8.6745453 l 1.395081,0.840626 h 0.94794 c 0.617055,-2.119451 0.956883,-3.747046 1.019483,-4.882785 l 2.074736,1.126796 c -0.634941,0.312999 -1.480038,1.564996 -2.539763,3.755989 h 3.094219 l 0.930054,-0.930054 1.412967,1.395081 z m 4.596615,-5.902268 2.056851,1.216225 c -0.500799,0.312999 -1.283296,1.591823 -2.343022,3.845417 h 5.061642 l 1.037368,-1.037369 1.395082,1.412967 -0.840626,0.643884 C 69.1479,-6.0900588 68.977987,-1.9495284 68.763359,-0.98370269 68.548731,-0.01787702 68.235732,0.64836383 67.833304,1.0194913 67.426406,1.3995616 66.782522,1.7438605 65.901653,2.0568596 65.588654,1.0552626 64.560229,0.30853628 62.807434,-0.17884797 V -0.6617608 c 1.560524,0.32194189 2.68732,0.48291283 3.38039,0.48291283 0.688598,0 1.113382,-0.52762699 1.269882,-1.59182383 0.152028,-1.0731396 0.290642,-5.1063561 0.41137,-12.1085922 h -5.437241 c -1.122325,1.815395 -2.30725,3.344619 -3.559247,4.5966148 l -0.28617,-0.1788566 c 1.310125,-2.0031942 2.27595,-3.7828172 2.897477,-5.3478122 0.630469,-1.560524 1.108911,-3.121048 1.430853,-4.686043 z m -1.699138,9.175343 c 1.502396,1.1357399 2.378793,1.9674231 2.629192,2.503993 0.250399,0.527627 0.375599,0.9121687 0.375599,1.1625679 0,0.4292559 -0.1252,0.8048547 -0.375599,1.1267966 -0.250399,0.3129991 -0.44267,0.4650272 -0.572341,0.4650272 -0.241456,0 -0.424784,-0.4337273 -0.554455,-1.3056532 -0.2504,-1.2519963 -0.813798,-2.4726926 -1.681253,-3.6665605 z m 19.405942,8.1558617 c 0,0.4426701 0.125199,0.7601406 0.375599,0.94794 0.250399,0.1922709 0.594698,0.28617059 1.037368,0.28617059 h 0.840626 v 0.55445547 h -6.188439 v -0.55445547 h 1.037369 c 0.500798,0 0.858511,-0.0938997 1.073139,-0.28617059 0.214628,-0.1877994 0.321942,-0.5052699 0.321942,-0.94794 v -3.0942193 h -6.277867 v -0.4650271 l 6.850208,-10.8744813 h 0.930055 v 10.7850529 h 2.539764 v 0.5544555 h -2.539764 z m -1.591824,-12.0907067 -5.347813,8.4420319 h 5.437241 v -8.4420319 z m 10.033856,-1.967423 6.760779,6.7607802 6.456727,-6.7607802 0.84062,0.751198 -6.564035,6.7428943 6.760785,6.6713514 -0.84063,0.840626 -6.653467,-6.7607797 -6.760779,6.7607797 -0.751198,-0.7511977 6.76078,-6.7607797 -6.76078,-6.7428943 z m 27.557336,14.0581297 c 0,0.4426701 0.12519,0.7601406 0.37559,0.94794 0.2504,0.1922709 0.5947,0.28617059 1.03737,0.28617059 h 0.84063 v 0.55445547 h -6.18844 v -0.55445547 h 1.03737 c 0.5008,0 0.85851,-0.0938997 1.07314,-0.28617059 0.21463,-0.1877994 0.32194,-0.5052699 0.32194,-0.94794 v -3.0942193 h -6.27787 v -0.4650271 l 6.85021,-10.8744813 h 0.93006 v 10.7850529 h 2.53976 v 0.5544555 h -2.53976 z m -1.59183,-12.0907067 -5.34781,8.4420319 h 5.43724 v -8.4420319 z m 26.25615,-3.38039 v 15.5784107 c 0,1.25199621 0.0268,2.36985 0.0894,3.3625042 l -1.39508,0.7511977 V 0.17886524 H 124.68735 V 1.6812607 l -1.41297,0.5723412 c 0.0715,-1.2519963 0.10731,-2.530821 0.10731,-3.8454171 V -15.757258 c 0,-1.059726 -0.0358,-2.244651 -0.10731,-3.559247 l 1.41297,0.840626 h 15.0955 l 0.66176,-0.930054 1.5024,1.216225 z m -16.59789,-0.268285 v 11.5362515 c 2.93325,-1.2519963 5.21367,-2.6560206 6.85021,-4.2210155 -0.8138,-1.131268 -1.5337,-2.414565 -2.16417,-3.845417 -1.0016,1.564995 -2.06579,2.875119 -3.18365,3.934845 l -0.28617,-0.196742 c 1.0016,-1.310125 1.84223,-2.669435 2.52188,-4.077931 0.6886,-1.404024 1.09997,-2.450336 1.23411,-3.129991 z m 0,17.52794776 h 15.29224 V -17.903538 h -10.14117 l 1.60971,0.840626 -0.57234,0.286171 c -0.37113,0.563398 -0.65283,0.997126 -0.84063,1.305653 h 4.97221 l 0.64389,-0.840626 1.41297,1.305653 -0.7512,0.465028 c -1.0642,1.502395 -2.15522,2.879591 -3.27308,4.131587 1.93165,1.4442673 4.14947,2.2893647 6.65347,2.539764 v 0.3755989 c -0.94347,0.0626 -1.53817,0.4381986 -1.78857,1.1267966 -2.18205,-0.8227404 -4.09134,-1.949537 -5.72341,-3.3803899 -2.18205,1.7527948 -4.68157,3.0360909 -7.49409,3.845417 z m 5.06164,-14.54104176 c 0.88087,1.573938 1.72597,2.799106 2.53976,3.66656 0.86746,-1.001597 1.74386,-2.222293 2.6292,-3.66656 z m 0.57234,7.2258066 c 1.48898,0.312999 2.54424,0.5902268 3.16576,0.840626 0.63047,0.2503993 0.91664,0.6751837 0.85851,1.2698819 -0.0626,0.5991697 -0.18779,0.8942831 -0.37559,0.8942831 -0.19227,0 -0.41137,-0.1520282 -0.66177,-0.4650272 -0.62153,-0.6304695 -1.65443,-1.3816673 -3.09422,-2.2535932 z m -1.78856,3.3803898 c 2.87064,0.3129991 4.76205,0.6081125 5.66975,0.8942831 0.90323,0.2772277 1.38614,0.7601405 1.44874,1.4487385 0.0715,0.6930693 -0.0537,1.03736829 -0.3756,1.03736829 -0.17886,0 -0.49186,-0.18779939 -0.93006,-0.57234119 -0.94346,-0.7511977 -2.87959,-1.5605238 -5.81283,-2.4324498 z m 22.87128,-7.5119774 c 0,1.502395 -0.0626,2.8527629 -0.17885,4.0421593 h 7.86969 l 0.66177,-1.0373683 1.59182,1.2162249 -0.7512,0.6617694 c 0,4.1852446 0.0268,7.05589313 0.0894,8.6208884 l -1.50239,0.6617695 c 0.0581,-1.87352297 0.0894,-5.061642 0.0894,-9.5688284 h -8.04854 c -0.44267,3.8185885 -2.28937,6.85467938 -5.54456,9.1038012 l -0.17885,-0.2861706 c 1.68125,-1.67678065 2.84829,-3.4564039 3.50558,-5.3299268 0.66625,-1.8824658 1.01054,-4.3685726 1.03737,-7.4583206 0.0358,-3.098691 0.0224,-5.490898 -0.0358,-7.17215 l 2.23571,1.019483 -0.84063,0.751198 v 4.221016 h 6.38518 c 0,-3.183648 -0.0358,-5.589269 -0.10731,-7.225807 l 2.16417,1.037368 -0.7512,0.751198 v 5.437241 h 3.93484 l 1.41297,-1.412968 1.68125,1.967423 z m 24.1993,5.4551265 h -4.22101 l -0.84063,3.5592464 c -0.0715,0.3129991 -0.10731,0.5633983 -0.10731,0.7511978 0,0.2503992 0.0447,0.5007985 0.14308,0.7511977 0.0939,0.2503993 0.36219,0.37559889 0.80486,0.37559889 h 0.26828 v 0.55445547 h -3.46982 v -0.55445547 h 0.28617 c 0.2504,0 0.4695,-0.0760141 0.66177,-0.23251359 0.1878,-0.1654424 0.313,-0.4337273 0.3756,-0.8048547 l 3.64868,-14.3443 1.41296,-0.465027 3.55925,14.809327 c 0.12967,0.3711274 0.28617,0.6394123 0.46503,0.8048547 0.1878,0.1564995 0.41137,0.23251359 0.66177,0.23251359 h 0.28617 v 0.55445547 h -4.04216 v -0.55445547 h 0.3756 c 0.38007,0 0.59917,-0.0760141 0.66177,-0.23251359 0.0581,-0.1654424 0.0894,-0.3085276 0.0894,-0.4292559 0,-0.2503992 -0.0313,-0.4694985 -0.0894,-0.6617694 z m -6.38518,5.43724079 z m 0.94794,0 z m 6.65347,0 z m 1.59182,0 z M 173.63593,-14.71989 h -0.10731 l -1.96743,7.7802623 h 3.93485 z m 0,0"
       style="fill:#000000;fill-opacity:1;fill-rule:nonzero;stroke:none"
       aria-label="生成的4×4图片A"
       transform="matrix(0.87360486,0,0,0.87360486,328.27956,219.91796)"
       clip-path="url(#clipPath98)" />
    <g
       id="g98" />
    <path
       id="path99"
       d="m 4.1661123,-11.00063 c -0.6081125,0 -1.1223252,0.47397 -1.5381668,1.4129667 -0.4068988,0.9300543 -0.6081125,2.1775792 -0.6081125,3.7381031 0,1.6454807 0.2012137,2.9287769 0.6081125,3.845417 0.4158416,0.9076973 0.9300543,1.35931019 1.5381668,1.35931019 0.6438838,0 1.1491537,-0.45161289 1.5202811,-1.35931019 0.3666561,-0.9166401 0.5544555,-2.1999363 0.5544555,-3.845417 0,-1.5605239 -0.1743852,-2.8080488 -0.5186842,-3.7381031 C 5.3733944,-10.52666 4.8547102,-11.00063 4.1661123,-11.00063 Z m 0,10.87448115 c -0.9568829,0 -1.7617376,-0.5007985 -2.4145642,-1.50239545 -0.6438838,-1.001597 -0.96582568,-2.4056214 -0.96582568,-4.2210159 0,-1.690195 0.30852768,-3.058448 0.93005438,-4.0958163 0.6304695,-1.0463115 1.4487385,-1.5739385 2.4503355,-1.5739385 0.9524114,0 1.7393805,0.500799 2.3609072,1.502396 0.6304695,1.0015968 0.94794,2.3922069 0.94794,4.1673588 0,1.7796232 -0.3174705,3.1791761 -0.94794,4.2031302 -0.6215267,1.01501123 -1.4084958,1.52028115 -2.3609072,1.52028115 z m 0,0"
       style="fill:#000000;fill-opacity:1;fill-rule:nonzero;stroke:none"
       aria-label="0"
       transform="matrix(0.87360486,0,0,0.87360486,485.52843,224.28599)"
       clip-path="url(#clipPath100)" />
  </g>
</svg>
