<?xml version="1.0" encoding="UTF-8" standalone="no"?>
<!-- Created with Inkscape (http://www.inkscape.org/) -->

<svg
   version="1.1"
   id="svg1"
   width="452.16"
   height="230.75999"
   viewBox="0 0 452.16 230.75999"
   xmlns="http://www.w3.org/2000/svg"
   xmlns:svg="http://www.w3.org/2000/svg">
  <defs
     id="defs1" />
  <g
     id="g1">
    <path
       id="path1"
       d="m -36.01965,102.04848 h 15.34569 V 124.726 h -15.34569 z"
       style="fill:none;stroke:#000000;stroke-width:0.3985;stroke-linecap:butt;stroke-linejoin:miter;stroke-miterlimit:10;stroke-dasharray:none;stroke-opacity:1"
       transform="matrix(1.3333333,0,0,-1.3333333,84.052,200.088)" />
    <path
       id="path2"
       d="m 7.1118359,-6.1179844 c -0.4804687,0.082031 -0.6679687,0.4453125 -0.6679687,0.7265625 0,0.3632813 0.2929687,0.4804688 0.5039062,0.4804688 0.4453125,0 0.7617188,-0.3867188 0.7617188,-0.7851563 0,-0.6328125 -0.7265625,-0.9140625 -1.3476563,-0.9140625 -0.9140625,0 -1.4296875,0.890625 -1.5585937,1.1835938 -0.3515625,-1.125 -1.2773438,-1.1835938 -1.546875,-1.1835938 -1.5351563,0 -2.34375001,1.9570313 -2.34375001,2.2851563 0,0.058594 0.0585938,0.140625 0.16406251,0.140625 0.1171875,0 0.1523437,-0.09375 0.1875,-0.1523438 0.5039062,-1.6640625 1.5117187,-1.9804687 1.9453125,-1.9804687 0.6796875,0 0.8085937,0.6328125 0.8085937,0.9960937 0,0.328125 -0.09375,0.6679688 -0.2695312,1.3945313 l -0.515625,2.0507812 c -0.2226563,0.90234377 -0.65625,1.72265627 -1.453125,1.72265627 -0.070312,0 -0.4453125,0 -0.7617188,-0.1875 0.5390625,-0.10546875 0.65625,-0.5625 0.65625,-0.73828127 0,-0.3046875 -0.2226562,-0.4804687 -0.5039062,-0.4804687 -0.36328126,0 -0.75000001,0.3164062 -0.75000001,0.79687497 0,0.62109375 0.70312501,0.9140625 1.34765621,0.9140625 0.7148438,0 1.2304688,-0.57421875 1.546875,-1.18359377 0.234375,0.87890627 0.984375,1.18359377 1.546875,1.18359377 1.5234375,0 2.3320313,-1.96874997 2.3320313,-2.29687497 0,-0.070312 -0.058594,-0.140625 -0.140625,-0.140625 -0.140625,0 -0.1523438,0.082031 -0.1992188,0.1992187 -0.4101562,1.32421877 -1.2773437,1.93359377 -1.9453125,1.93359377 -0.5273437,0 -0.8203125,-0.38671875 -0.8203125,-1.00781247 0,-0.328125 0.070312,-0.5625 0.3046875,-1.5585938 l 0.5273438,-2.0390625 c 0.2226562,-0.9023437 0.7382812,-1.5585937 1.4179687,-1.5585937 0.035156,0 0.4570313,0 0.7734375,0.1992187 z m 0,0"
       style="fill:#000000;fill-opacity:1;fill-rule:nonzero;stroke:none"
       aria-label="x"
       transform="matrix(1.3333333,0,0,1.3333333,40.693333,53.212)" />
    <path
       id="path3"
       d="M -52.87819,17.00804 H -3.81543 V 39.68556 H -52.87819 Z"
       style="fill:none;stroke:#000000;stroke-width:0.3985;stroke-linecap:butt;stroke-linejoin:miter;stroke-miterlimit:10;stroke-dasharray:none;stroke-opacity:1"
       transform="matrix(1.3333333,0,0,-1.3333333,84.052,200.088)" />
    <g
       id="g3"
       aria-label="g(x,k)"
       transform="matrix(1.3333333,0,0,1.3333333,18.214667,167.292)">
      <path
         id="path4"
         d="m 5.0743516,-1.9094297 c -0.058594,0.2460938 -0.09375,0.3046875 -0.2929688,0.5273438 -0.609375,0.79687496 -1.2421875,1.07812496 -1.7109375,1.07812496 -0.4921875,0 -0.9609375,-0.38671875 -0.9609375,-1.41796876 0,-0.796875 0.4570313,-2.4726562 0.7851563,-3.1523437 0.4335937,-0.84375 1.1132812,-1.4414063 1.7460937,-1.4414063 0.984375,0 1.1835938,1.2304688 1.1835938,1.3242188 l -0.046875,0.2109375 z m 0.9257812,-3.7148437 c -0.1992187,-0.4335938 -0.609375,-0.984375 -1.359375,-0.984375 -1.640625,0 -3.5039062,2.0507812 -3.5039062,4.2890625 0,1.55859371 0.9492187,2.3203124625 1.9101562,2.3203124625 0.796875,0 1.5,-0.6328125025 1.7695313,-0.9257812525 L 4.4884141,0.42260156 C 4.2774766,1.2429141 4.1837266,1.6179141 3.6446641,2.1452578 3.0352891,2.7663516 2.4610703,2.7663516 2.1329453,2.7663516 c -0.4570312,0 -0.8320312,-0.035156 -1.20703124,-0.1523438 0.48046874,-0.140625 0.60937504,-0.5625 0.60937504,-0.7265625 0,-0.234375 -0.1875,-0.4804687 -0.515625,-0.4804687 -0.36328129,0 -0.75000004,0.3046875 -0.75000004,0.796875 0,0.6210937 0.62109375,0.8554687 1.88671874,0.8554687 1.9335938,0 2.9414063,-1.2421875 3.140625,-2.0507812 l 1.6640625,-6.7265625 c 0.046875,-0.1757813 0.046875,-0.2109375 0.046875,-0.234375 0,-0.2109375 -0.1640625,-0.375 -0.3984375,-0.375 -0.3515625,0 -0.5625,0.2929687 -0.609375,0.703125 z m 0,0"
         style="fill:#000000;fill-opacity:1;fill-rule:nonzero;stroke:none" />
      <path
         id="path5"
         d="m 12.448375,3.6452578 c 0,-0.046875 0,-0.070312 -0.257812,-0.328125 -1.5,-1.5117187 -2.3320317,-3.99609374 -2.3320317,-7.0546875 0,-2.90625 0.7031247,-5.4140625 2.4374997,-7.1835933 0.152344,-0.128907 0.152344,-0.164063 0.152344,-0.210938 0,-0.08203 -0.07031,-0.117187 -0.140625,-0.117187 -0.1875,0 -1.417969,1.078125 -2.15625,2.5546871 -0.7617187,1.5117187 -1.1132812,3.1171875 -1.1132812,4.9570312 0,1.3359375 0.2109375,3.12890626 0.9960942,4.72265626 0.878906,1.80468754 2.109375,2.77734374 2.273437,2.77734374 0.07031,0 0.140625,-0.023437 0.140625,-0.1171875 z m 0,0"
         style="fill:#000000;fill-opacity:1;fill-rule:nonzero;stroke:none" />
      <path
         id="path6"
         d="m 20.399547,-6.1164609 c -0.480469,0.082031 -0.667969,0.4453125 -0.667969,0.7265625 0,0.3632812 0.292969,0.4804687 0.503906,0.4804687 0.445313,0 0.761719,-0.3867187 0.761719,-0.7851562 0,-0.6328125 -0.726562,-0.9140625 -1.347656,-0.9140625 -0.914063,0 -1.429688,0.890625 -1.558594,1.1835937 -0.351562,-1.125 -1.277344,-1.1835937 -1.546875,-1.1835937 -1.535156,0 -2.34375,1.9570312 -2.34375,2.2851562 0,0.058594 0.05859,0.140625 0.164063,0.140625 0.117187,0 0.152343,-0.09375 0.1875,-0.1523437 0.503906,-1.6640625 1.511718,-1.9804688 1.945312,-1.9804688 0.679688,0 0.808594,0.6328125 0.808594,0.9960938 0,0.328125 -0.09375,0.6679687 -0.269531,1.3945312 l -0.515625,2.0507813 c -0.222657,0.90234371 -0.65625,1.72265621 -1.453125,1.72265621 -0.07031,0 -0.445313,0 -0.761719,-0.1875 0.539062,-0.10546875 0.65625,-0.5625 0.65625,-0.73828121 0,-0.3046875 -0.222656,-0.4804688 -0.503906,-0.4804688 -0.363282,0 -0.75,0.3164063 -0.75,0.79687501 0,0.62109375 0.703125,0.9140625 1.347656,0.9140625 0.714844,0 1.230469,-0.57421875 1.546875,-1.18359371 0.234375,0.87890621 0.984375,1.18359371 1.546875,1.18359371 1.523437,0 2.332031,-1.96875001 2.332031,-2.29687501 0,-0.070312 -0.05859,-0.140625 -0.140625,-0.140625 -0.140625,0 -0.152344,0.082031 -0.199219,0.1992188 -0.410156,1.32421871 -1.277343,1.93359371 -1.945312,1.93359371 -0.527344,0 -0.820313,-0.38671875 -0.820313,-1.00781251 0,-0.328125 0.07031,-0.5625 0.304688,-1.5585937 l 0.527344,-2.0390625 c 0.222656,-0.9023438 0.738281,-1.5585938 1.417968,-1.5585938 0.03516,0 0.457032,0 0.773438,0.1992188 z m 4.163086,6.17578121 c 0,-0.8671875 -0.292969,-1.51171871 -0.902344,-1.51171871 -0.480469,0 -0.726562,0.3867187 -0.726562,0.71484371 0,0.328125 0.234375,0.7382812525 0.738281,0.7382812525 0.199219,0 0.363281,-0.0585937525 0.492187,-0.1992187525 0.03516,-0.0234375 0.04687,-0.0234375 0.05859,-0.0234375 0.03516,0 0.03516,0.2109375 0.03516,0.28125 0,0.4921875 -0.09375,1.47656249 -0.960937,2.44921879 -0.164063,0.1757812 -0.164063,0.2109375 -0.164063,0.234375 0,0.082031 0.07031,0.1523437 0.152344,0.1523437 0.117188,0 1.277344,-1.1132812 1.277344,-2.83593749 z m 7.87207,-10.08984331 c 0.01172,-0.05859 0.04687,-0.152344 0.04687,-0.234375 0,-0.140625 -0.152344,-0.140625 -0.1875,-0.140625 -0.01172,0 -0.550781,0.04687 -0.820312,0.07031 -0.257813,0.01172 -0.480469,0.04687 -0.75,0.05859 -0.363282,0.03516 -0.46875,0.04687 -0.46875,0.3164061 0,0.1523437 0.152343,0.1523437 0.304687,0.1523437 0.761719,0 0.761719,0.1289063 0.761719,0.28125 0,0.058594 0,0.09375 -0.07031,0.3632813 l -2.144531,8.57812496 c -0.07031,0.22265625 -0.07031,0.2578125 -0.07031,0.3515625 0,0.328125 0.257812,0.38671875 0.410156,0.38671875 0.421875,0 0.503906,-0.328125 0.632812,-0.796875 l 0.703125,-2.80078121 c 1.078125,0.1171875 1.722657,0.5625 1.722657,1.2890625 0,0.082031 0,0.140625 -0.04687,0.375 -0.05859,0.2226562 -0.05859,0.3984375 -0.05859,0.4804687 0,0.86718751 0.574219,1.45312501 1.335937,1.45312501 0.691407,0 1.054688,-0.6328125 1.171875,-0.84375 0.316407,-0.55078121 0.503907,-1.39453121 0.503907,-1.45312501 0,-0.070312 -0.05859,-0.140625 -0.140625,-0.140625 -0.140625,0 -0.152344,0.070312 -0.210938,0.3046875 -0.210937,0.7851563 -0.527344,1.82812501 -1.289062,1.82812501 -0.304688,0 -0.503907,-0.15234375 -0.503907,-0.71484375 0,-0.29296876 0.05859,-0.62109376 0.128907,-0.84374996 0.05859,-0.2695313 0.05859,-0.28125 0.05859,-0.46875 0,-0.8789063 -0.796875,-1.3710938 -2.179687,-1.5585938 0.539062,-0.328125 1.078125,-0.9140625 1.289062,-1.1367187 0.855469,-0.9609375 1.441407,-1.4414063 2.132813,-1.4414063 0.339844,0 0.433594,0.09375 0.539062,0.1757813 -0.550781,0.070312 -0.761718,0.4570312 -0.761718,0.75 0,0.3632812 0.28125,0.4804687 0.492187,0.4804687 0.410156,0 0.761719,-0.3398437 0.761719,-0.8203125 0,-0.4335937 -0.339844,-0.8789062 -1.019531,-0.8789062 -0.820313,0 -1.5,0.5742187 -2.566407,1.78125 -0.140625,0.1757812 -0.703125,0.75 -1.253906,0.9609375 z m 0,0"
         style="fill:#000000;fill-opacity:1;fill-rule:nonzero;stroke:none" />
      <path
         id="path7"
         d="m 40.582164,-3.7375547 c 0,-1.1367187 -0.152344,-3 -0.996094,-4.734375 -0.878906,-1.8046873 -2.109375,-2.7773433 -2.273437,-2.7773433 -0.05859,0 -0.140625,0.03516 -0.140625,0.117187 0,0.04687 0,0.08203 0.257812,0.328125 1.5,1.5234376 2.34375,3.9960938 2.34375,7.0546876 0,2.90624996 -0.703125,5.4140625 -2.449218,7.1835937 -0.152344,0.140625 -0.152344,0.1640625 -0.152344,0.2109375 0,0.09375 0.08203,0.1171875 0.140625,0.1171875 0.199219,0 1.429687,-1.078125 2.15625,-2.5429687 0.773437,-1.53515629 1.113281,-3.1523438 1.113281,-4.9570313 z m 0,0"
         style="fill:#000000;fill-opacity:1;fill-rule:nonzero;stroke:none" />
    </g>
    <path
       id="path8"
       d="M -28.3468,101.84921 V 46.38255"
       style="fill:none;stroke:#000000;stroke-width:0.3985;stroke-linecap:butt;stroke-linejoin:miter;stroke-miterlimit:10;stroke-dasharray:none;stroke-opacity:1"
       transform="matrix(1.3333333,0,0,-1.3333333,84.052,200.088)" />
    <path
       id="path9"
       d="M 9.14124,0 0.86124,2.0743 3.56464,0 0.86124,-2.0743 Z"
       style="fill:#000000;fill-opacity:1;fill-rule:nonzero;stroke:#000000;stroke-width:0.3985;stroke-linecap:butt;stroke-linejoin:miter;stroke-miterlimit:10;stroke-dasharray:none;stroke-opacity:1"
       transform="matrix(0,1.3333333,1.3333333,0,46.256267,133.62456)" />
    <path
       id="path10"
       d="m 6.5051094,-0.15342969 0.328125,-1.13671871 0.140625,0.058594 c -0.079102,0.50976564 -0.1142578,0.86132814 -0.1054688,1.05468751 0.014649,0.19335938 0.049805,0.38085938 0.1054688,0.5625 0.023437,0.0761719 -0.00586,0.1171875 -0.082031,0.1171875 -0.102539,0 -0.3339844,-0.0908203 -0.6914062,-0.26953125 C 5.8400703,0.05164844 5.5090156,-0.31749219 5.2043281,-0.87999219 4.8996406,-1.4483516 4.7062812,-2.1338984 4.6301094,-2.9307734 H 3.2004219 v 2.48437496 l 1.3476562,-0.70312496 0.058594,0.09375 c -0.7822268,0.54785152 -1.3007815,0.99023434 -1.558594,1.32421871 l -0.3164062,-0.421875 c 0.052734,-0.09375 0.082031,-0.24902344 0.082031,-0.46875 V -3.7276484 c 0,-0.4042969 -0.00879,-0.8730469 -0.023437,-1.40625 l 0.4101563,0.234375 c 0.4833984,-0.076172 0.9873047,-0.2021485 1.5117187,-0.375 0.5302735,-0.178711 0.9316406,-0.375 1.2070313,-0.5859375 l 0.46875,0.5507812 c -0.1582032,0 -0.328125,0.020508 -0.515625,0.058594 -0.1816407,0.041016 -0.4980469,0.1113281 -0.9492188,0.2109375 0,0.5625 0.017578,1.2070312 0.058594,1.9335937 H 6.0715161 L 6.4230786,-3.458117 6.9504224,-2.9307732 H 5.0168281 c 0.076172,0.7441406 0.2636719,1.3535156 0.5625,1.828125 0.3046875,0.47753902 0.6123047,0.79394527 0.9257813,0.94921851 z M 4.5129219,-4.9581172 c -0.2519532,0.041016 -0.6884766,0.1171875 -1.3125,0.234375 v 1.6171875 h 1.40625 c -0.041016,-0.6474609 -0.070312,-1.265625 -0.09375,-1.8515625 z m -0.609375,4.48828126 c 0.3896484,0.17285156 0.6445312,0.31347656 0.7617187,0.421875 0.1171875,0.10839844 0.1757813,0.22265625 0.1757813,0.33984375 0,0.0615234 -0.029297,0.14355469 -0.082031,0.24609375 -0.046875,0.10839844 -0.09082,0.1640625 -0.1289062,0.1640625 -0.041016,0 -0.087891,-0.0673828 -0.140625,-0.19921875 -0.1025391,-0.234375 -0.3164063,-0.53027344 -0.6445313,-0.890625 z m -1.96875,-3.63281246 -0.1757813,0.140625 v 3.39843746 c 0,0.29882813 0.011719,0.65039063 0.035156,1.06640625 L 1.3488594,0.70203906 c 0.023437,-0.74121094 0.035156,-1.22167969 0.035156,-1.44140625 V -3.8096797 C 1.108625,-3.3790156 0.76585156,-2.9483516 0.35276562,-2.5206172 l -0.0820313,-0.09375 c 0.48339844,-0.703125 0.87011718,-1.40625 1.16015618,-2.109375 0.2958985,-0.703125 0.4746094,-1.1777344 0.5390625,-1.4296875 l 0.5859376,0.4101563 C 2.3976874,-5.6641724 2.2512031,-5.4971797 2.1105781,-5.2393672 1.9758124,-4.9874141 1.820539,-4.6680781 1.641828,-4.2784297 Z m 7.03125,4.80468746 c 0.023437,-0.5859375 0.035156,-2.03027346 0.035156,-4.33593746 -0.4160156,0.6796875 -0.7851562,1.1953125 -1.1132812,1.546875 l -0.09375,-0.058594 c 0.375,-0.5859375 0.7089843,-1.21875 1.0078125,-1.8984375 0.3046875,-0.6855469 0.5332031,-1.3828125 0.6914062,-2.0859375 l 0.6796876,0.3515625 -0.2695313,0.1523438 c -0.3134766,0.703125 -0.5361328,1.2128906 -0.6679688,1.5234375 l 0.375,0.2578125 -0.234375,0.1757812 c 0,2.34375 0.011719,3.72070314 0.035156,4.13671876 z m 2.4023441,-6.71484376 0.09375,-0.058594 c 0.5625,0.430664 0.846679,0.7441406 0.855468,0.9375 0.01465,0.196289 -0.0293,0.3339843 -0.128906,0.4101562 -0.09375,0.079102 -0.152344,0.1171875 -0.175781,0.1171875 -0.09375,0 -0.152344,-0.1054687 -0.175781,-0.3164062 -0.05566,-0.2958985 -0.210938,-0.6591797 -0.46875,-1.0898435 z m -1.4882816,1.640625 h 3.5390626 l 0.410156,-0.4101562 0.585938,0.5859375 h -3.597657 c -0.234375,0 -0.46289,0.032226 -0.679687,0.09375 z m 0.6679686,0.8554688 0.09375,-0.058594 c 0.483399,0.7822266 0.764649,1.3066406 0.84375,1.5703125 0.07617,0.2578125 0.117188,0.4570313 0.117188,0.5976563 0,0.196289 -0.05566,0.3515625 -0.164063,0.46874996 -0.102539,0.1171875 -0.172851,0.17578125 -0.210937,0.17578125 -0.06445,0 -0.09375,-0.0703125 -0.09375,-0.2109375 -0.01758,-0.23437501 -0.06445,-0.56542971 -0.140625,-0.99609371 -0.0791,-0.4277344 -0.228516,-0.9433594 -0.445313,-1.5468748 z m 2.496094,-0.3867188 0.703125,0.3867188 c -0.181641,0.09375 -0.357422,0.4335937 -0.527344,1.0195312 -0.181641,0.5859375 -0.454101,1.4296875 -0.820312,2.53125001 h 1.3125 l 0.410156,-0.421875 0.585937,0.59765625 h -4.042968 c -0.251954,0 -0.486329,0.0263672 -0.7031254,0.0820313 L 9.7043281,0.03407031 h 2.4843749 c 0.234375,-0.80273437 0.427734,-1.58203121 0.585938,-2.33203121 0.155273,-0.7558594 0.246093,-1.2919922 0.269531,-1.6054688 z m 0,0"
       style="fill:#000000;fill-opacity:1;fill-rule:nonzero;stroke:none"
       aria-label="低位"
       transform="matrix(1.3333333,0,0,1.3333333,414.20933,25.950667)" />
    <g
       id="g10"
       aria-label="高位"
       transform="matrix(1.3333333,0,0,1.3333333,74.052,25.950667)">
      <path
         id="path11"
         d="m 3.0811172,-6.0948359 0.023437,-0.09375 c 0.3105469,0.1171875 0.5273437,0.2226562 0.6445312,0.3164062 0.1171875,0.087891 0.178711,0.1875 0.1875,0.3046875 0.014649,0.1171875 -0.011719,0.2109375 -0.082031,0.28125 -0.070312,0.064453 -0.1142578,0.09375 -0.1289063,0.09375 -0.064453,0 -0.1230468,-0.076172 -0.1757812,-0.234375 -0.079102,-0.2109375 -0.234375,-0.4335937 -0.4687497,-0.6679687 z M 0.50299219,-5.1338984 H 6.3272109 l 0.3515625,-0.3515625 0.5039063,0.5273437 h -5.71875 c -0.2519531,0 -0.48632814,0.032227 -0.70312501,0.09375 z M 5.0147109,0.03407031 c 0.4833985,0.05273438 0.7851563,0.08496094 0.9023438,0.09375 0.1171875,0.0146484 0.1757812,-0.06152344 0.1757812,-0.22265625 V -2.3799922 H 1.4404922 v 2.84765626 l -0.4101563,0.2109375 c 0.014648,-0.59472656 0.023437,-1.17480469 0.023437,-1.74609376 0,-0.5771484 -0.00879,-1.1601562 -0.023437,-1.7460937 l 0.4101563,0.2578125 h 4.6289062 l 0.2929688,-0.2929688 0.4101562,0.4101563 -0.2695312,0.1757812 v 2.29687501 c 0,0.19335938 -0.032227,0.34277344 -0.09375,0.4453125 -0.055664,0.10839844 -0.1875,0.20214844 -0.3984375,0.28125 C 5.9317031,0.48524219 5.6006484,0.28309375 5.0147109,0.15125781 Z M 1.9912734,-2.8487422 c 0.023437,-0.3105469 0.035156,-0.6123047 0.035156,-0.9023437 0,-0.2958985 -0.011719,-0.5888672 -0.035156,-0.8789063 l 0.46875,0.234375 h 2.4609375 l 0.2695313,-0.2695312 0.375,0.3867187 -0.1992188,0.140625 c 0,0.46875 0.00586,0.8320313 0.023437,1.0898438 l -0.4101562,0.140625 V -3.2237422 H 2.4365859 v 0.1992188 z m 0.4453125,-1.3710937 v 0.8203125 h 2.5429688 v -0.8203125 z m 2.5195313,2.6601562 c 0,0.46875 0.00586,0.89062501 0.023437,1.26562501 L 4.5693984,-0.11827344 V -0.52842969 H 2.8115859 v 0.2578125 l -0.4101562,0.2109375 c 0.023437,-0.33398437 0.035156,-0.66796875 0.035156,-0.99609371 0,-0.3339844 -0.011719,-0.6679688 -0.035156,-0.9960938 l 0.4101562,0.1992188 h 1.6992188 l 0.2695312,-0.2578125 0.375,0.375 z M 2.8115859,-1.6768672 v 0.97265626 H 4.5693984 V -1.6768672 Z m 0,0"
         style="fill:#000000;fill-opacity:1;fill-rule:nonzero;stroke:none" />
      <path
         id="path12"
         d="m 8.9639297,0.70203906 c 0.023437,-0.5859375 0.035156,-2.03027346 0.035156,-4.33593746 -0.4160156,0.6796875 -0.7851562,1.1953125 -1.1132812,1.546875 l -0.09375,-0.058594 c 0.375,-0.5859375 0.7089844,-1.21875 1.0078125,-1.8984375 0.3046875,-0.6855469 0.5332031,-1.3828125 0.6914062,-2.0859375 l 0.6796878,0.3515625 -0.2695315,0.1523438 c -0.3134766,0.703125 -0.5361328,1.2128906 -0.6679688,1.5234375 l 0.375,0.2578125 -0.234375,0.1757812 c 0,2.34375 0.011719,3.72070314 0.035156,4.13671876 z m 2.4023433,-6.71484376 0.09375,-0.058594 c 0.5625,0.430664 0.84668,0.7441406 0.855469,0.9375 0.01465,0.196289 -0.0293,0.3339843 -0.128906,0.4101562 -0.09375,0.079102 -0.152344,0.1171875 -0.175781,0.1171875 -0.09375,0 -0.152344,-0.1054687 -0.175782,-0.3164062 -0.05566,-0.2958985 -0.210937,-0.6591797 -0.46875,-1.0898435 z m -1.4882808,1.640625 h 3.5390628 l 0.410156,-0.4101562 0.585937,0.5859375 h -3.597656 c -0.234375,0 -0.46289,0.032226 -0.679687,0.09375 z m 0.6679688,0.8554688 0.09375,-0.058594 c 0.483398,0.7822266 0.764648,1.3066406 0.84375,1.5703125 0.07617,0.2578125 0.117187,0.4570313 0.117187,0.5976563 0,0.196289 -0.05566,0.3515625 -0.164062,0.46874996 -0.102539,0.1171875 -0.172852,0.17578125 -0.210938,0.17578125 -0.06445,0 -0.09375,-0.0703125 -0.09375,-0.2109375 -0.01758,-0.23437501 -0.06445,-0.56542971 -0.140625,-0.99609371 -0.0791,-0.4277344 -0.228515,-0.9433594 -0.445312,-1.5468748 z m 2.496094,-0.3867188 0.703125,0.3867188 c -0.181641,0.09375 -0.357422,0.4335937 -0.527344,1.0195312 -0.181641,0.5859375 -0.454102,1.4296875 -0.820313,2.53125001 h 1.3125 l 0.410157,-0.421875 0.585937,0.59765625 h -4.042969 c -0.251953,0 -0.486328,0.0263672 -0.7031246,0.0820313 L 9.7022109,0.03407031 h 2.4843751 c 0.234375,-0.80273437 0.427734,-1.58203121 0.585937,-2.33203121 0.155274,-0.7558594 0.246094,-1.2919922 0.269532,-1.6054688 z m 0,0"
         style="fill:#000000;fill-opacity:1;fill-rule:nonzero;stroke:none" />
    </g>
    <path
       id="path13"
       d="M 243.92227,133.2299 H 17.69673"
       style="fill:none;stroke:#000000;stroke-width:0.3985;stroke-linecap:butt;stroke-linejoin:miter;stroke-miterlimit:10;stroke-dasharray:none;stroke-opacity:1"
       transform="matrix(1.3333333,0,0,-1.3333333,84.052,200.088)" />
    <path
       id="path14"
       d="M 9.14124,0 0.86124,2.0743 3.56464,0 0.86124,-2.0743 Z"
       style="fill:#000000;fill-opacity:1;fill-rule:nonzero;stroke:#000000;stroke-width:0.3985;stroke-linecap:butt;stroke-linejoin:miter;stroke-miterlimit:10;stroke-dasharray:none;stroke-opacity:1"
       transform="matrix(-1.3333333,0,0,1.3333333,112.26769,22.448133)" />
    <path
       id="path15"
       d="m 0,99.21382 v 28.3468 h 28.3468 v -28.3468 z"
       style="fill:#ff0000;fill-opacity:1;fill-rule:nonzero;stroke:#000000;stroke-width:0.3985;stroke-linecap:butt;stroke-linejoin:miter;stroke-miterlimit:10;stroke-dasharray:none;stroke-opacity:1"
       transform="matrix(1.3333333,0,0,-1.3333333,84.052,200.088)" />
    <path
       id="path16"
       d="m 28.3468,99.21382 v 28.3468 h 28.34682 v -28.3468 z"
       style="fill:#ff0000;fill-opacity:1;fill-rule:nonzero;stroke:#000000;stroke-width:0.3985;stroke-linecap:butt;stroke-linejoin:miter;stroke-miterlimit:10;stroke-dasharray:none;stroke-opacity:1"
       transform="matrix(1.3333333,0,0,-1.3333333,84.052,200.088)" />
    <path
       id="path17"
       d="m 56.69362,99.21382 v 28.3468 h 28.3468 v -28.3468 z"
       style="fill:#ff0000;fill-opacity:1;fill-rule:nonzero;stroke:#000000;stroke-width:0.3985;stroke-linecap:butt;stroke-linejoin:miter;stroke-miterlimit:10;stroke-dasharray:none;stroke-opacity:1"
       transform="matrix(1.3333333,0,0,-1.3333333,84.052,200.088)" />
    <path
       id="path18"
       d="M 85.04042,99.21382 C 84.14381,97.4205 82.05159,96.22499 79.06276,96.22499 H 48.49788 c -2.98883,0 -5.08106,-1.19551 -5.97766,-2.98883 -0.89662,1.79332 -2.98883,2.98883 -5.97766,2.98883 H 5.97766 C 2.98883,96.22499 0.8966,97.4205 0,99.21382"
       style="fill:none;stroke:#000000;stroke-width:0.3985;stroke-linecap:butt;stroke-linejoin:miter;stroke-miterlimit:10;stroke-dasharray:none;stroke-opacity:1"
       transform="matrix(1.3333333,0,0,-1.3333333,84.052,200.088)" />
    <path
       id="path19"
       d="M 35.43352,72.19794 H 49.60689 V 92.04062 H 35.43352 Z"
       style="fill:none;stroke:#000000;stroke-width:0.3985;stroke-linecap:butt;stroke-linejoin:miter;stroke-miterlimit:10;stroke-dasharray:none;stroke-opacity:1"
       transform="matrix(1.3333333,0,0,-1.3333333,84.052,200.088)" />
    <path
       id="path20"
       d="m 3.6089844,-1.4284609 c -0.058594,0.2109375 -0.058594,0.234375 -0.2226563,0.45703121 -0.2695312,0.33984375 -0.796875,0.85546875 -1.359375,0.85546875 -0.4921875,0 -0.7617187,-0.4453125 -0.7617187,-1.16015626 0,-0.65625 0.3632812,-2.0039062 0.5976562,-2.5078125 0.4101563,-0.8320312 0.9726563,-1.265625 1.4414063,-1.265625 0.7851562,0 0.9375,0.984375 0.9375,1.078125 0,0.011719 -0.035156,0.1640625 -0.046875,0.1875 z m 0.7734375,-3.0703125 c -0.140625,-0.3164063 -0.4570313,-0.796875 -1.078125,-0.796875 -1.359375,0 -2.82421877,1.7578125 -2.82421877,3.5273437 0,1.19531251 0.69140627,1.88671876 1.51171877,1.88671876 0.65625,0 1.21875,-0.515625 1.5585937,-0.9140625 0.1171875,0.71484375 0.6796875,0.9140625 1.0429688,0.9140625 0.3632812,0 0.6445312,-0.2109375 0.8671875,-0.64453125 0.1875,-0.41015625 0.3632812,-1.13671871 0.3632812,-1.18359371 0,-0.070312 -0.046875,-0.1171875 -0.1289062,-0.1171875 -0.1054688,0 -0.1171875,0.058594 -0.1640625,0.2460937 -0.1757813,0.70312501 -0.4101563,1.46484376 -0.9023438,1.46484376 -0.3398437,0 -0.3632812,-0.31640625 -0.3632812,-0.55078125 0,-0.28125 0.035156,-0.41015621 0.140625,-0.87890621 0.082031,-0.3046875 0.140625,-0.5625 0.234375,-0.9140625 0.4453125,-1.8046875 0.5507812,-2.2265625 0.5507812,-2.3085938 0,-0.1640625 -0.1289062,-0.2929687 -0.3046875,-0.2929687 -0.3867187,0 -0.4804687,0.421875 -0.5039062,0.5625 z m 0,0"
       style="fill:#000000;fill-opacity:1;fill-rule:nonzero;stroke:none"
       aria-label="a"
       transform="matrix(1.3333333,0,0,1.3333333,136.63333,94.041333)" />
    <path
       id="path21"
       d="m 85.04042,99.21382 v 28.3468 h 28.34682 v -28.3468 z"
       style="fill:#fff200;fill-opacity:1;fill-rule:nonzero;stroke:#000000;stroke-width:0.3985;stroke-linecap:butt;stroke-linejoin:miter;stroke-miterlimit:10;stroke-dasharray:none;stroke-opacity:1"
       transform="matrix(1.3333333,0,0,-1.3333333,84.052,200.088)" />
    <path
       id="path22"
       d="m 113.38724,99.21382 v 28.3468 h 28.3468 v -28.3468 z"
       style="fill:#fff200;fill-opacity:1;fill-rule:nonzero;stroke:#000000;stroke-width:0.3985;stroke-linecap:butt;stroke-linejoin:miter;stroke-miterlimit:10;stroke-dasharray:none;stroke-opacity:1"
       transform="matrix(1.3333333,0,0,-1.3333333,84.052,200.088)" />
    <path
       id="path23"
       d="m 141.73404,99.21382 v 28.3468 h 28.34682 v -28.3468 z"
       style="fill:#fff200;fill-opacity:1;fill-rule:nonzero;stroke:#000000;stroke-width:0.3985;stroke-linecap:butt;stroke-linejoin:miter;stroke-miterlimit:10;stroke-dasharray:none;stroke-opacity:1"
       transform="matrix(1.3333333,0,0,-1.3333333,84.052,200.088)" />
    <path
       id="path24"
       d="m 170.08086,99.21382 c -0.89663,-1.79332 -2.98883,-2.98883 -5.97766,-2.98883 h -30.5649 c -2.98883,0 -5.08104,-1.19551 -5.97766,-2.98883 -0.89661,1.79332 -2.98883,2.98883 -5.97766,2.98883 h -30.5649 c -2.98883,0 -5.08104,1.19551 -5.97766,2.98883"
       style="fill:none;stroke:#000000;stroke-width:0.3985;stroke-linecap:butt;stroke-linejoin:miter;stroke-miterlimit:10;stroke-dasharray:none;stroke-opacity:1"
       transform="matrix(1.3333333,0,0,-1.3333333,84.052,200.088)" />
    <path
       id="path25"
       d="m 120.47395,72.19794 h 14.17337 v 19.84268 h -14.17337 z"
       style="fill:none;stroke:#000000;stroke-width:0.3985;stroke-linecap:butt;stroke-linejoin:miter;stroke-miterlimit:10;stroke-dasharray:none;stroke-opacity:1"
       transform="matrix(1.3333333,0,0,-1.3333333,84.052,200.088)" />
    <path
       id="path26"
       d="m 2.7779297,-8.0270859 c 0.011719,-0.046875 0.035156,-0.1171875 0.035156,-0.1757813 0,-0.1289062 -0.1289062,-0.1289062 -0.1523437,-0.1289062 -0.011719,0 -0.4453125,0.035156 -0.65625,0.058594 -0.1992188,0.011719 -0.3867188,0.046875 -0.5976563,0.058594 -0.2929687,0.023437 -0.375,0.035156 -0.375,0.2460937 0,0.1171875 0.1171875,0.1171875 0.2460938,0.1171875 0.609375,0 0.609375,0.1171875 0.609375,0.234375 0,0.082031 -0.09375,0.4335938 -0.1523438,0.6445313 l -0.28125,1.1484375 c -0.1171875,0.4804687 -0.80859371,3.2109375 -0.85546871,3.421875 -0.0585938,0.3046875 -0.0585938,0.5039062 -0.0585938,0.6679687 0,1.21875001 0.67968751,1.85156251 1.46484381,1.85156251 1.3945312,0 2.8359374,-1.78125001 2.8359374,-3.52734371 0,-1.1015625 -0.6328125,-1.8867188 -1.5234374,-1.8867188 -0.6328125,0 -1.1953125,0.515625 -1.4179688,0.7617188 z m -0.7617188,7.91015621 c -0.3867187,0 -0.8085937,-0.29296875 -0.8085937,-1.23046871 0,-0.3867188 0.035156,-0.6210938 0.2578125,-1.4648438 0.035156,-0.1523437 0.2226562,-0.9140625 0.2695312,-1.078125 0.035156,-0.09375 0.7382813,-1.1601562 1.5585938,-1.1601562 0.5273437,0 0.7617187,0.5273437 0.7617187,1.1484375 0,0.5742187 -0.3398437,1.9335937 -0.6328125,2.5546875 -0.3046875,0.65624996 -0.8554687,1.23046871 -1.40625,1.23046871 z m 0,0"
       style="fill:#000000;fill-opacity:1;fill-rule:nonzero;stroke:none"
       aria-label="b"
       transform="matrix(1.3333333,0,0,1.3333333,250.8,96.152)" />
    <path
       id="path27"
       d="m 170.08086,99.21382 v 28.3468 h 28.3468 v -28.3468 z"
       style="fill:#00ff00;fill-opacity:1;fill-rule:nonzero;stroke:#000000;stroke-width:0.3985;stroke-linecap:butt;stroke-linejoin:miter;stroke-miterlimit:10;stroke-dasharray:none;stroke-opacity:1"
       transform="matrix(1.3333333,0,0,-1.3333333,84.052,200.088)" />
    <path
       id="path28"
       d="m 198.42766,99.21382 v 28.3468 h 28.34682 v -28.3468 z"
       style="fill:#00ff00;fill-opacity:1;fill-rule:nonzero;stroke:#000000;stroke-width:0.3985;stroke-linecap:butt;stroke-linejoin:miter;stroke-miterlimit:10;stroke-dasharray:none;stroke-opacity:1"
       transform="matrix(1.3333333,0,0,-1.3333333,84.052,200.088)" />
    <path
       id="path29"
       d="m 226.77448,99.21382 v 28.3468 h 28.3468 v -28.3468 z"
       style="fill:#00ff00;fill-opacity:1;fill-rule:nonzero;stroke:#000000;stroke-width:0.3985;stroke-linecap:butt;stroke-linejoin:miter;stroke-miterlimit:10;stroke-dasharray:none;stroke-opacity:1"
       transform="matrix(1.3333333,0,0,-1.3333333,84.052,200.088)" />
    <path
       id="path30"
       d="m 255.12128,99.21382 c -0.89661,-1.79332 -2.98883,-2.98883 -5.97766,-2.98883 h -30.56488 c -2.98884,0 -5.08106,-1.19551 -5.97767,-2.98883 -0.8966,1.79332 -2.98883,2.98883 -5.97766,2.98883 h -30.56489 c -2.98883,0 -5.08106,1.19551 -5.97766,2.98883"
       style="fill:none;stroke:#000000;stroke-width:0.3985;stroke-linecap:butt;stroke-linejoin:miter;stroke-miterlimit:10;stroke-dasharray:none;stroke-opacity:1"
       transform="matrix(1.3333333,0,0,-1.3333333,84.052,200.088)" />
    <path
       id="path31"
       d="m 205.51439,72.19794 h 14.17337 v 19.84268 h -14.17337 z"
       style="fill:none;stroke:#000000;stroke-width:0.3985;stroke-linecap:butt;stroke-linejoin:miter;stroke-miterlimit:10;stroke-dasharray:none;stroke-opacity:1"
       transform="matrix(1.3333333,0,0,-1.3333333,84.052,200.088)" />
    <path
       id="path32"
       d="m 4.6868984,-4.5104922 c -0.2226562,0 -0.328125,0 -0.5039062,0.140625 -0.070312,0.058594 -0.1992188,0.2460938 -0.1992188,0.4335938 0,0.2460937 0.1757813,0.3867187 0.4101563,0.3867187 0.28125,0 0.609375,-0.2460937 0.609375,-0.7265625 0,-0.5742187 -0.5507813,-1.0195312 -1.3828125,-1.0195312 -1.5703125,0 -3.14062501,1.7226562 -3.14062501,3.421875 0,1.04296871 0.64453121,1.99218746 1.87500001,1.99218746 1.6289062,0 2.6601562,-1.26562496 2.6601562,-1.42968746 0,-0.070312 -0.070312,-0.1289063 -0.1171875,-0.1289063 -0.035156,0 -0.046875,0.011719 -0.1640625,0.1171875 -0.7617187,1.01953126 -1.8984375,1.20703126 -2.3554687,1.20703126 -0.8320313,0 -1.0898438,-0.7265625 -1.0898438,-1.32421876 0,-0.421875 0.1992188,-1.5820312 0.6328125,-2.4023437 0.3046875,-0.5625 0.9609375,-1.2070313 1.7109375,-1.2070313 0.1640625,0 0.8203125,0.023437 1.0546875,0.5390625 z m 0,0"
       style="fill:#000000;fill-opacity:1;fill-rule:nonzero;stroke:none"
       aria-label="c"
       transform="matrix(1.3333333,0,0,1.3333333,364.14533,94.041333)" />
    <path
       id="path33"
       d="M 0,14.17339 V 42.5202 H 28.3468 V 14.17339 Z"
       style="fill:#ff0000;fill-opacity:1;fill-rule:nonzero;stroke:#000000;stroke-width:0.3985;stroke-linecap:butt;stroke-linejoin:miter;stroke-miterlimit:10;stroke-dasharray:none;stroke-opacity:1"
       transform="matrix(1.3333333,0,0,-1.3333333,84.052,200.088)" />
    <path
       id="path34"
       d="M 28.3468,14.17339 V 42.5202 H 56.69362 V 14.17339 Z"
       style="fill:#ff0000;fill-opacity:1;fill-rule:nonzero;stroke:#000000;stroke-width:0.3985;stroke-linecap:butt;stroke-linejoin:miter;stroke-miterlimit:10;stroke-dasharray:none;stroke-opacity:1"
       transform="matrix(1.3333333,0,0,-1.3333333,84.052,200.088)" />
    <path
       id="path35"
       d="M 56.69362,14.17339 V 42.5202 h 28.3468 V 14.17339 Z"
       style="fill:#ff0000;fill-opacity:1;fill-rule:nonzero;stroke:#000000;stroke-width:0.3985;stroke-linecap:butt;stroke-linejoin:miter;stroke-miterlimit:10;stroke-dasharray:none;stroke-opacity:1"
       transform="matrix(1.3333333,0,0,-1.3333333,84.052,200.088)" />
    <path
       id="path36"
       d="M 85.04042,14.17339 C 84.14381,12.38007 82.05159,11.18456 79.06276,11.18456 H 48.49788 c -2.98883,0 -5.08106,-1.19552 -5.97766,-2.98884 -0.89662,1.79332 -2.98883,2.98884 -5.97766,2.98884 H 5.97766 C 2.98883,11.18456 0.8966,12.38007 0,14.17339"
       style="fill:none;stroke:#000000;stroke-width:0.3985;stroke-linecap:butt;stroke-linejoin:miter;stroke-miterlimit:10;stroke-dasharray:none;stroke-opacity:1"
       transform="matrix(1.3333333,0,0,-1.3333333,84.052,200.088)" />
    <path
       id="path37"
       d="M 35.43352,-12.84247 H 49.60689 V 7.00021 H 35.43352 Z"
       style="fill:none;stroke:#000000;stroke-width:0.3985;stroke-linecap:butt;stroke-linejoin:miter;stroke-miterlimit:10;stroke-dasharray:none;stroke-opacity:1"
       transform="matrix(1.3333333,0,0,-1.3333333,84.052,200.088)" />
    <path
       id="path38"
       d="m 2.7768906,-8.0270469 c 0.011719,-0.046875 0.035156,-0.1171875 0.035156,-0.1757812 0,-0.1289063 -0.1289063,-0.1289063 -0.1523438,-0.1289063 -0.011719,0 -0.4453125,0.035156 -0.65625,0.058594 -0.1992187,0.011719 -0.3867187,0.046875 -0.5976562,0.058594 -0.2929688,0.023437 -0.375,0.035156 -0.375,0.2460938 0,0.1171875 0.1171875,0.1171875 0.2460937,0.1171875 0.609375,0 0.609375,0.1171875 0.609375,0.234375 0,0.082031 -0.09375,0.4335937 -0.1523437,0.6445312 l -0.28125,1.1484375 c -0.1171875,0.4804688 -0.80859378,3.2109375 -0.85546878,3.421875 -0.0585938,0.3046875 -0.0585938,0.5039063 -0.0585938,0.6679688 0,1.21874998 0.67968758,1.85156248 1.46484378,1.85156248 1.3945312,0 2.8359374,-1.78124998 2.8359374,-3.52734378 0,-1.1015625 -0.6328125,-1.8867187 -1.5234374,-1.8867187 -0.6328125,0 -1.1953125,0.515625 -1.4179687,0.7617187 z m -0.7617187,7.91015628 c -0.3867188,0 -0.8085938,-0.29296875 -0.8085938,-1.23046878 0,-0.3867187 0.035156,-0.6210937 0.2578125,-1.4648437 0.035156,-0.1523438 0.2226563,-0.9140625 0.2695313,-1.078125 0.035156,-0.09375 0.7382812,-1.1601563 1.5585937,-1.1601563 0.5273438,0 0.7617188,0.5273438 0.7617188,1.1484375 0,0.5742188 -0.3398438,1.9335938 -0.6328125,2.5546875 -0.3046875,0.65625003 -0.8554688,1.23046878 -1.40625,1.23046878 z m 0,0"
       style="fill:#000000;fill-opacity:1;fill-rule:nonzero;stroke:none"
       aria-label="b"
       transform="matrix(1.3333333,0,0,1.3333333,137.41467,209.53867)" />
    <path
       id="path39"
       d="M 85.04042,14.17339 V 42.5202 h 28.34682 V 14.17339 Z"
       style="fill:#fff200;fill-opacity:1;fill-rule:nonzero;stroke:#000000;stroke-width:0.3985;stroke-linecap:butt;stroke-linejoin:miter;stroke-miterlimit:10;stroke-dasharray:none;stroke-opacity:1"
       transform="matrix(1.3333333,0,0,-1.3333333,84.052,200.088)" />
    <path
       id="path40"
       d="M 113.38724,14.17339 V 42.5202 h 28.3468 V 14.17339 Z"
       style="fill:#fff200;fill-opacity:1;fill-rule:nonzero;stroke:#000000;stroke-width:0.3985;stroke-linecap:butt;stroke-linejoin:miter;stroke-miterlimit:10;stroke-dasharray:none;stroke-opacity:1"
       transform="matrix(1.3333333,0,0,-1.3333333,84.052,200.088)" />
    <path
       id="path41"
       d="M 141.73404,14.17339 V 42.5202 h 28.34682 V 14.17339 Z"
       style="fill:#fff200;fill-opacity:1;fill-rule:nonzero;stroke:#000000;stroke-width:0.3985;stroke-linecap:butt;stroke-linejoin:miter;stroke-miterlimit:10;stroke-dasharray:none;stroke-opacity:1"
       transform="matrix(1.3333333,0,0,-1.3333333,84.052,200.088)" />
    <path
       id="path42"
       d="m 170.08086,14.17339 c -0.89663,-1.79332 -2.98883,-2.98883 -5.97766,-2.98883 h -30.5649 c -2.98883,0 -5.08104,-1.19552 -5.97766,-2.98884 -0.89661,1.79332 -2.98883,2.98884 -5.97766,2.98884 h -30.5649 c -2.98883,0 -5.08104,1.19551 -5.97766,2.98883"
       style="fill:none;stroke:#000000;stroke-width:0.3985;stroke-linecap:butt;stroke-linejoin:miter;stroke-miterlimit:10;stroke-dasharray:none;stroke-opacity:1"
       transform="matrix(1.3333333,0,0,-1.3333333,84.052,200.088)" />
    <path
       id="path43"
       d="m 97.70639,-12.84247 h 59.7085 V 7.00021 h -59.7085 z"
       style="fill:none;stroke:#000000;stroke-width:0.3985;stroke-linecap:butt;stroke-linejoin:miter;stroke-miterlimit:10;stroke-dasharray:none;stroke-opacity:1"
       transform="matrix(1.3333333,0,0,-1.3333333,84.052,200.088)" />
    <g
       id="g43"
       aria-label="c⊕f(b,k)"
       transform="matrix(1.3333333,0,0,1.3333333,218.992,207.98267)">
      <path
         id="path44"
         d="m 4.6876406,-4.5104375 c -0.2226562,0 -0.328125,0 -0.5039062,0.140625 -0.070312,0.058594 -0.1992188,0.2460938 -0.1992188,0.4335938 0,0.2460937 0.1757813,0.3867187 0.4101563,0.3867187 0.28125,0 0.609375,-0.2460937 0.609375,-0.7265625 0,-0.5742187 -0.5507813,-1.0195312 -1.3828125,-1.0195312 -1.5703125,0 -3.14062502,1.7226562 -3.14062502,3.421875 0,1.0429687 0.64453122,1.99218745 1.87500002,1.99218745 1.6289062,0 2.6601562,-1.26562495 2.6601562,-1.42968745 0,-0.070312 -0.070312,-0.1289063 -0.1171875,-0.1289063 -0.035156,0 -0.046875,0.011719 -0.1640625,0.1171875 -0.7617187,1.01953125 -1.8984375,1.20703125 -2.3554687,1.20703125 -0.8320313,0 -1.0898438,-0.7265625 -1.0898438,-1.32421875 0,-0.421875 0.1992188,-1.5820312 0.6328125,-2.4023437 0.3046875,-0.5625 0.9609375,-1.2070313 1.7109375,-1.2070313 0.1640625,0 0.8203125,0.023437 1.0546875,0.5390625 z m 0,0"
         style="fill:#000000;fill-opacity:1;fill-rule:nonzero;stroke:none" />
      <path
         id="path45"
         d="m 16.380023,-2.9987187 c 0,-2.203125 -1.792968,-3.9960938 -3.996093,-3.9960938 -2.226563,0 -4.0078128,1.8164063 -4.0078128,3.9960938 0,2.20312495 1.8046878,3.9960937 3.9960938,3.9960937 2.238281,0 4.007812,-1.81640625 4.007812,-3.9960937 z M 8.6808047,-3.1510625 C 8.7979922,-5.1666875 10.356586,-6.596375 12.231586,-6.690125 v 3.5390625 z M 12.536273,-6.690125 c 1.875,0.09375 3.421875,1.5351563 3.550782,3.5390625 h -3.550782 z m -0.304687,7.3828125 c -1.863281,-0.09375 -3.4335938,-1.5 -3.5507813,-3.5507812 h 3.5507813 z m 3.855469,-3.5507812 c -0.128907,2.0507812 -1.710938,3.4570312 -3.550782,3.5507812 v -3.5507812 z m 0,0"
         style="fill:#000000;fill-opacity:1;fill-rule:nonzero;stroke:none" />
      <path
         id="path46"
         d="m 25.072406,-4.8268437 c 0.234375,0 0.328125,0 0.328125,-0.2226563 0,-0.1171875 -0.09375,-0.1171875 -0.304687,-0.1171875 h -0.972657 c 0.222657,-1.2421875 0.398438,-2.0976562 0.492188,-2.4726562 0.07031,-0.2929688 0.316406,-0.5625 0.632812,-0.5625 0.257813,0 0.503907,0.1054687 0.621094,0.2109375 -0.46875,0.046875 -0.609375,0.3984375 -0.609375,0.5976562 0,0.2460938 0.175781,0.3867188 0.410156,0.3867188 0.234375,0 0.597657,-0.1992188 0.597657,-0.65625 0,-0.5039063 -0.503907,-0.7851563 -1.03125,-0.7851563 -0.515625,0 -1.019532,0.3867188 -1.253907,0.8554688 -0.222656,0.421875 -0.339843,0.8554687 -0.621093,2.4257812 h -0.796875 c -0.234375,0 -0.351563,0 -0.351563,0.2109375 0,0.1289063 0.07031,0.1289063 0.316406,0.1289063 h 0.761719 c -0.210937,1.125 -0.703125,3.8320312 -0.984375,5.1210937 -0.199219,1.0429688 -0.386719,1.9101563 -0.984375,1.9101563 -0.03516,0 -0.386719,0 -0.597656,-0.2226563 0.609375,-0.046875 0.609375,-0.5742187 0.609375,-0.5859375 0,-0.2460937 -0.175781,-0.3867187 -0.410156,-0.3867187 -0.234375,0 -0.597657,0.1992187 -0.597657,0.65625 0,0.515625 0.527344,0.7851562 0.996094,0.7851562 1.230469,0 1.734375,-2.19140625 1.863281,-2.80078125 0.210938,-0.92578125 0.808594,-4.11328125 0.867188,-4.47656245 z m 0,0"
         style="fill:#000000;fill-opacity:1;fill-rule:nonzero;stroke:none" />
      <path
         id="path47"
         d="m 30.697406,2.91925 c 0,-0.035156 0,-0.058594 -0.210937,-0.2695312 C 29.291156,1.4426875 28.623187,-0.53778125 28.623187,-2.987 c 0,-2.3320312 0.5625,-4.3359375 1.957032,-5.7421875 0.117187,-0.1171875 0.117187,-0.140625 0.117187,-0.1757812 0,-0.070312 -0.05859,-0.09375 -0.105469,-0.09375 -0.164062,0 -1.148437,0.8671875 -1.734375,2.0390625 -0.609375,1.21875 -0.890625,2.4960937 -0.890625,3.9726562 0,1.0664063 0.175782,2.49609375 0.796875,3.78515625 C 29.466937,2.2278438 30.451312,3.013 30.591937,3.013 c 0.04687,0 0.105469,-0.023437 0.105469,-0.09375 z m 0,0"
         style="fill:#000000;fill-opacity:1;fill-rule:nonzero;stroke:none" />
      <path
         id="path48"
         d="m 34.139789,-8.0260625 c 0.01172,-0.046875 0.03516,-0.1171875 0.03516,-0.1757812 0,-0.1289063 -0.128906,-0.1289063 -0.152343,-0.1289063 -0.01172,0 -0.445313,0.035156 -0.65625,0.058594 -0.199219,0.011719 -0.386719,0.046875 -0.597657,0.058594 -0.292968,0.023437 -0.375,0.035156 -0.375,0.2460938 0,0.1171875 0.117188,0.1171875 0.246094,0.1171875 0.609375,0 0.609375,0.1171875 0.609375,0.234375 0,0.082031 -0.09375,0.4335937 -0.152344,0.6445312 l -0.28125,1.1484375 c -0.117187,0.4804688 -0.808593,3.2109375 -0.855468,3.421875 -0.05859,0.3046875 -0.05859,0.5039063 -0.05859,0.6679688 0,1.21874995 0.679687,1.85156245 1.464844,1.85156245 1.394531,0 2.835937,-1.78124995 2.835937,-3.52734375 0,-1.1015625 -0.632812,-1.8867187 -1.523437,-1.8867187 -0.632813,0 -1.195313,0.515625 -1.417969,0.7617187 z m -0.761719,7.91015625 c -0.386718,0 -0.808593,-0.29296875 -0.808593,-1.23046875 0,-0.3867187 0.03516,-0.6210937 0.257812,-1.4648437 0.03516,-0.1523438 0.222656,-0.9140625 0.269531,-1.078125 0.03516,-0.09375 0.738282,-1.1601563 1.558594,-1.1601563 0.527344,0 0.761719,0.5273438 0.761719,1.1484375 0,0.5742188 -0.339844,1.9335938 -0.632813,2.5546875 -0.304687,0.65625 -0.855468,1.23046875 -1.40625,1.23046875 z m 5.323242,0.1640625 c 0,-0.69140625 -0.234375,-1.20703125 -0.726562,-1.20703125 -0.386719,0 -0.574219,0.3046875 -0.574219,0.57421875 0,0.2578125 0.175781,0.5859375 0.585938,0.5859375 0.164062,0 0.292968,-0.046875 0.398437,-0.15234375 0.02344,-0.0234375 0.03516,-0.0234375 0.04687,-0.0234375 0.02344,0 0.02344,0.1640625 0.02344,0.22265625 0,0.3984375 -0.07031,1.17187505 -0.761719,1.95703125 -0.140625,0.140625 -0.140625,0.1640625 -0.140625,0.1875 0,0.070312 0.07031,0.1289063 0.128906,0.1289063 0.09375,0 1.019531,-0.890625 1.019531,-2.27343755 z M 45.00307,-8.0260625 c 0.01172,-0.046875 0.03516,-0.1171875 0.03516,-0.1757812 0,-0.1289063 -0.117188,-0.1289063 -0.140625,-0.1289063 -0.01172,0 -0.445313,0.035156 -0.667969,0.058594 -0.199219,0.011719 -0.386719,0.046875 -0.597656,0.058594 -0.292969,0.023437 -0.375,0.035156 -0.375,0.2460938 0,0.1171875 0.128906,0.1171875 0.246093,0.1171875 0.609375,0 0.609375,0.1171875 0.609375,0.234375 0,0.046875 0,0.070312 -0.05859,0.28125 l -1.722657,6.86718745 c -0.04687,0.17578125 -0.04687,0.19921875 -0.04687,0.28125 0,0.2578125 0.210938,0.3046875 0.328125,0.3046875 0.339844,0 0.410157,-0.2578125 0.503907,-0.6328125 l 0.5625,-2.24999995 c 0.867187,0.1054687 1.382812,0.4570312 1.382812,1.0429687 0,0.070312 0,0.1171875 -0.03516,0.2929688 -0.04687,0.1875 -0.04687,0.328125 -0.04687,0.3867187 0,0.69140625 0.457031,1.16015625 1.066406,1.16015625 0.550781,0 0.84375,-0.50390625 0.9375,-0.66796875 0.246094,-0.4453125 0.410156,-1.1132812 0.410156,-1.1601562 0,-0.070312 -0.05859,-0.1171875 -0.128906,-0.1171875 -0.105469,0 -0.117187,0.046875 -0.164062,0.2460937 -0.164063,0.62109375 -0.421875,1.46484375 -1.03125,1.46484375 -0.246094,0 -0.398438,-0.1171875 -0.398438,-0.57421875 0,-0.234375 0.04687,-0.4921875 0.09375,-0.6796875 0.04687,-0.2109375 0.04687,-0.2226562 0.04687,-0.3632812 0,-0.7148438 -0.632812,-1.1132813 -1.734375,-1.2539063 0.433594,-0.2695312 0.867188,-0.7265625 1.03125,-0.9140625 0.679688,-0.7617187 1.148438,-1.1484375 1.699219,-1.1484375 0.28125,0 0.351562,0.070312 0.433594,0.140625 -0.445313,0.046875 -0.609375,0.3632813 -0.609375,0.5976563 0,0.2929687 0.222656,0.3867187 0.398437,0.3867187 0.316406,0 0.609375,-0.2695312 0.609375,-0.65625 0,-0.3515625 -0.28125,-0.7148437 -0.820312,-0.7148437 -0.65625,0 -1.195313,0.46875 -2.050782,1.4296875 -0.117187,0.1523437 -0.5625,0.5976562 -1.007812,0.7734375 z m 0,0"
         style="fill:#000000;fill-opacity:1;fill-rule:nonzero;stroke:none" />
      <path
         id="path49"
         d="m 51.521625,-2.987 c 0,-0.9140625 -0.117188,-2.4023437 -0.796875,-3.796875 -0.703125,-1.4296875 -1.6875,-2.2148437 -1.816406,-2.2148437 -0.05859,0 -0.117188,0.023437 -0.117188,0.09375 0,0.035156 0,0.058594 0.210938,0.2695312 1.195312,1.2070313 1.863281,3.1875 1.863281,5.6367188 0,2.3320312 -0.5625,4.3359375 -1.945313,5.7421875 -0.128906,0.1171875 -0.128906,0.140625 -0.128906,0.1757812 0,0.070312 0.05859,0.09375 0.117188,0.09375 0.152343,0 1.136718,-0.8671875 1.722656,-2.0390625 0.609375,-1.23046875 0.890625,-2.5195312 0.890625,-3.9609375 z m 0,0"
         style="fill:#000000;fill-opacity:1;fill-rule:nonzero;stroke:none" />
    </g>
    <path
       id="path50"
       d="M 170.08086,14.17339 V 42.5202 h 28.3468 V 14.17339 Z"
       style="fill:#00ff00;fill-opacity:1;fill-rule:nonzero;stroke:#000000;stroke-width:0.3985;stroke-linecap:butt;stroke-linejoin:miter;stroke-miterlimit:10;stroke-dasharray:none;stroke-opacity:1"
       transform="matrix(1.3333333,0,0,-1.3333333,84.052,200.088)" />
    <path
       id="path51"
       d="M 198.42766,14.17339 V 42.5202 h 28.34682 V 14.17339 Z"
       style="fill:#00ff00;fill-opacity:1;fill-rule:nonzero;stroke:#000000;stroke-width:0.3985;stroke-linecap:butt;stroke-linejoin:miter;stroke-miterlimit:10;stroke-dasharray:none;stroke-opacity:1"
       transform="matrix(1.3333333,0,0,-1.3333333,84.052,200.088)" />
    <path
       id="path52"
       d="M 226.77448,14.17339 V 42.5202 h 28.3468 V 14.17339 Z"
       style="fill:#00ff00;fill-opacity:1;fill-rule:nonzero;stroke:#000000;stroke-width:0.3985;stroke-linecap:butt;stroke-linejoin:miter;stroke-miterlimit:10;stroke-dasharray:none;stroke-opacity:1"
       transform="matrix(1.3333333,0,0,-1.3333333,84.052,200.088)" />
    <path
       id="path53"
       d="m 255.12128,14.17339 c -0.89661,-1.79332 -2.98883,-2.98883 -5.97766,-2.98883 h -30.56488 c -2.98884,0 -5.08106,-1.19552 -5.97767,-2.98884 -0.8966,1.79332 -2.98883,2.98884 -5.97766,2.98884 h -30.56489 c -2.98883,0 -5.08106,1.19551 -5.97766,2.98883"
       style="fill:none;stroke:#000000;stroke-width:0.3985;stroke-linecap:butt;stroke-linejoin:miter;stroke-miterlimit:10;stroke-dasharray:none;stroke-opacity:1"
       transform="matrix(1.3333333,0,0,-1.3333333,84.052,200.088)" />
    <path
       id="path54"
       d="m 182.16069,-12.84247 h 60.88075 V 7.00021 h -60.88075 z"
       style="fill:none;stroke:#000000;stroke-width:0.3985;stroke-linecap:butt;stroke-linejoin:miter;stroke-miterlimit:10;stroke-dasharray:none;stroke-opacity:1"
       transform="matrix(1.3333333,0,0,-1.3333333,84.052,200.088)" />
    <g
       id="g54"
       aria-label="a⊕f(c,k)"
       transform="matrix(1.3333333,0,0,1.3333333,331.596,207.98267)">
      <path
         id="path55"
         d="m 3.6106172,-1.4284062 c -0.058594,0.2109375 -0.058594,0.234375 -0.2226563,0.4570312 -0.2695312,0.33984375 -0.796875,0.85546875 -1.359375,0.85546875 -0.4921875,0 -0.7617187,-0.4453125 -0.7617187,-1.16015625 0,-0.65625 0.3632812,-2.0039062 0.5976562,-2.5078125 0.4101563,-0.8320312 0.9726563,-1.265625 1.4414063,-1.265625 0.7851562,0 0.9375,0.984375 0.9375,1.078125 0,0.011719 -0.035156,0.1640625 -0.046875,0.1875 z m 0.7734375,-3.0703125 c -0.140625,-0.3164063 -0.4570313,-0.796875 -1.078125,-0.796875 -1.359375,0 -2.82421876,1.7578125 -2.82421876,3.5273437 0,1.1953125 0.69140626,1.88671875 1.51171876,1.88671875 0.65625,0 1.21875,-0.515625 1.5585937,-0.9140625 0.1171875,0.71484375 0.6796875,0.9140625 1.0429688,0.9140625 0.3632812,0 0.6445312,-0.2109375 0.8671875,-0.64453125 0.1875,-0.41015625 0.3632812,-1.1367187 0.3632812,-1.1835937 0,-0.070312 -0.046875,-0.1171875 -0.1289062,-0.1171875 -0.1054688,0 -0.1171875,0.058594 -0.1640625,0.2460937 -0.1757813,0.703125 -0.4101563,1.46484375 -0.9023438,1.46484375 -0.3398437,0 -0.3632812,-0.31640625 -0.3632812,-0.55078125 0,-0.28125 0.035156,-0.4101562 0.140625,-0.8789062 0.082031,-0.3046875 0.140625,-0.5625 0.234375,-0.9140625 0.4453125,-1.8046875 0.5507812,-2.2265625 0.5507812,-2.3085938 0,-0.1640625 -0.1289062,-0.2929687 -0.3046875,-0.2929687 -0.3867187,0 -0.4804687,0.421875 -0.5039062,0.5625 z m 0,0"
         style="fill:#000000;fill-opacity:1;fill-rule:nonzero;stroke:none" />
      <path
         id="path56"
         d="m 17.491477,-2.9987187 c 0,-2.203125 -1.792969,-3.9960938 -3.996094,-3.9960938 -2.226563,0 -4.0078127,1.8164063 -4.0078127,3.9960938 0,2.20312495 1.8046877,3.9960937 3.9960937,3.9960937 2.238281,0 4.007813,-1.81640625 4.007813,-3.9960937 z M 9.7922578,-3.1510625 C 9.9094453,-5.1666875 11.468039,-6.596375 13.343039,-6.690125 v 3.5390625 z M 13.647727,-6.690125 c 1.875,0.09375 3.421875,1.5351563 3.550781,3.5390625 h -3.550781 z m -0.304688,7.3828125 c -1.863281,-0.09375 -3.4335937,-1.5 -3.5507812,-3.5507812 h 3.5507812 z m 3.855469,-3.5507812 c -0.128906,2.0507812 -1.710938,3.4570312 -3.550781,3.5507812 v -3.5507812 z m 0,0"
         style="fill:#000000;fill-opacity:1;fill-rule:nonzero;stroke:none" />
      <path
         id="path57"
         d="m 26.183859,-4.8268437 c 0.234375,0 0.328125,0 0.328125,-0.2226563 0,-0.1171875 -0.09375,-0.1171875 -0.304687,-0.1171875 h -0.972656 c 0.222656,-1.2421875 0.398437,-2.0976562 0.492187,-2.4726562 0.07031,-0.2929688 0.316406,-0.5625 0.632813,-0.5625 0.257812,0 0.503906,0.1054687 0.621093,0.2109375 -0.46875,0.046875 -0.609375,0.3984375 -0.609375,0.5976562 0,0.2460938 0.175782,0.3867188 0.410157,0.3867188 0.234375,0 0.597656,-0.1992188 0.597656,-0.65625 0,-0.5039063 -0.503906,-0.7851563 -1.03125,-0.7851563 -0.515625,0 -1.019531,0.3867188 -1.253906,0.8554688 -0.222657,0.421875 -0.339844,0.8554687 -0.621094,2.4257812 h -0.796875 c -0.234375,0 -0.351563,0 -0.351563,0.2109375 0,0.1289063 0.07031,0.1289063 0.316407,0.1289063 h 0.761718 c -0.210937,1.125 -0.703125,3.8320312 -0.984375,5.1210937 -0.199218,1.0429688 -0.386718,1.9101563 -0.984375,1.9101563 -0.03516,0 -0.386718,0 -0.597656,-0.2226563 0.609375,-0.046875 0.609375,-0.5742187 0.609375,-0.5859375 0,-0.2460937 -0.175781,-0.3867187 -0.410156,-0.3867187 -0.234375,0 -0.597656,0.1992187 -0.597656,0.65625 0,0.515625 0.527343,0.7851562 0.996093,0.7851562 1.230469,0 1.734375,-2.19140625 1.863282,-2.80078125 0.210937,-0.92578125 0.808593,-4.11328125 0.867187,-4.47656245 z m 0,0"
         style="fill:#000000;fill-opacity:1;fill-rule:nonzero;stroke:none" />
      <path
         id="path58"
         d="m 31.80593,2.91925 c 0,-0.035156 0,-0.058594 -0.210938,-0.2695312 C 30.39968,1.4426875 29.731711,-0.53778125 29.731711,-2.987 c 0,-2.3320312 0.5625,-4.3359375 1.957031,-5.7421875 0.117188,-0.1171875 0.117188,-0.140625 0.117188,-0.1757812 0,-0.070312 -0.05859,-0.09375 -0.105469,-0.09375 -0.164063,0 -1.148438,0.8671875 -1.734375,2.0390625 -0.609375,1.21875 -0.890625,2.4960937 -0.890625,3.9726562 0,1.0664063 0.175781,2.49609375 0.796875,3.78515625 C 30.575461,2.2278438 31.559836,3.013 31.700461,3.013 c 0.04687,0 0.105469,-0.023437 0.105469,-0.09375 z m 0,0"
         style="fill:#000000;fill-opacity:1;fill-rule:nonzero;stroke:none" />
      <path
         id="path59"
         d="m 37.161398,-4.5104375 c -0.222656,0 -0.328125,0 -0.503906,0.140625 -0.07031,0.058594 -0.199219,0.2460938 -0.199219,0.4335938 0,0.2460937 0.175782,0.3867187 0.410157,0.3867187 0.28125,0 0.609375,-0.2460937 0.609375,-0.7265625 0,-0.5742187 -0.550782,-1.0195312 -1.382813,-1.0195312 -1.570312,0 -3.140625,1.7226562 -3.140625,3.421875 0,1.0429687 0.644531,1.99218745 1.875,1.99218745 1.628906,0 2.660156,-1.26562495 2.660156,-1.42968745 0,-0.070312 -0.07031,-0.1289063 -0.117187,-0.1289063 -0.03516,0 -0.04687,0.011719 -0.164063,0.1171875 -0.761718,1.01953125 -1.898437,1.20703125 -2.355468,1.20703125 -0.832032,0 -1.089844,-0.7265625 -1.089844,-1.32421875 0,-0.421875 0.199219,-1.5820312 0.632812,-2.4023437 0.304688,-0.5625 0.960938,-1.2070313 1.710938,-1.2070313 0.164062,0 0.820312,0.023437 1.054687,0.5390625 z m 2.712891,4.55859375 c 0,-0.69140625 -0.234375,-1.20703125 -0.726562,-1.20703125 -0.386719,0 -0.574219,0.3046875 -0.574219,0.57421875 0,0.2578125 0.175781,0.5859375 0.585937,0.5859375 0.164063,0 0.292969,-0.046875 0.398438,-0.15234375 0.02344,-0.0234375 0.03516,-0.0234375 0.04687,-0.0234375 0.02344,0 0.02344,0.1640625 0.02344,0.22265625 0,0.3984375 -0.07031,1.17187505 -0.761718,1.95703125 -0.140625,0.140625 -0.140625,0.1640625 -0.140625,0.1875 0,0.070312 0.07031,0.1289063 0.128906,0.1289063 0.09375,0 1.019531,-0.890625 1.019531,-2.27343755 z m 6.298828,-8.07421875 c 0.01172,-0.046875 0.03516,-0.1171875 0.03516,-0.1757812 0,-0.1289063 -0.117187,-0.1289063 -0.140625,-0.1289063 -0.01172,0 -0.445312,0.035156 -0.667968,0.058594 -0.199219,0.011719 -0.386719,0.046875 -0.597657,0.058594 -0.292968,0.023437 -0.375,0.035156 -0.375,0.2460938 0,0.1171875 0.128907,0.1171875 0.246094,0.1171875 0.609375,0 0.609375,0.1171875 0.609375,0.234375 0,0.046875 0,0.070312 -0.05859,0.28125 l -1.722656,6.86718745 c -0.04687,0.17578125 -0.04687,0.19921875 -0.04687,0.28125 0,0.2578125 0.210938,0.3046875 0.328125,0.3046875 0.339844,0 0.410156,-0.2578125 0.503906,-0.6328125 l 0.5625,-2.24999995 c 0.867188,0.1054687 1.382813,0.4570312 1.382813,1.0429687 0,0.070312 0,0.1171875 -0.03516,0.2929688 -0.04687,0.1875 -0.04687,0.328125 -0.04687,0.3867187 0,0.69140625 0.457031,1.16015625 1.066406,1.16015625 0.550781,0 0.84375,-0.50390625 0.9375,-0.66796875 0.246094,-0.4453125 0.410156,-1.1132812 0.410156,-1.1601562 0,-0.070312 -0.05859,-0.1171875 -0.128906,-0.1171875 -0.105469,0 -0.117188,0.046875 -0.164063,0.2460937 -0.164062,0.62109375 -0.421875,1.46484375 -1.03125,1.46484375 -0.246093,0 -0.398437,-0.1171875 -0.398437,-0.57421875 0,-0.234375 0.04687,-0.4921875 0.09375,-0.6796875 0.04687,-0.2109375 0.04687,-0.2226562 0.04687,-0.3632812 0,-0.7148438 -0.632813,-1.1132813 -1.734375,-1.2539063 0.433594,-0.2695312 0.867187,-0.7265625 1.03125,-0.9140625 0.679687,-0.7617187 1.148437,-1.1484375 1.699219,-1.1484375 0.28125,0 0.351562,0.070312 0.433593,0.140625 -0.445312,0.046875 -0.609375,0.3632813 -0.609375,0.5976563 0,0.2929687 0.222657,0.3867187 0.398438,0.3867187 0.316406,0 0.609375,-0.2695312 0.609375,-0.65625 0,-0.3515625 -0.28125,-0.7148437 -0.820313,-0.7148437 -0.65625,0 -1.195312,0.46875 -2.050781,1.4296875 -0.117187,0.1523437 -0.5625,0.5976562 -1.007812,0.7734375 z m 0,0"
         style="fill:#000000;fill-opacity:1;fill-rule:nonzero;stroke:none" />
      <path
         id="path60"
         d="m 52.694602,-2.987 c 0,-0.9140625 -0.117188,-2.4023437 -0.796875,-3.796875 -0.703125,-1.4296875 -1.6875,-2.2148437 -1.816407,-2.2148437 -0.05859,0 -0.117187,0.023437 -0.117187,0.09375 0,0.035156 0,0.058594 0.210937,0.2695312 1.195313,1.2070313 1.863282,3.1875 1.863282,5.6367188 0,2.3320312 -0.5625,4.3359375 -1.945313,5.7421875 -0.128906,0.1171875 -0.128906,0.140625 -0.128906,0.1757812 0,0.070312 0.05859,0.09375 0.117187,0.09375 0.152344,0 1.136719,-0.8671875 1.722657,-2.0390625 0.609375,-1.23046875 0.890625,-2.5195312 0.890625,-3.9609375 z m 0,0"
         style="fill:#000000;fill-opacity:1;fill-rule:nonzero;stroke:none" />
    </g>
  </g>
</svg>
