<?xml version="1.0" encoding="UTF-8" standalone="no"?>
<!-- Created with Inkscape (http://www.inkscape.org/) -->

<svg
   version="1.1"
   id="svg1"
   width="633.27997"
   height="240"
   viewBox="0 0 633.27997 240"
   sodipodi:docname="upload_vvc3qdjgdl77dn3nkkh2u7ul7m.pdf"
   xmlns:inkscape="http://www.inkscape.org/namespaces/inkscape"
   xmlns:sodipodi="http://sodipodi.sourceforge.net/DTD/sodipodi-0.dtd"
   xmlns="http://www.w3.org/2000/svg"
   xmlns:svg="http://www.w3.org/2000/svg">
  <defs
     id="defs1">
    <clipPath
       clipPathUnits="userSpaceOnUse"
       id="clipPath2">
      <path
         d="M 0,0 H 1979.9805 V 750 H 0 Z"
         transform="scale(0.31999999)"
         clip-rule="evenodd"
         id="path2" />
    </clipPath>
    <clipPath
       clipPathUnits="userSpaceOnUse"
       id="clipPath4">
      <path
         d="m 78.125,28.125 h 1825 v 693.75 h -1825 z"
         transform="matrix(0.36304335,0,0,0.36304335,-30.015707,-11.845106)"
         clip-rule="evenodd"
         id="path4" />
    </clipPath>
    <clipPath
       clipPathUnits="userSpaceOnUse"
       id="clipPath6">
      <path
         d="m 78.125,28.125 h 1825 v 693.75 h -1825 z"
         transform="matrix(0.36304335,0,0,0.36304335,-30.015707,-11.845106)"
         clip-rule="evenodd"
         id="path6" />
    </clipPath>
    <clipPath
       clipPathUnits="userSpaceOnUse"
       id="clipPath8">
      <path
         d="m 78.125,28.125 h 1825 v 693.75 h -1825 z"
         transform="matrix(0.36304335,0,0,0.36304335,-30.015707,-11.845106)"
         clip-rule="evenodd"
         id="path8" />
    </clipPath>
    <clipPath
       clipPathUnits="userSpaceOnUse"
       id="clipPath10">
      <path
         d="m 78.125,28.125 h 1825 v 693.75 h -1825 z"
         transform="matrix(0.36304335,0,0,0.36304335,-30.015707,-11.845106)"
         clip-rule="evenodd"
         id="path10" />
    </clipPath>
    <clipPath
       clipPathUnits="userSpaceOnUse"
       id="clipPath12">
      <path
         d="m 78.125,28.125 h 1825 v 693.75 h -1825 z"
         transform="matrix(0.36304335,0,0,0.36304335,-30.015707,-11.845106)"
         clip-rule="evenodd"
         id="path12" />
    </clipPath>
    <clipPath
       clipPathUnits="userSpaceOnUse"
       id="clipPath14">
      <path
         d="m 78.125,28.125 h 1825 v 693.75 h -1825 z"
         transform="matrix(0.36304335,0,0,0.36304335,-30.015707,-11.845106)"
         clip-rule="evenodd"
         id="path14" />
    </clipPath>
    <clipPath
       clipPathUnits="userSpaceOnUse"
       id="clipPath16">
      <path
         d="m 78.125,28.125 h 1825 v 693.75 h -1825 z"
         transform="matrix(0.36304335,0,0,0.36304335,-30.015707,-11.845106)"
         clip-rule="evenodd"
         id="path16" />
    </clipPath>
    <clipPath
       clipPathUnits="userSpaceOnUse"
       id="clipPath18">
      <path
         d="m 78.125,28.125 h 1825 v 693.75 h -1825 z"
         transform="matrix(0.36304335,0,0,0.36304335,-30.015707,-11.845106)"
         clip-rule="evenodd"
         id="path18" />
    </clipPath>
    <clipPath
       clipPathUnits="userSpaceOnUse"
       id="clipPath20">
      <path
         d="m 78.125,28.125 h 1825 v 693.75 h -1825 z"
         transform="matrix(0.36304335,0,0,0.36304335,-30.015707,-11.845106)"
         clip-rule="evenodd"
         id="path20" />
    </clipPath>
    <clipPath
       clipPathUnits="userSpaceOnUse"
       id="clipPath22">
      <path
         d="m 78.125,28.125 h 1825 v 693.75 h -1825 z"
         transform="matrix(0.36304335,0,0,0.36304335,-30.015707,-11.845106)"
         clip-rule="evenodd"
         id="path22" />
    </clipPath>
    <clipPath
       clipPathUnits="userSpaceOnUse"
       id="clipPath24">
      <path
         d="m 78.125,28.125 h 1825 v 693.75 h -1825 z"
         transform="matrix(0.36304335,0,0,0.36304335,-30.015707,-11.845106)"
         clip-rule="evenodd"
         id="path24" />
    </clipPath>
    <clipPath
       clipPathUnits="userSpaceOnUse"
       id="clipPath26">
      <path
         d="m 78.125,28.125 h 1825 v 693.75 h -1825 z"
         transform="matrix(0.36304335,0,0,0.36304335,-30.015707,-11.845106)"
         clip-rule="evenodd"
         id="path26" />
    </clipPath>
    <clipPath
       clipPathUnits="userSpaceOnUse"
       id="clipPath28">
      <path
         d="m 78.125,28.125 h 1825 v 693.75 h -1825 z"
         transform="matrix(0.36304335,0,0,0.36304335,-30.015707,-11.845106)"
         clip-rule="evenodd"
         id="path28" />
    </clipPath>
    <clipPath
       clipPathUnits="userSpaceOnUse"
       id="clipPath29">
      <path
         d="m 78.125,28.125 h 1825 v 693.75 h -1825 z"
         transform="matrix(0.36304335,0,0,0.36304335,-125.06259,-232.34511)"
         clip-rule="evenodd"
         id="path29" />
    </clipPath>
    <clipPath
       clipPathUnits="userSpaceOnUse"
       id="clipPath30">
      <path
         d="m 78.125,28.125 h 1825 v 693.75 h -1825 z"
         transform="matrix(0.36304335,0,0,0.36304335,-165.06258,-232.34511)"
         clip-rule="evenodd"
         id="path30" />
    </clipPath>
    <clipPath
       clipPathUnits="userSpaceOnUse"
       id="clipPath31">
      <path
         d="m 78.125,28.125 h 1825 v 693.75 h -1825 z"
         transform="matrix(0.36304335,0,0,0.36304335,-205.06258,-232.34511)"
         clip-rule="evenodd"
         id="path31" />
    </clipPath>
    <clipPath
       clipPathUnits="userSpaceOnUse"
       id="clipPath32">
      <path
         d="m 78.125,28.125 h 1825 v 693.75 h -1825 z"
         transform="matrix(0.36304335,0,0,0.36304335,-245.06259,-232.34511)"
         clip-rule="evenodd"
         id="path32" />
    </clipPath>
    <clipPath
       clipPathUnits="userSpaceOnUse"
       id="clipPath33">
      <path
         d="m 78.125,28.125 h 1825 v 693.75 h -1825 z"
         transform="matrix(0.36304335,0,0,0.36304335,-285.06259,-232.34511)"
         clip-rule="evenodd"
         id="path33" />
    </clipPath>
    <clipPath
       clipPathUnits="userSpaceOnUse"
       id="clipPath34">
      <path
         d="m 78.125,28.125 h 1825 v 693.75 h -1825 z"
         transform="matrix(0.36304335,0,0,0.36304335,-325.06259,-232.34511)"
         clip-rule="evenodd"
         id="path34" />
    </clipPath>
    <clipPath
       clipPathUnits="userSpaceOnUse"
       id="clipPath35">
      <path
         d="m 78.125,28.125 h 1825 v 693.75 h -1825 z"
         transform="matrix(0.36304335,0,0,0.36304335,-365.06259,-232.34511)"
         clip-rule="evenodd"
         id="path35" />
    </clipPath>
    <clipPath
       clipPathUnits="userSpaceOnUse"
       id="clipPath36">
      <path
         d="m 78.125,28.125 h 1825 v 693.75 h -1825 z"
         transform="matrix(0.36304335,0,0,0.36304335,-405.06259,-232.34511)"
         clip-rule="evenodd"
         id="path36" />
    </clipPath>
    <clipPath
       clipPathUnits="userSpaceOnUse"
       id="clipPath37">
      <path
         d="m 78.125,28.125 h 1825 v 693.75 h -1825 z"
         transform="matrix(0.36304335,0,0,0.36304335,-445.06259,-232.34511)"
         clip-rule="evenodd"
         id="path37" />
    </clipPath>
    <clipPath
       clipPathUnits="userSpaceOnUse"
       id="clipPath38">
      <path
         d="m 78.125,28.125 h 1825 v 693.75 h -1825 z"
         transform="matrix(0.36304335,0,0,0.36304335,-485.06259,-232.34511)"
         clip-rule="evenodd"
         id="path38" />
    </clipPath>
    <clipPath
       clipPathUnits="userSpaceOnUse"
       id="clipPath39">
      <path
         d="m 78.125,28.125 h 1825 v 693.75 h -1825 z"
         transform="matrix(0.36304335,0,0,0.36304335,-520.60946,-232.34511)"
         clip-rule="evenodd"
         id="path39" />
    </clipPath>
    <clipPath
       clipPathUnits="userSpaceOnUse"
       id="clipPath40">
      <path
         d="m 78.125,28.125 h 1825 v 693.75 h -1825 z"
         transform="matrix(0.36304335,0,0,0.36304335,-560.60945,-232.34511)"
         clip-rule="evenodd"
         id="path40" />
    </clipPath>
    <clipPath
       clipPathUnits="userSpaceOnUse"
       id="clipPath41">
      <path
         d="m 78.125,28.125 h 1825 v 693.75 h -1825 z"
         transform="matrix(0.36304335,0,0,0.36304335,-600.60946,-232.34511)"
         clip-rule="evenodd"
         id="path41" />
    </clipPath>
    <clipPath
       clipPathUnits="userSpaceOnUse"
       id="clipPath42">
      <path
         d="m 78.125,28.125 h 1825 v 693.75 h -1825 z"
         transform="matrix(0.36304335,0,0,0.36304335,-641.17197,-194.3451)"
         clip-rule="evenodd"
         id="path42" />
    </clipPath>
    <clipPath
       clipPathUnits="userSpaceOnUse"
       id="clipPath44">
      <path
         d="m 78.125,28.125 h 1825 v 693.75 h -1825 z"
         transform="matrix(0.36304335,0,0,0.36304335,-30.015707,-11.845106)"
         clip-rule="evenodd"
         id="path44" />
    </clipPath>
    <clipPath
       clipPathUnits="userSpaceOnUse"
       id="clipPath45">
      <path
         d="m 78.125,28.125 h 1825 v 693.75 h -1825 z"
         transform="matrix(0.36304335,0,0,0.36304335,-205.06258,-57.345105)"
         clip-rule="evenodd"
         id="path45" />
    </clipPath>
    <clipPath
       clipPathUnits="userSpaceOnUse"
       id="clipPath47">
      <path
         d="m 78.125,28.125 h 1825 v 693.75 h -1825 z"
         transform="matrix(0.36304335,0,0,0.36304335,-30.015707,-11.845106)"
         clip-rule="evenodd"
         id="path47" />
    </clipPath>
    <clipPath
       clipPathUnits="userSpaceOnUse"
       id="clipPath48">
      <path
         d="m 78.125,28.125 h 1825 v 693.75 h -1825 z"
         transform="matrix(0.36304335,0,0,0.36304335,-205.06258,-107.3451)"
         clip-rule="evenodd"
         id="path48" />
    </clipPath>
    <clipPath
       clipPathUnits="userSpaceOnUse"
       id="clipPath50">
      <path
         d="m 78.125,28.125 h 1825 v 693.75 h -1825 z"
         transform="matrix(0.36304335,0,0,0.36304335,-29.515708,-11.345105)"
         clip-rule="evenodd"
         id="path50" />
    </clipPath>
    <clipPath
       clipPathUnits="userSpaceOnUse"
       id="clipPath52">
      <path
         d="m 78.125,28.125 h 1825 v 693.75 h -1825 z"
         transform="matrix(0.36304335,0,0,0.36304335,-29.515708,-11.345105)"
         clip-rule="evenodd"
         id="path52" />
    </clipPath>
    <clipPath
       clipPathUnits="userSpaceOnUse"
       id="clipPath54">
      <path
         d="m 78.125,28.125 h 1825 v 693.75 h -1825 z"
         transform="matrix(0.36304335,0,0,0.36304335,-45.515708,-195.3451)"
         clip-rule="evenodd"
         id="path54" />
    </clipPath>
    <clipPath
       clipPathUnits="userSpaceOnUse"
       id="clipPath56">
      <path
         d="m 78.125,28.125 h 1825 v 693.75 h -1825 z"
         transform="matrix(0.36304335,0,0,0.36304335,-29.515708,-11.345105)"
         clip-rule="evenodd"
         id="path56" />
    </clipPath>
    <clipPath
       clipPathUnits="userSpaceOnUse"
       id="clipPath58">
      <path
         d="m 78.125,28.125 h 1825 v 693.75 h -1825 z"
         transform="matrix(0.36304335,0,0,0.36304335,-47.515708,-80.345104)"
         clip-rule="evenodd"
         id="path58" />
    </clipPath>
  </defs>
  <sodipodi:namedview
     id="namedview1"
     pagecolor="#ffffff"
     bordercolor="#000000"
     borderopacity="0.25"
     inkscape:showpageshadow="2"
     inkscape:pageopacity="0.0"
     inkscape:pagecheckerboard="0"
     inkscape:deskcolor="#d1d1d1">
    <inkscape:page
       x="0"
       y="0"
       inkscape:label="1"
       id="page1"
       width="633.27997"
       height="240"
       margin="0"
       bleed="0" />
  </sodipodi:namedview>
  <g
     id="g1"
     inkscape:groupmode="layer"
     inkscape:label="1">
    <path
       id="path1"
       d="M 0,0 H 634 V 240 H 0 Z"
       style="fill:#ffffff;fill-opacity:1;fill-rule:nonzero;stroke:none"
       clip-path="url(#clipPath2)" />
    <path
       id="path3"
       d="m 80,160 h 40 v 40 H 80 Z"
       style="fill:#ffffff;fill-opacity:1;fill-rule:nonzero;stroke:#000000;stroke-width:1;stroke-linecap:butt;stroke-linejoin:miter;stroke-miterlimit:10;stroke-dasharray:none;stroke-opacity:1"
       transform="matrix(0.8814374,0,0,0.8814374,26.456967,10.440719)"
       clip-path="url(#clipPath4)" />
    <path
       id="path5"
       d="m 120,160 h 40 v 40 h -40 z"
       style="fill:#ffffff;fill-opacity:1;fill-rule:nonzero;stroke:#000000;stroke-width:1;stroke-linecap:butt;stroke-linejoin:miter;stroke-miterlimit:10;stroke-dasharray:none;stroke-opacity:1"
       transform="matrix(0.8814374,0,0,0.8814374,26.456967,10.440719)"
       clip-path="url(#clipPath6)" />
    <path
       id="path7"
       d="m 160,160 h 40 v 40 h -40 z"
       style="fill:#ffffff;fill-opacity:1;fill-rule:nonzero;stroke:#000000;stroke-width:1;stroke-linecap:butt;stroke-linejoin:miter;stroke-miterlimit:10;stroke-dasharray:none;stroke-opacity:1"
       transform="matrix(0.8814374,0,0,0.8814374,26.456967,10.440719)"
       clip-path="url(#clipPath8)" />
    <path
       id="path9"
       d="m 200,160 h 40 v 40 h -40 z"
       style="fill:#ffffff;fill-opacity:1;fill-rule:nonzero;stroke:#000000;stroke-width:1;stroke-linecap:butt;stroke-linejoin:miter;stroke-miterlimit:10;stroke-dasharray:none;stroke-opacity:1"
       transform="matrix(0.8814374,0,0,0.8814374,26.456967,10.440719)"
       clip-path="url(#clipPath10)" />
    <path
       id="path11"
       d="m 240,160 h 40 v 40 h -40 z"
       style="fill:#ffffff;fill-opacity:1;fill-rule:nonzero;stroke:#000000;stroke-width:1;stroke-linecap:butt;stroke-linejoin:miter;stroke-miterlimit:10;stroke-dasharray:none;stroke-opacity:1"
       transform="matrix(0.8814374,0,0,0.8814374,26.456967,10.440719)"
       clip-path="url(#clipPath12)" />
    <path
       id="path13"
       d="m 280,160 h 40 v 40 h -40 z"
       style="fill:#ffffff;fill-opacity:1;fill-rule:nonzero;stroke:#000000;stroke-width:1;stroke-linecap:butt;stroke-linejoin:miter;stroke-miterlimit:10;stroke-dasharray:none;stroke-opacity:1"
       transform="matrix(0.8814374,0,0,0.8814374,26.456967,10.440719)"
       clip-path="url(#clipPath14)" />
    <path
       id="path15"
       d="m 320,160 h 40 v 40 h -40 z"
       style="fill:#ffffff;fill-opacity:1;fill-rule:nonzero;stroke:#000000;stroke-width:1;stroke-linecap:butt;stroke-linejoin:miter;stroke-miterlimit:10;stroke-dasharray:none;stroke-opacity:1"
       transform="matrix(0.8814374,0,0,0.8814374,26.456967,10.440719)"
       clip-path="url(#clipPath16)" />
    <path
       id="path17"
       d="m 360,160 h 40 v 40 h -40 z"
       style="fill:#ffffff;fill-opacity:1;fill-rule:nonzero;stroke:#000000;stroke-width:1;stroke-linecap:butt;stroke-linejoin:miter;stroke-miterlimit:10;stroke-dasharray:none;stroke-opacity:1"
       transform="matrix(0.8814374,0,0,0.8814374,26.456967,10.440719)"
       clip-path="url(#clipPath18)" />
    <path
       id="path19"
       d="m 400,160 h 40 v 40 h -40 z"
       style="fill:#ffffff;fill-opacity:1;fill-rule:nonzero;stroke:#000000;stroke-width:1;stroke-linecap:butt;stroke-linejoin:miter;stroke-miterlimit:10;stroke-dasharray:none;stroke-opacity:1"
       transform="matrix(0.8814374,0,0,0.8814374,26.456967,10.440719)"
       clip-path="url(#clipPath20)" />
    <path
       id="path21"
       d="m 440,160 h 40 v 40 h -40 z"
       style="fill:#ffffff;fill-opacity:1;fill-rule:nonzero;stroke:#000000;stroke-width:1;stroke-linecap:butt;stroke-linejoin:miter;stroke-miterlimit:10;stroke-dasharray:none;stroke-opacity:1"
       transform="matrix(0.8814374,0,0,0.8814374,26.456967,10.440719)"
       clip-path="url(#clipPath22)" />
    <path
       id="path23"
       d="m 480,160 h 40 v 40 h -40 z"
       style="fill:#ffffff;fill-opacity:1;fill-rule:nonzero;stroke:#000000;stroke-width:1;stroke-linecap:butt;stroke-linejoin:miter;stroke-miterlimit:10;stroke-dasharray:none;stroke-opacity:1"
       transform="matrix(0.8814374,0,0,0.8814374,26.456967,10.440719)"
       clip-path="url(#clipPath24)" />
    <path
       id="path25"
       d="m 520,160 h 40 v 40 h -40 z"
       style="fill:#ffffff;fill-opacity:1;fill-rule:nonzero;stroke:#000000;stroke-width:1;stroke-linecap:butt;stroke-linejoin:miter;stroke-miterlimit:10;stroke-dasharray:none;stroke-opacity:1"
       transform="matrix(0.8814374,0,0,0.8814374,26.456967,10.440719)"
       clip-path="url(#clipPath26)" />
    <path
       id="path27"
       d="m 560,160 h 40 v 40 h -40 z"
       style="fill:#ffffff;fill-opacity:1;fill-rule:nonzero;stroke:#000000;stroke-width:1;stroke-linecap:butt;stroke-linejoin:miter;stroke-miterlimit:10;stroke-dasharray:none;stroke-opacity:1"
       transform="matrix(0.8814374,0,0,0.8814374,26.456967,10.440719)"
       clip-path="url(#clipPath28)" />
    <g
       id="g28" />
    <text
       id="text28"
       xml:space="preserve"
       transform="matrix(0.8814374,0,0,0.8814374,110.23484,204.79767)"
       clip-path="url(#clipPath29)"><tspan
         id="tspan28"
         style="font-variant:normal;font-weight:700;font-size:16px;font-family:'Liberation Sans';writing-mode:lr-tb;fill:#000000;fill-opacity:1;fill-rule:nonzero;stroke:none"
         x="0"
         y="0">0</tspan></text>
    <g
       id="g29" />
    <text
       id="text29"
       xml:space="preserve"
       transform="matrix(0.8814374,0,0,0.8814374,145.49233,204.79767)"
       clip-path="url(#clipPath30)"><tspan
         id="tspan29"
         style="font-variant:normal;font-weight:700;font-size:16px;font-family:'Liberation Sans';writing-mode:lr-tb;fill:#000000;fill-opacity:1;fill-rule:nonzero;stroke:none"
         x="0"
         y="0">1</tspan></text>
    <g
       id="g30" />
    <text
       id="text30"
       xml:space="preserve"
       transform="matrix(0.8814374,0,0,0.8814374,180.74983,204.79767)"
       clip-path="url(#clipPath31)"><tspan
         id="tspan30"
         style="font-variant:normal;font-weight:700;font-size:16px;font-family:'Liberation Sans';writing-mode:lr-tb;fill:#000000;fill-opacity:1;fill-rule:nonzero;stroke:none"
         x="0"
         y="0">2</tspan></text>
    <g
       id="g31" />
    <text
       id="text31"
       xml:space="preserve"
       transform="matrix(0.8814374,0,0,0.8814374,216.00733,204.79767)"
       clip-path="url(#clipPath32)"><tspan
         id="tspan31"
         style="font-variant:normal;font-weight:700;font-size:16px;font-family:'Liberation Sans';writing-mode:lr-tb;fill:#000000;fill-opacity:1;fill-rule:nonzero;stroke:none"
         x="0"
         y="0">3</tspan></text>
    <g
       id="g32" />
    <text
       id="text32"
       xml:space="preserve"
       transform="matrix(0.8814374,0,0,0.8814374,251.26483,204.79767)"
       clip-path="url(#clipPath33)"><tspan
         id="tspan32"
         style="font-variant:normal;font-weight:700;font-size:16px;font-family:'Liberation Sans';writing-mode:lr-tb;fill:#000000;fill-opacity:1;fill-rule:nonzero;stroke:none"
         x="0"
         y="0">4</tspan></text>
    <g
       id="g33" />
    <text
       id="text33"
       xml:space="preserve"
       transform="matrix(0.8814374,0,0,0.8814374,286.52232,204.79767)"
       clip-path="url(#clipPath34)"><tspan
         id="tspan33"
         style="font-variant:normal;font-weight:700;font-size:16px;font-family:'Liberation Sans';writing-mode:lr-tb;fill:#000000;fill-opacity:1;fill-rule:nonzero;stroke:none"
         x="0"
         y="0">5</tspan></text>
    <g
       id="g34" />
    <text
       id="text34"
       xml:space="preserve"
       transform="matrix(0.8814374,0,0,0.8814374,321.77982,204.79767)"
       clip-path="url(#clipPath35)"><tspan
         id="tspan34"
         style="font-variant:normal;font-weight:700;font-size:16px;font-family:'Liberation Sans';writing-mode:lr-tb;fill:#000000;fill-opacity:1;fill-rule:nonzero;stroke:none"
         x="0"
         y="0">6</tspan></text>
    <g
       id="g35" />
    <text
       id="text35"
       xml:space="preserve"
       transform="matrix(0.8814374,0,0,0.8814374,357.03732,204.79767)"
       clip-path="url(#clipPath36)"><tspan
         id="tspan35"
         style="font-variant:normal;font-weight:700;font-size:16px;font-family:'Liberation Sans';writing-mode:lr-tb;fill:#000000;fill-opacity:1;fill-rule:nonzero;stroke:none"
         x="0"
         y="0">7</tspan></text>
    <g
       id="g36" />
    <text
       id="text36"
       xml:space="preserve"
       transform="matrix(0.8814374,0,0,0.8814374,392.29481,204.79767)"
       clip-path="url(#clipPath37)"><tspan
         id="tspan36"
         style="font-variant:normal;font-weight:700;font-size:16px;font-family:'Liberation Sans';writing-mode:lr-tb;fill:#000000;fill-opacity:1;fill-rule:nonzero;stroke:none"
         x="0"
         y="0">8</tspan></text>
    <g
       id="g37" />
    <text
       id="text37"
       xml:space="preserve"
       transform="matrix(0.8814374,0,0,0.8814374,427.55231,204.79767)"
       clip-path="url(#clipPath38)"><tspan
         id="tspan37"
         style="font-variant:normal;font-weight:700;font-size:16px;font-family:'Liberation Sans';writing-mode:lr-tb;fill:#000000;fill-opacity:1;fill-rule:nonzero;stroke:none"
         x="0"
         y="0">9</tspan></text>
    <g
       id="g38" />
    <text
       id="text38"
       xml:space="preserve"
       transform="matrix(0.8814374,0,0,0.8814374,458.88465,204.79767)"
       clip-path="url(#clipPath39)"><tspan
         id="tspan38"
         style="font-variant:normal;font-weight:700;font-size:16px;font-family:'Liberation Sans';writing-mode:lr-tb;fill:#000000;fill-opacity:1;fill-rule:nonzero;stroke:none"
         x="0"
         y="0">10</tspan></text>
    <g
       id="g39" />
    <text
       id="text39"
       xml:space="preserve"
       transform="matrix(0.8814374,0,0,0.8814374,494.14214,204.79767)"
       clip-path="url(#clipPath40)"><tspan
         id="tspan39"
         style="font-variant:normal;font-weight:700;font-size:16px;font-family:'Liberation Sans';writing-mode:lr-tb;fill:#000000;fill-opacity:1;fill-rule:nonzero;stroke:none"
         x="0"
         y="0">11</tspan></text>
    <g
       id="g40" />
    <text
       id="text40"
       xml:space="preserve"
       transform="matrix(0.8814374,0,0,0.8814374,529.39964,204.79767)"
       clip-path="url(#clipPath41)"><tspan
         id="tspan40"
         style="font-variant:normal;font-weight:700;font-size:16px;font-family:'Liberation Sans';writing-mode:lr-tb;fill:#000000;fill-opacity:1;fill-rule:nonzero;stroke:none"
         x="0"
         y="0">12</tspan></text>
    <g
       id="g41" />
    <text
       id="text41"
       xml:space="preserve"
       transform="matrix(0.8814374,0,0,0.8814374,565.15295,171.30304)"
       clip-path="url(#clipPath42)"><tspan
         id="tspan41"
         style="font-variant:normal;font-weight:700;font-size:20px;font-family:'Liberation Sans';writing-mode:lr-tb;fill:#000000;fill-opacity:1;fill-rule:nonzero;stroke:none"
         x="0"
         y="0">...</tspan></text>
    <path
       id="path43"
       d="m 200,40 c -2e-5,1.313213 -0.12811,2.613815 -0.38432,3.901802 -0.25621,1.287987 -0.63558,2.538609 -1.13813,3.751862 -0.50254,1.213253 -1.11862,2.365833 -1.8482,3.457737 -0.72957,1.091899 -1.55866,2.102142 -2.48723,3.030731 -0.92859,0.928585 -1.93883,1.757667 -3.03073,2.487251 -1.0919,0.729588 -2.24448,1.345654 -3.45775,1.848202 -1.21324,0.502544 -2.46387,0.88192 -3.75186,1.138119 C 182.6138,59.871895 181.31322,59.999996 180,60 c -1.31322,-4e-6 -2.61383,-0.128105 -3.90182,-0.3843 -1.28798,-0.256199 -2.53861,-0.635571 -3.75188,-1.138115 -1.21324,-0.502548 -2.36582,-1.118614 -3.45772,-1.848198 -1.0919,-0.729588 -2.10214,-1.55867 -3.03073,-2.487255 -0.92859,-0.928589 -1.75768,-1.938835 -2.48728,-3.030735 -0.72958,-1.0919 -1.34564,-2.24448 -1.84818,-3.457733 -0.50255,-1.213253 -0.88193,-2.463875 -1.13811,-3.751862 C 160.12808,42.613815 159.99998,41.313213 160,40 c -2e-5,-1.313221 0.12808,-2.613823 0.38428,-3.901806 0.25618,-1.287987 0.63556,-2.538608 1.13811,-3.751865 0.50254,-1.213257 1.1186,-2.365835 1.84818,-3.457737 0.7296,-1.091902 1.55869,-2.102144 2.48728,-3.03073 0.92859,-0.928586 1.93883,-1.757673 3.03073,-2.487257 1.0919,-0.729585 2.24448,-1.345653 3.45772,-1.848199 1.21327,-0.502547 2.4639,-0.881916 3.75188,-1.138113 C 177.38617,20.128098 178.68678,20 180,20 c 1.31322,0 2.6138,0.128098 3.90178,0.384293 1.28798,0.256197 2.5386,0.635566 3.75185,1.138113 1.21327,0.502546 2.36584,1.118614 3.45774,1.848199 1.09191,0.729584 2.10216,1.558671 3.03075,2.487257 0.92857,0.928586 1.75766,1.938828 2.48723,3.03073 0.7296,1.091902 1.34567,2.24448 1.84822,3.457737 0.50253,1.213257 0.8819,2.463878 1.13811,3.751865 C 199.87189,37.386177 199.99998,38.686779 200,40 Z"
       style="fill:#ffffff;fill-opacity:1;fill-rule:nonzero;stroke:#000000;stroke-width:1;stroke-linecap:butt;stroke-linejoin:miter;stroke-miterlimit:10;stroke-dasharray:none;stroke-opacity:1"
       transform="matrix(0.8814374,0,0,0.8814374,26.456967,10.440719)"
       clip-path="url(#clipPath44)" />
    <g
       id="g44" />
    <text
       id="text44"
       xml:space="preserve"
       transform="matrix(0.8814374,0,0,0.8814374,180.74983,50.54612)"
       clip-path="url(#clipPath45)"><tspan
         id="tspan44"
         style="font-variant:normal;font-weight:normal;font-size:16px;font-family:'Liberation Sans';writing-mode:lr-tb;fill:#000000;fill-opacity:1;fill-rule:nonzero;stroke:none"
         x="0"
         y="0">1</tspan></text>
    <path
       id="path46"
       d="m 200,90 c -2e-5,1.313217 -0.12811,2.613815 -0.38432,3.901802 -0.25621,1.287987 -0.63558,2.538605 -1.13813,3.751854 -0.50254,1.213249 -1.11862,2.365834 -1.8482,3.457734 -0.72957,1.0919 -1.55866,2.10215 -2.48723,3.03074 -0.92859,0.92858 -1.93883,1.75767 -3.03073,2.48725 -1.0919,0.72959 -2.24448,1.34566 -3.45775,1.8482 -1.21324,0.50255 -2.46387,0.88192 -3.75186,1.13811 -1.28798,0.2562 -2.58856,0.3843 -3.90178,0.38431 -1.31322,-1e-5 -2.61383,-0.12811 -3.90182,-0.38431 -1.28798,-0.2562 -2.53861,-0.63557 -3.75188,-1.13812 -1.21324,-0.50255 -2.36582,-1.11862 -3.45772,-1.84819 -1.0919,-0.72958 -2.10214,-1.55867 -3.03073,-2.48725 -0.92859,-0.92859 -1.75768,-1.93884 -2.48728,-3.03074 -0.72958,-1.0919 -1.34564,-2.244485 -1.84818,-3.457734 -0.50255,-1.213249 -0.88193,-2.463875 -1.13811,-3.751862 C 160.12808,92.613815 159.99998,91.313217 160,90 c -2e-5,-1.313225 0.12808,-2.613831 0.38428,-3.901817 0.25618,-1.287987 0.63556,-2.538605 1.13811,-3.75187 0.50254,-1.213256 1.1186,-2.365837 1.84818,-3.457733 0.7296,-1.091896 1.55869,-2.102142 2.48728,-3.030723 0.92859,-0.928589 1.93883,-1.757675 3.03073,-2.487259 1.0919,-0.729592 2.24448,-1.345658 3.45772,-1.848198 1.21327,-0.502541 2.4639,-0.881912 3.75188,-1.138107 C 177.38617,70.128098 178.68678,70 180,70 c 1.31322,0 2.6138,0.128098 3.90178,0.384293 1.28798,0.256195 2.5386,0.635566 3.75185,1.138107 1.21327,0.50254 2.36584,1.118606 3.45774,1.848198 1.09191,0.729584 2.10216,1.55867 3.03075,2.487259 0.92857,0.928581 1.75766,1.938827 2.48723,3.030723 0.7296,1.091896 1.34567,2.244477 1.84822,3.457733 0.50253,1.213265 0.8819,2.463883 1.13811,3.75187 C 199.87189,87.386169 199.99998,88.686775 200,90 Z"
       style="fill:#ffffff;fill-opacity:1;fill-rule:nonzero;stroke:#000000;stroke-width:1;stroke-linecap:butt;stroke-linejoin:miter;stroke-miterlimit:10;stroke-dasharray:none;stroke-opacity:1"
       transform="matrix(0.8814374,0,0,0.8814374,26.456967,10.440719)"
       clip-path="url(#clipPath47)" />
    <g
       id="g47" />
    <text
       id="text47"
       xml:space="preserve"
       transform="matrix(0.8814374,0,0,0.8814374,180.74983,94.61799)"
       clip-path="url(#clipPath48)"><tspan
         id="tspan47"
         style="font-variant:normal;font-weight:normal;font-size:16px;font-family:'Liberation Sans';writing-mode:lr-tb;fill:#000000;fill-opacity:1;fill-rule:nonzero;stroke:none"
         x="0"
         y="0">2</tspan></text>
    <path
       id="path49"
       d="M 20,130 H 630"
       style="fill:none;stroke:#000000;stroke-width:4;stroke-linecap:butt;stroke-linejoin:miter;stroke-miterlimit:10;stroke-dasharray:none;stroke-opacity:1"
       transform="matrix(0.8814374,0,0,0.8814374,26.016249,9.9999996)"
       clip-path="url(#clipPath50)" />
    <path
       id="path51"
       d="m 18.419922,183.3877 c 0,0.58203 0.01563,1.26367 0.04687,2.04492 -0.494141,-0.0488 -0.989258,-0.0488 -1.485352,0 0.04102,-0.78125 0.06152,-1.46289 0.06152,-2.04492 v -7.292 h 4.183594 v -0.43066 c 0,-0.58984 -0.02051,-1.27149 -0.06152,-2.04492 0.496094,0.0488 0.992188,0.0488 1.488281,0 -0.04102,0.77343 -0.06152,1.45508 -0.06152,2.04492 v 0.43066 h 4.6875 v 7.80762 c 0,0.62109 -0.222656,1.05762 -0.667969,1.30957 -0.421875,0.22266 -1.136719,0.3291 -2.144531,0.31934 0.121094,-0.52149 -0.08008,-1.05762 -0.603516,-1.6084 0.689453,0.0625 1.19043,0.0957 1.50293,0.0996 0.314453,0.004 0.482422,-0.003 0.503906,-0.0205 0.0293,-0.0371 0.04395,-0.19531 0.04395,-0.47461 v -6.19629 h -3.322266 v 0.33985 l 1.749023,1.79589 1.954102,2.15918 -1.101563,0.96094 -1.918945,-2.12402 -0.975586,-1.00196 c -0.179687,0.69336 -0.635742,1.41895 -1.368164,2.17676 -0.732422,0.75586 -1.661133,1.32422 -2.786133,1.70508 -0.07227,-0.25195 -0.0459,-0.40332 0.0791,-0.4541 z m 2.806641,-6.05567 H 18.419922 V 181.75 c 0.685547,-0.23633 1.324219,-0.74121 1.916016,-1.51465 0.59375,-0.77539 0.890625,-1.64648 0.890625,-2.61328 z m 18.793945,3.24317 c -0.04102,0.41406 -0.04102,0.83398 0,1.25976 -0.640625,-0.0332 -1.185547,-0.0498 -1.634766,-0.0498 h -1.637695 v 2.31738 c 0,0.36914 -0.144531,0.68848 -0.433594,0.95801 -0.386719,0.33203 -1.161133,0.49316 -2.323242,0.4834 0.123047,-0.50782 -0.07617,-1.04395 -0.597656,-1.6084 0.691406,0.0859 1.196289,0.13086 1.514648,0.13476 0.320313,0.004 0.483399,0.003 0.489258,-0.003 0.0059,-0.006 0.0088,-0.0684 0.0088,-0.1875 v -2.09472 h -1.520508 c -0.449219,0 -0.99414,0.0166 -1.634765,0.0498 0.04102,-0.42578 0.04102,-0.8457 0,-1.25976 0.638671,0.0215 1.183593,0.0322 1.634765,0.0322 h 1.520508 v -1.01953 l 1.12207,-1.06055 h -1.763672 c -0.457031,0 -1.005859,0.0166 -1.646484,0.0498 0.04102,-0.41797 0.04102,-0.83985 0,-1.26563 0.640625,0.0332 1.189453,0.0498 1.646484,0.0498 h 3.925782 l 0.131836,1.21289 c -0.308594,0.0586 -0.522461,0.14258 -0.641602,0.25195 l -1.432617,1.3418 v 0.43945 h 1.637695 c 0.451172,0 0.996094,-0.0107 1.634766,-0.0322 z m -8.018555,4.8955 c -0.478515,-0.0508 -0.960937,-0.0517 -1.447265,-0.003 0.03125,-0.75781 0.04687,-1.42382 0.04687,-1.99804 v -2.50489 c -0.25586,0.29688 -0.763672,0.75586 -1.523438,1.37696 -0.257812,-0.41016 -0.658203,-0.72559 -1.201172,-0.94629 1.171875,-0.93164 2.075195,-1.77344 2.709961,-2.52539 -0.0059,-0.11328 -0.0166,-0.35254 -0.03223,-0.71778 0.324218,0.0352 0.509765,0.0527 0.55664,0.0527 0.455078,-0.60547 0.795899,-1.16992 1.022461,-1.69336 h -1.693359 c -0.457032,0 -1.00586,0.0166 -1.646485,0.0498 0.04102,-0.42578 0.04102,-0.84765 0,-1.26562 0.640625,0.0332 1.189453,0.0498 1.646485,0.0498 h 2.203125 c 0.220703,-0.51172 0.43164,-1.04687 0.632812,-1.60547 0.460938,0.21875 0.94043,0.3877 1.438477,0.50684 -0.228516,0.57422 -0.378906,0.94043 -0.451172,1.09863 h 3.899414 c 0.449219,0 0.994141,-0.0166 1.634766,-0.0498 -0.04102,0.41797 -0.04102,0.83984 0,1.26562 -0.640625,-0.0332 -1.185547,-0.0498 -1.634766,-0.0498 h -4.464844 c -0.507812,1 -1.084961,1.93262 -1.731445,2.79785 l -0.01172,4.16016 c 0,0.57422 0.01563,1.24121 0.04687,2.00097 z m 16.792969,-10.03418 c 0.414062,0.32227 0.861328,0.60059 1.341797,0.83496 -0.851563,1.20704 -1.608399,2.18165 -2.270508,2.92383 0.875,0.77735 1.820312,1.71875 2.835937,2.82422 l -1.069335,0.9961 c -0.990235,-1.07813 -1.911133,-1.9961 -2.762696,-2.75391 -1.050781,1.08008 -2.274414,2.06348 -3.670898,2.95019 -0.205078,-0.45312 -0.5625,-0.82617 -1.072266,-1.11914 1.660156,-1.00976 2.896485,-1.92089 3.708985,-2.73339 -0.810547,-0.68165 -1.792969,-1.42383 -2.947266,-2.22657 l 0.837891,-1.19238 c 1.205078,0.83203 2.238281,1.61426 3.099609,2.34668 0.619141,-0.76563 1.275391,-1.71582 1.96875,-2.85059 z m 3.029297,-1.34472 c -0.04102,0.38476 -0.04102,0.76953 0,1.15429 -0.595703,-0.0234 -1.098633,-0.0352 -1.508789,-0.0352 h -8.200196 v 8.33789 h 9.878907 v 1.08398 H 40.773438 l -0.01172,-10.50586 h 9.553711 c 0.410156,0 0.913086,-0.0117 1.50879,-0.0351 z m 11.296875,1.5791 -1.198242,0.64746 -1.001954,-1.80762 1.212891,-0.65918 z m -2.487305,6.15234 c -0.498047,-1.42187 -0.725586,-3.05957 -0.682617,-4.91308 h -2.90918 c -0.371094,0 -0.835937,0.0117 -1.394531,0.0352 0.0293,-0.37695 0.0293,-0.7539 0,-1.13086 0.558594,0.0234 1.023437,0.0352 1.394531,0.0352 h 2.900391 l -0.02344,-2.20898 c 0.457032,0.0508 0.915039,0.0508 1.374024,0 l -0.03809,2.20898 h 1.224609 c 0.371094,0 0.835938,-0.0117 1.394531,-0.0352 -0.0293,0.37696 -0.0293,0.75391 0,1.13086 -0.558593,-0.0234 -1.023437,-0.0352 -1.394531,-0.0352 h -1.233398 c -0.02734,1.43164 0.03613,2.4414 0.190429,3.02929 0.150391,-0.43359 0.282227,-1.11328 0.395508,-2.03906 0.470703,0.0937 0.954102,0.14063 1.450196,0.14063 -0.21875,1.50195 -0.628907,2.79296 -1.230469,3.87304 0.248047,0.58985 0.452148,0.97949 0.612305,1.16895 0,-0.0488 -0.02637,-0.48145 -0.0791,-1.29785 0.5,0.32226 0.962891,0.47851 1.388672,0.46875 0.07617,0.91601 0.06738,1.75195 -0.02637,2.50781 0,0.15039 -0.05762,0.29687 -0.172852,0.43945 -0.285156,0.25977 -0.59375,0.27832 -0.925781,0.0557 -0.75,-0.73243 -1.28711,-1.42383 -1.611328,-2.07422 -0.578125,0.83008 -1.466797,1.6123 -2.666016,2.34668 -0.189453,-0.42188 -0.522461,-0.7793 -0.999023,-1.07227 0.753906,-0.42773 1.380859,-0.85742 1.880859,-1.28906 0.5,-0.43164 0.893555,-0.87988 1.180664,-1.34473 z m -5.402344,1.21289 c 1.28125,-0.21679 2.336914,-0.47461 3.166993,-0.77343 l 1.672851,-0.62989 0.09668,1.00196 c -1.773438,0.70898 -3.21875,1.33789 -4.335938,1.88671 -0.04883,-0.5371 -0.249023,-1.03222 -0.600586,-1.48535 z m 2.247071,-1.11035 h -1.294922 v -4.22461 l 3.380859,0.0117 v 4.21289 h -1.294922 v -0.57422 h -0.791015 v 0.57422 z m 0.791015,-3.16406 h -0.791015 v 1.57617 h 0.791015 z m -6.483398,3.68262 c 0.787109,-0.23633 1.393555,-0.46192 1.819336,-0.67676 v -3.7793 H 53.31543 c -0.306641,0 -0.716797,0.0186 -1.230469,0.0557 0.04297,-0.39063 0.04395,-0.78516 0.0029,-1.1836 0.511718,0.0371 0.920898,0.0557 1.227539,0.0557 h 0.290039 v -1.15723 c 0,-0.54297 -0.01563,-1.18066 -0.04687,-1.91309 0.416015,0.0527 0.832031,0.0527 1.248047,0 -0.03125,0.73243 -0.04687,1.37012 -0.04687,1.91309 v 1.15137 l 1.330078,-0.0352 c -0.02734,0.38867 -0.02637,0.77344 0.0029,1.1543 l -1.333007,-0.0352 v 3.14063 l 1.110351,-0.65625 0.166992,1.04296 c -1.085937,0.65821 -1.868164,1.14551 -2.346679,1.46192 l -1.303711,0.93164 c -0.09961,-0.58789 -0.299805,-1.07813 -0.600586,-1.4707 z"
       style="fill:#000000;fill-opacity:1;fill-rule:nonzero;stroke:none"
       transform="matrix(0.8814374,0,0,0.8814374,26.016249,9.9999996)"
       clip-path="url(#clipPath52)" />
    <g
       id="g52" />
    <path
       id="path53"
       d="m 1.9165813,-0.35554202 c 0,0.57611862 0.00886,1.1611006 0.035454,1.75494592 -0.3190811,-0.02659 -0.6381622,-0.02659 -0.95724327,0 C 1.030245,0.80555858 1.0479717,0.2205766 1.0479717,-0.35554202 V -7.4107793 h 4.1835075 v -0.6736156 c 0,-0.5894137 -0.017727,-1.1788273 -0.05318,-1.7726727 0.3190811,0.035454 0.6381622,0.035454 0.9572433,0 -0.02659,0.5938454 -0.035454,1.183259 -0.035454,1.7726727 v 0.6736156 h 4.6798565 v 7.56931236 c 0,0.51850675 -0.177268,0.87747294 -0.531802,1.08133034 -0.3899884,0.1994257 -0.966107,0.3013543 -1.7194929,0.3013543 0.093065,-0.416578 0,-0.77111257 -0.2836276,-1.06360356 0.2570375,0.0221584 0.5583919,0.0354535 0.904063,0.0354535 0.3412395,0.008863 0.5583919,-0.0177267 0.6558889,-0.0886336 0.070907,-0.097497 0.1063604,-0.3146494 0.1063604,-0.65588889 V -6.6662567 h -3.811246 v 0.6913423 l 1.8081262,1.8613063 1.7903994,1.9676667 -0.7267958,0.6381621 -1.754946,-1.9499399 -1.294051,-1.3295045 C 5.6746474,-3.8388438 5.1960258,-3.001256 4.4869567,-2.2700285 3.786751,-1.5476644 2.9801849,-1.0335893 2.0583951,-0.72780328 2.031805,-0.83416364 1.9874882,-0.93166064 1.9165813,-1.0291576 Z M 5.2314792,-6.6662567 H 1.9165813 v 5.0166636 c 0.9572433,-0.3279444 1.7460826,-0.904063 2.3753814,-1.7194925 0.6248671,-0.8154294 0.9395165,-1.7372192 0.9395165,-2.7653693 z m 18.2718238,3.7403393 c -0.02659,0.2481742 -0.02659,0.4963483 0,0.7445225 -0.460895,-0.022158 -0.917358,-0.035453 -1.364958,-0.035453 h -1.89676 v 2.57037535 c 0,0.29249099 -0.115224,0.54952853 -0.336808,0.76224925 -0.345671,0.292491 -0.957243,0.4343048 -1.843579,0.4254414 0.09306,-0.3899879 0.0044,-0.73565912 -0.265901,-1.02815011 0.248174,0.0354535 0.549528,0.0531802 0.904063,0.0531802 0.354534,0 0.558392,-0.0265901 0.620435,-0.0709069 0.05761,-0.0487485 0.08863,-0.17283558 0.08863,-0.37226126 V -2.2168479 h -1.772673 c -0.452031,0 -0.904063,0.013295 -1.364958,0.035453 0.02216,-0.2481742 0.02216,-0.4963483 0,-0.7445225 0.460895,0.02659 0.912927,0.035454 1.364958,0.035454 h 1.772673 v -1.169964 l 1.489045,-1.4181382 h -2.375381 c -0.460895,0 -0.92179,0.013295 -1.382685,0.035454 0.02216,-0.2348791 0.02216,-0.4786216 0,-0.7267958 0.460895,0.02659 0.92179,0.035454 1.382685,0.035454 h 3.704885 l 0.07091,0.7622492 c -0.203857,0.035454 -0.381124,0.1240871 -0.531801,0.2659009 l -1.524499,1.4181381 v 0.7977028 h 1.89676 c 0.4476,0 0.904063,-0.00886 1.364958,-0.035454 z m -8.012481,4.3607748 c -0.310217,-0.02659 -0.616003,-0.02659 -0.921789,0 0.02216,-0.56725527 0.03545,-1.14337389 0.03545,-1.71949251 V -3.4577192 c -0.545097,0.6292988 -1.116784,1.1876907 -1.719493,1.684039 -0.190562,-0.305786 -0.443168,-0.5229384 -0.762249,-0.6558889 0.957243,-0.7666809 1.777105,-1.5510885 2.464015,-2.3576546 -0.0133,-0.1861306 -0.01773,-0.3633979 -0.01773,-0.5318018 0.141813,0.013295 0.283627,0.017727 0.425441,0.017727 0.505212,-0.682479 0.930653,-1.4092748 1.276324,-2.1803874 h -2.074027 c -0.460895,0 -0.92179,0.013295 -1.382684,0.035454 0.02216,-0.2570376 0.02216,-0.5052117 0,-0.7445225 0.460894,0.02659 0.921789,0.035453 1.382684,0.035453 h 2.357655 c 0.270333,-0.6115721 0.478622,-1.1167838 0.620435,-1.5067718 0.305786,0.1418138 0.624867,0.2570376 0.957244,0.3368078 -0.155109,0.389988 -0.327945,0.779976 -0.514075,1.169964 h 4.289867 c 0.460895,0 0.912927,-0.00886 1.364958,-0.035453 -0.02659,0.2393108 -0.02659,0.4874849 0,0.7445225 -0.452031,-0.022158 -0.904063,-0.035454 -1.364958,-0.035454 h -4.608949 c -0.545096,1.0768987 -1.152237,2.0651637 -1.825852,2.9603634 l -0.01773,4.23668769 c 0,0.57611862 0.0089,1.15223724 0.03545,1.71949251 z M 32.61484,-7.9425811 c 0.283628,0.2127207 0.584982,0.3988514 0.904063,0.5495286 -0.735659,1.0414452 -1.484613,1.9942567 -2.251294,2.854003 0.992697,0.8863363 1.936645,1.8169895 2.836276,2.7830961 l -0.709069,0.6736156 c -0.877473,-0.9661066 -1.803694,-1.8834647 -2.783096,-2.7476427 -1.147805,1.183259 -2.331064,2.158229 -3.545345,2.92490995 -0.155109,-0.32794445 -0.385556,-0.58498195 -0.691342,-0.76224925 1.427001,-0.8730413 2.623555,-1.7903994 3.580798,-2.7476426 -0.957243,-0.8021344 -1.945508,-1.559952 -2.960363,-2.2690211 l 0.549529,-0.7799759 c 1.063603,0.7356591 2.08289,1.5200668 3.066723,2.3576546 0.731228,-0.9084947 1.400412,-1.8524429 2.00312,-2.8362763 z m 2.676736,-1.4535916 c -0.02659,0.2127208 -0.02659,0.4210098 0,0.6204355 -0.403283,-0.00886 -0.810998,-0.017727 -1.223144,-0.017727 h -8.455649 v 8.84563669 h 9.891514 V 0.63715468 H 24.779627 L 24.7619,-9.3784459 h 9.306532 c 0.412146,0 0.819861,-0.00443 1.223144,-0.017727 z m 11.256472,1.2231442 -0.76225,0.4077147 -0.762249,-1.3826847 0.762249,-0.4077147 z m -1.879033,6.2752613 c -0.522939,-1.462455 -0.757818,-3.1952425 -0.709069,-5.193931 h -3.155358 c -0.381124,0 -0.757817,0.00886 -1.13451,0.017727 0.02216,-0.1994256 0.02216,-0.3988513 0,-0.6027087 0.376693,0.013295 0.753386,0.017727 1.13451,0.017727 h 3.155358 l -0.03545,-2.1803874 c 0.292491,0.035453 0.584982,0.035453 0.86861,0 l -0.03545,2.1803874 h 1.489045 c 0.363398,0 0.735659,-0.00443 1.116784,-0.017727 -0.0133,0.2038574 -0.0133,0.4032831 0,0.6027087 -0.381125,-0.00886 -0.753386,-0.017727 -1.116784,-0.017727 h -1.489045 c -0.02659,1.6219955 0.110792,2.9958168 0.407715,4.1303273 0.327944,-0.9661066 0.540665,-1.8302845 0.638162,-2.5881021 0.305786,0.062044 0.624867,0.088634 0.957243,0.088634 -0.190562,1.2763243 -0.598277,2.4817417 -1.223144,3.6162522 0.283628,0.6869107 0.660321,1.30734613 1.134511,1.86130634 0,-0.50521171 -0.01773,-1.01042342 -0.05318,-1.50677174 0.270332,0.1772672 0.567255,0.2614692 0.886336,0.2481741 0.05761,0.74452257 0.03988,1.48904509 -0.05318,2.23356761 0,0.10636039 -0.03545,0.19942569 -0.106361,0.28362759 -0.177267,0.1639723 -0.372261,0.1772673 -0.584982,0.035454 C 46.038404,0.61056459 45.457854,-0.17827475 45.023549,-1.0646111 44.31448,-0.02316589 43.450302,0.8011269 42.435447,1.4171307 42.302497,1.120208 42.098639,0.88532885 41.815012,0.70806158 42.346813,0.41113891 42.86532,0.04330933 43.374964,-0.39099547 43.89347,-0.83859532 44.323343,-1.3393754 44.669015,-1.8977672 Z m -5.229385,1.36495791 c 1.02815,-0.17726727 1.958803,-0.41657808 2.800823,-0.72679581 l 1.364958,-0.5140751 0.05318,0.4963484 c -1.666312,0.66475224 -2.9515,1.21871245 -3.8467,1.6663123 -0.03545,-0.34567117 -0.15954,-0.64702552 -0.372261,-0.92178979 z m 1.542225,-1.54222521 h -0.797702 v -3.7226126 h 2.889456 v 3.7226126 h -0.797703 v -0.5672553 h -1.294051 z m 1.294051,-3.1730841 h -1.294051 v 2.074027 h 1.294051 z m -6.310714,4.0771471 c 0.567255,-0.1772672 1.116784,-0.3944196 1.648585,-0.6558888 v -4.1835076 h -0.531801 c -0.319082,0 -0.638163,0.013295 -0.957244,0.035454 0.02216,-0.2127207 0.02216,-0.4298731 0,-0.6558889 0.319081,0.02659 0.638162,0.035454 0.957244,0.035454 h 0.531801 v -1.4004115 c 0,-0.5406651 -0.01329,-1.085762 -0.03545,-1.6308588 0.234879,0.035453 0.478621,0.035453 0.726796,0 -0.02659,0.5450968 -0.03545,1.0901937 -0.03545,1.6308588 v 1.4004115 l 1.311778,-0.035454 c -0.01329,0.2260158 -0.01329,0.4431682 0,0.6558889 l -1.311778,-0.035454 v 3.828973 l 1.169964,-0.6913423 0.08863,0.5140751 c -0.992697,0.6027087 -1.732788,1.0636036 -2.215841,1.38268464 l -0.992697,0.70906907 c -0.06204,-0.3633979 -0.181699,-0.66475225 -0.354534,-0.90406311 z m 0,0"
       style="fill:#000000;fill-opacity:0;fill-rule:nonzero;stroke:none"
       aria-label="内存区域"
       transform="matrix(0.8814374,0,0,0.8814374,40.119247,172.18448)"
       clip-path="url(#clipPath54)" />
    <path
       id="path55"
       d="m 20.0625,64.300781 h -0.336914 c -0.417969,0 -0.935547,0.01758 -1.552734,0.05273 0.05469,-0.404297 0.05469,-0.806641 0,-1.207032 0.617187,0.02344 1.134765,0.03516 1.552734,0.03516 h 1.655273 v 4.933593 c 0.22461,0.212891 0.497071,0.367188 0.817383,0.462891 0.322266,0.0957 0.576172,0.164063 0.761719,0.205078 0.1875,0.04102 0.454102,0.07519 0.799805,0.102539 0.345703,0.02539 0.642578,0.0459 0.890625,0.06152 l 2.399414,0.105468 c 0.964843,0.05469 1.905273,0.08203 2.821289,0.08203 -0.396485,0.484375 -0.59961,0.947265 -0.609375,1.388672 l -3.688477,-0.164063 c -0.478515,-0.02344 -0.822265,-0.04297 -1.03125,-0.05859 -0.208984,-0.01563 -0.492187,-0.04199 -0.849609,-0.0791 -0.357422,-0.03516 -0.616211,-0.06836 -0.776367,-0.09961 -1.087891,-0.171875 -2.011719,-0.624023 -2.771485,-1.356445 l 0.459961,-0.108398 c -0.582031,0.597656 -1.139648,1.157226 -1.672851,1.678711 -0.177735,-0.554688 -0.526368,-1.055665 -1.045899,-1.50293 0.869141,-0.113281 1.594727,-0.364258 2.176758,-0.75293 v -3.779297 z m 0.676758,-2.481445 C 20.22168,61.05957 19.652344,60.345703 19.03125,59.677734 l 1.037109,-0.943359 c 0.667969,0.714844 1.278321,1.477539 1.831055,2.288086 z m 7.21875,6.999023 c -0.480469,-0.05078 -0.960938,-0.05078 -1.441406,0 0.04102,-0.74414 0.06152,-1.395507 0.06152,-1.954101 v -2.024414 h -1.397461 c 0.04687,0.898437 -0.199219,1.733398 -0.738281,2.504883 -0.482422,0.716796 -1.21582,1.246093 -2.200195,1.58789 -0.123047,-0.43164 -0.503907,-0.823242 -1.142579,-1.174804 1.046875,-0.201172 1.766602,-0.543946 2.15918,-1.028321 0.443359,-0.535156 0.644531,-1.165039 0.603516,-1.889648 h -0.75 c -0.417969,0 -0.932617,0.01172 -1.543946,0.03516 0.04297,-0.400391 0.04297,-0.801758 0,-1.204102 0.611329,0.0332 1.125977,0.0498 1.543946,0.0498 h 0.735351 V 62.003905 H 23.59277 c -0.410156,0 -0.920898,0.0166 -1.532226,0.0498 0.04297,-0.402344 0.04297,-0.803711 0,-1.204102 0.611328,0.02344 1.12207,0.03516 1.532226,0.03516 h 0.254883 v -0.325196 c 0,-0.550781 -0.01563,-1.198242 -0.04687,-1.942382 0.470703,0.05078 0.946289,0.05078 1.426758,0 -0.04102,0.74414 -0.06152,1.391601 -0.06152,1.942382 v 0.325196 h 1.412109 v -0.325196 c 0,-0.550781 -0.02051,-1.198242 -0.06152,-1.942382 0.480468,0.05078 0.960937,0.05078 1.441406,0 -0.04102,0.74414 -0.06152,1.391601 -0.06152,1.942382 v 0.325196 h 0.477539 c 0.417969,0 0.932618,-0.01172 1.543946,-0.03516 -0.04297,0.400391 -0.04297,0.801758 0,1.204102 -0.611328,-0.0332 -1.125977,-0.0498 -1.543946,-0.0498 h -0.477539 v 1.716797 h 0.594727 c 0.417969,0 0.935547,-0.01758 1.552734,-0.05273 -0.05469,0.404297 -0.05469,0.80664 0,1.207031 -0.617187,-0.02344 -1.134765,-0.03516 -1.552734,-0.03516 h -0.594727 v 2.024414 c 0,0.558594 0.02051,1.209961 0.06152,1.954101 z m -7.271485,-0.357421 -0.07031,0.08496 0.123047,0.02637 -0.05273,-0.111328 z m 5.891602,-4.740235 v -1.716797 h -1.412109 v 1.716797 z m 15.553711,5.25586 c -0.04297,0.380859 -0.04297,0.755859 0,1.125 -0.558594,-0.02344 -1.019531,-0.03516 -1.382813,-0.03516 h -4.289062 c -0.363281,0 -0.824219,0.01172 -1.382813,0.03516 0.04297,-0.369141 0.04297,-0.744141 0,-1.125 0.560547,0.03516 1.021485,0.05273 1.382813,0.05273 h 1.450195 v -1.505859 h -0.665039 c -0.361328,0 -0.822265,0.01758 -1.382812,0.05273 0.04297,-0.380859 0.04297,-0.755859 0,-1.125 0.558593,0.02344 1.019531,0.03516 1.382812,0.03516 h 0.665039 V 65.21484 h -0.887695 c -0.361328,0 -0.822266,0.01758 -1.382813,0.05273 0.04297,-0.380859 0.04297,-0.755859 0,-1.125 0.558594,0.02344 1.019532,0.03516 1.382813,0.03516 h 3.164062 c 0.363282,0 0.824219,-0.01172 1.382813,-0.03516 -0.04297,0.369141 -0.04297,0.744141 0,1.125 -0.560547,-0.03516 -1.021484,-0.05273 -1.382813,-0.05273 h -0.993164 v 1.271484 h 0.887696 c 0.363281,0 0.816406,-0.01172 1.359375,-0.03516 -0.0293,0.369141 -0.0293,0.744141 0,1.125 -0.544922,-0.03516 -0.998047,-0.05273 -1.359375,-0.05273 h -0.887696 v 1.505859 h 1.555664 c 0.361329,0 0.822266,-0.01758 1.382813,-0.05273 z m -4.708008,-5.15625 h -1.283203 v -4.294922 h 5.068359 v 4.294922 h -1.283203 v -0.574219 h -2.501953 z m 2.501953,-3.246094 h -2.501953 v 1.68164 h 2.501953 z m -3.899414,0.386719 -1.918945,0.146484 v 1.253906 h 0.383789 c 0.417969,0 0.933594,-0.0166 1.546875,-0.0498 -0.04297,0.386719 -0.04395,0.772461 -0.0029,1.157227 -0.611328,-0.02344 -1.125976,-0.03516 -1.543945,-0.03516 h -0.383789 l -0.07324,0.313476 0.140625,-0.199218 1.702148,1.96289 -1.154297,0.84668 -0.615234,-0.706055 v 2.806641 c 0,0.542969 0.02148,1.177734 0.06445,1.904297 -0.498047,-0.04883 -0.994141,-0.04883 -1.488281,0 0.03125,-0.726563 0.04687,-1.361328 0.04687,-1.904297 l 0.231445,-3.275391 0.205078,0.105469 c -0.273437,0.474609 -0.65332,1.081055 -1.139648,1.819336 l -0.861328,1.274414 c -0.314453,-0.267578 -0.750977,-0.43457 -1.309571,-0.500977 0.753907,-1.039062 1.424805,-2.112304 2.012696,-3.219726 l 0.659179,-1.227539 H 31.81936 c -0.417969,0 -0.936523,0.01172 -1.555664,0.03516 0.04102,-0.384766 0.04004,-0.770508 -0.0029,-1.157227 0.621094,0.0332 1.140625,0.0498 1.558594,0.0498 h 0.911133 v -1.11914 l -1.523438,0.205078 -0.846679,-1.277344 c 0.566406,0 0.972656,0.01172 1.21875,0.03516 0.316406,0.01563 0.826171,-0.02637 1.529296,-0.125976 0.97461,-0.132813 1.876954,-0.309571 2.707032,-0.530274 0.02344,0.5 0.09375,0.970703 0.210937,1.41211 z m 18.008789,-0.416016 c -0.04883,0.462891 -0.04883,0.921875 0,1.376953 -0.71289,-0.03125 -1.333008,-0.04687 -1.860351,-0.04687 h -5.938477 v 1.412109 h 6.993164 l -0.442383,5.797852 c -0.0293,0.408203 -0.18457,0.725586 -0.46582,0.952148 -0.28125,0.226563 -0.583008,0.375 -0.905273,0.445313 -0.337891,0.06641 -0.958008,0.09473 -1.860352,0.08496 0.0957,-0.367188 0.118164,-0.623047 0.06738,-0.767578 -0.05078,-0.142578 -0.321289,-0.431641 -0.811524,-0.867188 0.81836,0.08008 1.4375,0.116211 1.857422,0.108399 0.421875,-0.0078 0.657227,-0.02832 0.706055,-0.06152 0.02148,-0.01367 0.03711,-0.103515 0.04687,-0.269531 l 0.319336,-4.151367 h -6.893555 v -3.870117 c 0,-0.597657 -0.01563,-1.28711 -0.04687,-2.06836 0.494141,0.04883 0.993164,0.04883 1.497071,0 -0.04102,0.78125 -0.06152,1.470703 -0.06152,2.06836 h -0.09668 l 6.035157,-0.09668 c 0.527343,0 1.147461,-0.01563 1.860351,-0.04687 z m -2.964843,5.191406 c -0.04883,0.455078 -0.04883,0.914063 0,1.376953 -0.712891,-0.03125 -1.333008,-0.04687 -1.860352,-0.04687 h -5.167969 c -0.527344,0 -1.147461,0.01563 -1.860351,0.04687 0.04883,-0.46289 0.04883,-0.921875 0,-1.376953 0.71289,0.03125 1.333007,0.04687 1.860351,0.04687 h 5.167969 c 0.527344,0 1.147461,-0.01563 1.860352,-0.04687 z M 66.09668,64.939453 c -0.04297,0.376953 -0.04297,0.753906 0,1.13086 -0.566407,-0.02344 -1.039063,-0.03516 -1.417969,-0.03516 h -0.729492 c -0.234375,0.632813 -0.524414,1.182617 -0.870117,1.649414 0.820312,0.398438 1.74707,1.015625 2.780273,1.851563 -0.392578,0.320312 -0.737305,0.674805 -1.03418,1.063476 -0.896484,-0.851562 -1.762695,-1.483398 -2.598632,-1.895507 -0.955079,1.013671 -2.194336,1.643554 -3.717774,1.889648 -0.271484,-0.4375 -0.935547,-0.861328 -1.992187,-1.271484 2.277343,-0.167969 3.754882,-0.561524 4.432617,-1.180664 -0.34375,-0.136719 -0.922852,-0.290039 -1.737305,-0.459961 l 0.609375,-1.646485 h -0.509766 c -0.378906,0 -0.851562,0.01172 -1.417968,0.03516 0.04297,-0.376954 0.04297,-0.753907 0,-1.13086 0.566406,0.02344 1.039062,0.03516 1.417968,0.03516 h 0.919922 l 0.413086,-1.037109 h -1.168945 c -0.369141,0 -0.833984,0.01758 -1.394531,0.05273 0.0293,-0.388671 0.0293,-0.773437 0,-1.154296 0.560547,0.03516 1.02539,0.05273 1.394531,0.05273 h 0.700195 l -0.896484,-1.587891 0.251953,-0.05859 -0.864258,0.102539 c 0.04297,-0.375 0.04297,-0.756836 0,-1.145508 0.56836,0.03516 1.041016,0.05273 1.417969,0.05273 h 0.958008 l -0.802735,-1.037109 1.083985,-0.84668 1.394531,1.813477 -0.225586,0.117187 1.529297,-0.04687 c 0.369141,0 0.841797,-0.01758 1.417969,-0.05273 -0.04297,0.388672 -0.04297,0.773437 0,1.154297 -0.576172,-0.03516 -1.048828,-0.05273 -1.417969,-0.05273 L 63.75,61.160156 c 0.0332,-0.0918 0.249023,-0.07324 0.647461,0.05566 -0.316406,0.708985 -0.62207,1.266602 -0.916992,1.672852 h 0.975586 c 0.36914,0 0.833984,-0.01758 1.394531,-0.05273 -0.0293,0.380859 -0.0293,0.765625 0,1.154296 -0.560547,-0.03516 -1.025391,-0.05273 -1.394531,-0.05273 l -1.790039,-0.09082 -0.09375,0.301758 c -0.166016,-0.16602 -0.21875,-0.279301 -0.158203,-0.339848 L 61.713867,63.75 c 0.03906,-0.121094 0.246094,-0.131836 0.621094,-0.03223 -0.351563,0.625 -0.575195,1.043946 -0.670898,1.256836 h 3.014648 c 0.378906,0 0.851562,-0.01172 1.417969,-0.03516 z m -3.635742,1.095703 h -1.259766 c -0.113281,0.269532 -0.209961,0.518555 -0.290039,0.747071 0.310547,0.09375 0.636719,0.211914 0.978515,0.354492 0.271485,-0.351563 0.461915,-0.71875 0.57129,-1.101563 z m -0.56836,-3.146484 c 0.363281,-0.498047 0.679688,-1.027344 0.949219,-1.587891 h -1.989258 l 0.919922,1.614258 -0.254883,0.05273 0.375,-0.0791 z m -8.085937,2.387695 c 1.03125,-0.195312 1.830078,-0.402344 2.396484,-0.621094 v -2.077148 h -0.524414 c -0.378906,0 -0.859375,0.01172 -1.441406,0.03516 0.04297,-0.36914 0.04297,-0.742187 0,-1.11914 0.582031,0.02344 1.0625,0.03516 1.441406,0.03516 h 0.524414 V 60.73536 c 0,-0.527344 -0.02148,-1.151368 -0.06445,-1.872071 0.482422,0.05078 0.962891,0.05078 1.441406,0 -0.03125,0.720703 -0.04687,1.344727 -0.04687,1.872071 v 0.791015 L 58.948242,61.5 c -0.0293,0.373047 -0.0293,0.742188 0,1.107422 l -1.415039,-0.02637 v 1.538086 l 1.116211,-0.480469 0.166992,0.981445 -1.283203,0.588867 v 3.75293 c 0,0.791016 -0.314453,1.291992 -0.943359,1.50293 -0.462891,0.15039 -1.041992,0.197265 -1.737305,0.140625 0.07617,-0.494141 -0.162109,-0.991211 -0.714844,-1.491211 0.740235,0.06836 1.25,0.104492 1.529297,0.108398 0.28125,0.0039 0.44043,-0.0088 0.477539,-0.03809 0.03906,-0.0293 0.05859,-0.205078 0.05859,-0.527343 v -2.8125 l -0.164062,0.08203 -1.464844,0.776367 c -0.105469,-0.53125 -0.361328,-1.006836 -0.767578,-1.426758 z m 14.920898,5.214844 c -0.496094,-0.04883 -0.991211,-0.04883 -1.485351,0 0.03125,-0.773438 0.04687,-1.455078 0.04687,-2.044922 l 0.01172,-8.393555 h 9.111328 v 10.388672 h -1.365234 v -1.851562 l -6.524414,-0.143555 h 0.143555 c 0,0.589844 0.02051,1.271484 0.06152,2.044922 z m 6.319336,-9.202148 h -6.380859 v 6.052734 h 6.380859 z m 11.748047,-0.85254 c 0.414062,0.322266 0.861328,0.600586 1.341797,0.834961 -0.851563,1.207032 -1.608399,2.181641 -2.270508,2.923829 0.875,0.777343 1.820312,1.71875 2.835937,2.824218 l -1.069335,0.996094 C 86.642578,66.9375 85.72168,66.019531 84.870117,65.261719 c -1.050781,1.080078 -2.274414,2.063476 -3.670898,2.950195 -0.205078,-0.453125 -0.5625,-0.826172 -1.072266,-1.119141 1.660156,-1.009765 2.896485,-1.920898 3.708985,-2.733398 -0.810547,-0.681641 -1.792969,-1.423828 -2.947266,-2.226562 l 0.837891,-1.192383 c 1.205078,0.832031 2.238281,1.614258 3.099609,2.346679 0.619141,-0.765625 1.275391,-1.71582 1.96875,-2.850586 z m 3.029297,-1.344726 c -0.04102,0.384766 -0.04102,0.769531 0,1.154297 -0.595703,-0.02344 -1.098633,-0.03516 -1.508789,-0.03516 h -8.200196 v 8.33789 h 9.878907 v 1.083985 H 78.773438 l -0.01172,-10.50586 h 9.553711 c 0.410156,0 0.913086,-0.01172 1.508789,-0.03516 z m 11.296871,1.579101 -1.198238,0.647461 -1.001954,-1.807617 1.212892,-0.659179 z m -2.487301,6.152344 c -0.498047,-1.421875 -0.725586,-3.05957 -0.682617,-4.913086 h -2.90918 c -0.371094,0 -0.835937,0.01172 -1.394531,0.03516 0.0293,-0.376954 0.0293,-0.753907 0,-1.13086 0.558594,0.02344 1.023437,0.03516 1.394531,0.03516 h 2.900391 l -0.02344,-2.208984 c 0.457032,0.05078 0.915039,0.05078 1.374024,0 l -0.03809,2.208984 h 1.224603 c 0.3711,0 0.83594,-0.01172 1.39453,-0.03516 -0.0293,0.376953 -0.0293,0.753906 0,1.13086 -0.55859,-0.02344 -1.02343,-0.03516 -1.39453,-0.03516 h -1.233392 c -0.02734,1.431641 0.03613,2.441407 0.190429,3.029297 0.150391,-0.433594 0.282227,-1.113281 0.395508,-2.039062 0.470695,0.09375 0.954095,0.140625 1.450195,0.140625 -0.21875,1.501953 -0.62891,2.792968 -1.23047,3.873047 0.24805,0.589843 0.45215,0.979492 0.6123,1.168945 0,-0.04883 -0.0264,-0.481445 -0.0791,-1.297852 0.5,0.322266 0.96289,0.478516 1.38867,0.46875 0.0762,0.916016 0.0674,1.751953 -0.0264,2.507813 0,0.15039 -0.0576,0.296875 -0.17286,0.439453 -0.28515,0.259766 -0.59375,0.27832 -0.92578,0.05566 -0.75,-0.732422 -1.287103,-1.423828 -1.611321,-2.074219 -0.578125,0.830078 -1.466797,1.612305 -2.666016,2.34668 -0.189453,-0.421875 -0.522461,-0.779297 -0.999023,-1.072266 0.753906,-0.427734 1.380859,-0.857422 1.880859,-1.289062 0.5,-0.431641 0.893555,-0.879883 1.180664,-1.344727 z m -5.402344,1.212891 c 1.28125,-0.216797 2.336914,-0.47461 3.166993,-0.773438 l 1.672851,-0.629882 0.09668,1.001953 c -1.773438,0.708984 -3.21875,1.33789 -4.335938,1.886718 -0.04883,-0.537109 -0.249023,-1.032226 -0.600586,-1.485351 z m 2.247071,-1.110352 h -1.294922 v -4.224609 l 3.380859,0.01172 v 4.21289 h -1.294922 v -0.574218 h -0.791015 z m 0.791015,-3.164062 h -0.791015 v 1.576172 h 0.791015 z m -6.483398,3.682617 c 0.787109,-0.236328 1.393555,-0.461914 1.819336,-0.676758 V 62.988281 H 91.31543 c -0.306641,0 -0.716797,0.01855 -1.230469,0.05566 0.04297,-0.390625 0.04394,-0.785156 0.0029,-1.183593 0.511718,0.03711 0.920898,0.05566 1.227539,0.05566 h 0.290039 v -1.157227 c 0,-0.542969 -0.01563,-1.180664 -0.04687,-1.913086 0.416015,0.05273 0.832031,0.05273 1.248047,0 -0.03125,0.732422 -0.04687,1.370117 -0.04687,1.913086 v 1.151367 l 1.330078,-0.03516 c -0.02734,0.388672 -0.02637,0.773438 0.0029,1.154297 l -1.333007,-0.03516 v 3.140625 l 1.110351,-0.65625 0.166992,1.042968 c -1.085937,0.658204 -1.868164,1.145508 -2.346679,1.461914 L 90.38667,68.915023 C 90.28706,68.327132 90.086865,67.836898 89.786084,67.44432 Z"
       style="fill:#000000;fill-opacity:1;fill-rule:nonzero;stroke:none"
       transform="matrix(0.8814374,0,0,0.8814374,26.016249,9.9999996)"
       clip-path="url(#clipPath56)" />
    <g
       id="g56" />
    <path
       id="path57"
       d="m 2.0570836,-4.6962982 h -0.584982 c -0.4165781,0 -0.83315616,0.013295 -1.25859761,0.035453 0.0354535,-0.2215841 0.0354535,-0.4475998 0,-0.6736156 0.42544145,0.013295 0.84201951,0.017727 1.25859761,0.017727 h 1.4181381 v 4.78621627 c 0.292491,0.29692267 0.6115721,0.49191666 0.9572433,0.58498198 0.3545345,0.10636036 0.6248671,0.17726727 0.8154294,0.21272072 0.1994257,0.0443168 0.4697583,0.0797703 0.8154294,0.10636036 0.3545346,0.0354535 0.6558889,0.0576119 0.9040631,0.0709069 L 8.7932397,0.5508129 C 9.7593464,0.6084248 10.530459,0.6394465 11.097714,0.6394465 10.884993,0.89648407 10.778633,1.1889751 10.778633,1.5080561 L 7.3396481,1.3662423 C 6.8654582,1.3396522 6.5242187,1.3174938 6.311498,1.2953354 6.1076406,1.2820404 5.8328764,1.259882 5.4783418,1.2244285 5.1238073,1.1889751 4.8667698,1.1535216 4.7160926,1.1180682 3.6746474,0.9629593 2.8547863,0.59512972 2.2520776,0.0190111 L 2.3584379,-0.08734926 C 1.6715273,0.37354563 1.1530205,0.77239698 0.79848598,1.1180682 0.69212562,0.77239698 0.5015633,0.48876935 0.23123072,0.26718527 0.76303252,0.19627836 1.3701729,-0.06962254 2.0570836,-0.53051743 Z M 2.5534319,-7.2844003 C 2.1279905,-7.9092674 1.6538005,-8.4986811 1.1352938,-9.057073 l 0.6736156,-0.6027087 c 0.5406652,0.5805503 1.0370135,1.2009857 1.489045,1.8613063 z m 6.8956967,7.07296395 c -0.3102177,-0.0354535 -0.6160037,-0.0354535 -0.9217898,0 0.035453,-0.55396021 0.05318,-1.10792045 0.05318,-1.66631235 V -4.1644964 H 6.6660325 C 6.7236444,-3.1452096 6.4976286,-2.2721683 5.9924169,-1.5409409 5.531522,-0.86732524 4.9199499,-0.39756698 4.1665641,-0.14052945 4.0690671,-0.46847389 3.8740731,-0.71664806 3.5815821,-0.88505197 4.2286076,-1.0002757 4.7737045,-1.3282201 5.2124409,-1.8600219 5.6954942,-2.4494356 5.908215,-3.2161165 5.8506031,-4.1644964 H 4.8579064 c -0.4165781,0 -0.8331562,0.013295 -1.2585976,0.035453 0.022158,-0.2348791 0.022158,-0.4653265 0,-0.6913423 0.4254414,0.02659 0.8420195,0.035453 1.2585976,0.035453 h 0.9926967 v -2.21584 H 5.336528 c -0.4165781,0 -0.8287245,0.013295 -1.2408708,0.035454 0.022158,-0.2215841 0.022158,-0.4475999 0,-0.6736157 0.4121463,0.013295 0.8242927,0.017727 1.2408708,0.017727 h 0.5140751 v -0.5672553 c 0,-0.5539602 -0.013295,-1.1079204 -0.035454,-1.6663123 0.292491,0.035453 0.5938454,0.035453 0.9040631,0 -0.035453,0.5583919 -0.05318,1.1123521 -0.05318,1.6663123 v 0.5672553 H 8.580519 v -0.5672553 c 0,-0.5539602 -0.017727,-1.1079204 -0.05318,-1.6663123 0.3057861,0.035453 0.6115721,0.035453 0.9217898,0 -0.035453,0.5583919 -0.05318,1.1123521 -0.05318,1.6663123 v 0.5672553 h 0.7267952 c 0.425442,0 0.850883,-0.00443 1.276325,-0.017727 -0.02659,0.2260158 -0.02659,0.4520316 0,0.6736157 -0.425442,-0.022159 -0.850883,-0.035454 -1.276325,-0.035454 H 9.3959485 v 2.2158408 h 0.8508825 c 0.425442,0 0.84202,-0.00886 1.258598,-0.035453 -0.02659,0.2260158 -0.02659,0.4564632 0,0.6913423 -0.416578,-0.022158 -0.833156,-0.035453 -1.258598,-0.035453 H 9.3959485 v 2.2867477 c 0,0.5583919 0.017727,1.11235214 0.05318,1.66631155 z m -7.0375105,0.0531802 0.1063604,-0.10636036 H 2.3761647 Z M 8.580519,-4.7849319 V -7.0007727 H 6.6660325 v 2.2158408 z m 15.032264,5.28256462 c -0.02659,0.19942567 -0.02659,0.39441967 0,0.58498198 C 23.231659,1.0693197 22.859397,1.064888 22.496,1.064888 h -4.289868 c -0.36783,0 -0.73566,0.00443 -1.099057,0.017727 0.02216,-0.19056231 0.02216,-0.38555631 0,-0.58498198 0.363397,0.0221584 0.731227,0.0354535 1.099057,0.0354535 h 1.701765 V -1.470034 h -0.904063 c -0.367829,0 -0.735659,0.013295 -1.099057,0.035454 0.02216,-0.2127207 0.02216,-0.4121464 0,-0.6027087 0.363398,0.013295 0.731228,0.017727 1.099057,0.017727 h 0.904063 v -1.7726727 h -1.13451 c -0.36783,0 -0.735659,0.013295 -1.099057,0.035454 0.02216,-0.1994257 0.02216,-0.3944197 0,-0.584982 0.363398,0.013295 0.731227,0.017727 1.099057,0.017727 h 3.173084 c 0.363398,0 0.731227,-0.00443 1.099057,-0.017727 -0.02659,0.1905623 -0.02659,0.3855563 0,0.584982 -0.36783,-0.022158 -0.735659,-0.035454 -1.099057,-0.035454 H 20.7056 v 1.7726727 h 1.134511 c 0.363398,0 0.726795,-0.00443 1.08133,-0.017727 -0.0133,0.1905623 -0.0133,0.389988 0,0.6027087 -0.354535,-0.022158 -0.717932,-0.035454 -1.08133,-0.035454 H 20.7056 v 2.00312017 h 1.7904 c 0.363397,0 0.735659,-0.013295 1.116783,-0.0354535 z M 18.932927,-5.1749198 h -0.797702 v -3.7935196 h 4.573495 v 3.7935196 h -0.779976 v -0.584982 h -2.995817 z m 2.995817,-3.243991 h -2.995817 v 2.1803874 h 2.995817 z m -4.467135,0.4077147 -1.843579,0.1418138 v 1.7372192 h 0.620435 c 0.425441,0 0.850883,-0.00886 1.276324,-0.035453 -0.02659,0.2038573 -0.02659,0.4077147 0,0.6204354 -0.425441,-0.00886 -0.850883,-0.017727 -1.276324,-0.017727 H 15.61803 v 0.9217898 l 0.2659,-0.2127208 1.382685,1.5776787 -0.744522,0.5495285 -0.904063,-1.0281501 v 3.45671171 c 0,0.55396022 0.0089,1.09905706 0.03545,1.63085889 -0.319081,-0.02659 -0.638162,-0.02659 -0.957243,0 0.02216,-0.53180183 0.03545,-1.07689867 0.03545,-1.63085889 V -3.6504213 l -0.03545,0.070907 c -0.261469,0.4608949 -0.633731,1.0636036 -1.116784,1.8081261 l -0.709069,1.02815015 c -0.212721,-0.17726727 -0.487485,-0.28362765 -0.81543,-0.31908105 0.602709,-0.8242928 1.196555,-1.7948311 1.7904,-2.9071832 l 0.850883,-1.5954054 h -1.116784 c -0.425441,0 -0.850883,0.00886 -1.276324,0.017727 0.02216,-0.2127207 0.02216,-0.4165781 0,-0.6204354 0.425441,0.02659 0.850883,0.035453 1.276324,0.035453 H 14.73169 V -7.7984754 L 13.083105,-7.568028 12.56903,-8.3302772 c 0.257037,0 0.505211,0.013295 0.744522,0.035453 0.327945,0.013295 0.855315,-0.02659 1.577679,-0.124087 0.992696,-0.1418139 1.808126,-0.292491 2.446288,-0.4608949 0.0089,0.3102177 0.05318,0.598277 0.124087,0.8686096 z m 18.041376,0.070907 c -0.02659,0.2836276 -0.02659,0.5672552 0,0.8508829 -0.522938,-0.022158 -1.045877,-0.035454 -1.577678,-0.035454 h -6.186628 v 1.9144865 h 6.966604 l -0.425442,5.53073875 c -0.02659,0.32794445 -0.155109,0.58941367 -0.389988,0.77997595 -0.239311,0.1994257 -0.496348,0.3279445 -0.779976,0.389988 -0.319081,0.057612 -0.815429,0.088634 -1.489045,0.088634 0.05761,-0.2127208 0.05318,-0.4165781 -0.01773,-0.60270876 -0.06204,-0.19056231 -0.15954,-0.35010285 -0.301354,-0.47862162 0.319081,0.0354535 0.700206,0.0443168 1.152237,0.0354535 0.4476,0 0.717933,-0.0354535 0.81543,-0.10636036 0.07977,-0.0620435 0.13295,-0.20828904 0.15954,-0.44316817 L 33.765766,-4.448124 h -6.913423 v -3.6162523 c 0,-0.6027087 -0.0133,-1.1965541 -0.03545,-1.7903994 0.319081,0.035453 0.642594,0.035453 0.97497,0 -0.03545,0.5938453 -0.05318,1.1876907 -0.05318,1.7903994 v 0.1595405 h 6.186628 c 0.531801,0 1.05474,-0.00886 1.577678,-0.035453 z m -2.960363,5.1939309 c -0.03545,0.2747643 -0.03545,0.5583919 0,0.8508829 -0.522939,-0.022158 -1.045877,-0.035453 -1.577679,-0.035453 h -5.176204 c -0.531802,0 -1.059172,0.013295 -1.577679,0.035453 0.03545,-0.292491 0.03545,-0.5761186 0,-0.8508829 0.518507,0.02659 1.045877,0.035454 1.577679,0.035454 h 5.176204 c 0.531802,0 1.05474,-0.00886 1.577679,-0.035454 z M 47.574886,-3.544061 c -0.02659,0.2038574 -0.02659,0.4032831 0,0.6027087 -0.381124,-0.00886 -0.762249,-0.017727 -1.152237,-0.017727 h -0.886336 c -0.274765,0.7223641 -0.633731,1.3826847 -1.081331,1.9853934 0.979402,0.47418994 1.901192,1.05474024 2.76537,1.75494595 C 46.972177,0.98068602 46.746162,1.2111335 46.546736,1.4726027 45.76676,0.72808017 44.889287,0.11650809 43.92318,-0.35325017 42.917189,0.71035344 41.73393,1.3529473 40.377835,1.5789631 40.138524,1.1889751 39.81058,0.90977912 39.385138,0.74580689 40.989407,0.62615149 42.248005,0.14752986 43.160931,-0.69005797 42.558223,-0.93823215 41.937787,-1.1243628 41.299625,-1.2573132 l 0.638162,-1.7017658 h -0.86861 c -0.389988,0 -0.775544,0.00886 -1.152237,0.017727 0.02216,-0.1994256 0.02216,-0.3988513 0,-0.6027087 0.376693,0.013295 0.762249,0.017727 1.152237,0.017727 h 1.081331 l 0.602709,-1.5422252 h -1.524499 c -0.381125,0 -0.757818,0.013295 -1.13451,0.035454 0.02216,-0.1994257 0.02216,-0.4077147 0,-0.6204355 0.376692,0.02659 0.753385,0.035454 1.13451,0.035454 h 1.116784 l -0.97497,-1.7372192 0.584982,-0.3368078 -1.258598,0.035453 c 0.02216,-0.2127207 0.02216,-0.4165781 0,-0.6204354 0.376693,0.02659 0.753386,0.035453 1.134511,0.035453 h 1.471318 l -0.957243,-1.2585976 0.691342,-0.5318016 1.08133,1.418138 -0.460894,0.3722612 h 2.10948 c 0.376693,0 0.762249,-0.00886 1.152237,-0.035453 -0.02659,0.2038573 -0.02659,0.4077147 0,0.6204354 -0.389988,-0.022158 -0.775544,-0.035453 -1.152237,-0.035453 h -0.655889 c 0.221584,0.1329504 0.452032,0.2304474 0.691343,0.3013543 -0.226016,0.5318018 -0.580551,1.1256472 -1.063604,1.7726727 h 1.471318 c 0.376693,0 0.748954,-0.00886 1.116784,-0.035454 -0.01329,0.2127208 -0.01329,0.4210098 0,0.6204355 -0.36783,-0.022158 -0.740091,-0.035454 -1.116784,-0.035454 h -1.879033 l -0.05318,0.070907 c -0.02659,-0.022158 -0.04875,-0.044317 -0.07091,-0.070907 h -1.02815 c 0.177267,0.084202 0.354535,0.1506772 0.531802,0.194994 -0.248174,0.4520315 -0.47419,0.8996314 -0.673616,1.3472312 h 3.385805 c 0.389988,0 0.771113,-0.00443 1.152237,-0.017727 z m -3.03127,0.584982 H 42.78867 c -0.155109,0.3678296 -0.301354,0.7533859 -0.443168,1.1522372 0.460895,0.1418139 0.92179,0.3102178 1.382684,0.4963484 0.363398,-0.4697583 0.638163,-1.0192868 0.81543,-1.6485856 z M 43.76364,-5.618088 c 0.425441,-0.5761186 0.833156,-1.267461 1.223144,-2.074027 h -2.818549 l 1.010423,1.7549459 -0.549529,0.3190811 z m -7.711126,2.3044745 c 0.744522,-0.1418138 1.458023,-0.3412395 2.144934,-0.6027087 v -2.4994685 h -0.76225 c -0.389987,0 -0.779975,0.00886 -1.169963,0.017727 0.02216,-0.1994257 0.02216,-0.3988513 0,-0.6027087 0.389988,0.02659 0.779976,0.035454 1.169963,0.035454 h 0.76225 v -1.0458769 c 0,-0.5318018 -0.01329,-1.0636036 -0.03545,-1.5954054 0.292491,0.035453 0.593846,0.035453 0.904063,0 -0.02659,0.5318018 -0.03545,1.0636036 -0.03545,1.5954054 v 1.0458769 l 1.400411,-0.035454 c -0.01329,0.2038574 -0.01329,0.403283 0,0.6027087 l -1.400411,-0.017727 v 2.1626606 l 1.169964,-0.4963483 0.08863,0.4786216 -1.258598,0.5672553 v 3.91760659 c 0,0.67361562 -0.257038,1.09019371 -0.762249,1.25859761 -0.438737,0.1418138 -0.899632,0.194994 -1.382685,0.1595405 0.07091,-0.403283 -0.02659,-0.72236408 -0.283628,-0.95724321 0.257038,0.0221584 0.540666,0.0354535 0.850883,0.0354535 0.305786,0.008863 0.505212,-0.0177267 0.602709,-0.0886336 0.09307,-0.0709069 0.141814,-0.31021772 0.141814,-0.70906907 V -3.2958868 l -0.514075,0.2481742 -1.187691,0.6204354 c -0.07091,-0.3545345 -0.221584,-0.6470255 -0.443168,-0.8863363 z m 14.163654,4.7862162 c -0.319081,-0.035454 -0.638162,-0.035454 -0.957243,0 0.02216,-0.59384536 0.03545,-1.18325902 0.03545,-1.77267269 V -8.4543643 h 8.615189 v 9.8915135 h -0.86861 v -1.84357955 h -6.87797 v 0.10636036 c 0,0.58941367 0.01773,1.17882733 0.05318,1.77267269 z m 6.82479,-9.1824445 h -6.87797 v 6.5588889 h 6.87797 z m 11.575553,-0.2304474 c 0.283627,0.2127207 0.584982,0.3988513 0.904063,0.5495285 -0.735659,1.0414452 -1.484613,1.9942568 -2.251294,2.854003 0.992696,0.8863364 1.936645,1.8169895 2.836276,2.7830961 l -0.709069,0.6736156 c -0.877473,-0.9661066 -1.803695,-1.8834647 -2.783096,-2.7476426 -1.147806,1.183259 -2.331065,2.158229 -3.545346,2.9249099 -0.155108,-0.3279444 -0.385556,-0.584982 -0.691342,-0.7622492 1.427002,-0.8730413 2.623556,-1.7903994 3.580799,-2.7476427 -0.957243,-0.8021344 -1.945508,-1.5599519 -2.960364,-2.269021 l 0.549529,-0.779976 c 1.063604,0.7356592 2.08289,1.5200668 3.066724,2.3576547 0.731227,-0.9084948 1.400411,-1.852443 2.00312,-2.8362763 z m 2.676736,-1.4535916 c -0.02659,0.2127207 -0.02659,0.4210097 0,0.6204354 -0.403283,-0.00886 -0.810998,-0.017727 -1.223145,-0.017727 h -8.455648 v 8.84563665 h 9.891513 V 0.63944653 H 60.781298 L 60.763571,-9.3761541 h 9.306531 c 0.412147,0 0.819862,-0.00443 1.223145,-0.017727 z m 11.252039,1.2231441 -0.762249,0.4077147 -0.762249,-1.3826846 0.762249,-0.4077148 z m -1.879033,6.2752613 c -0.522938,-1.462455 -0.757817,-3.1952425 -0.709069,-5.1939309 h -3.155357 c -0.381125,0 -0.757818,0.00886 -1.134511,0.017727 0.02216,-0.1994257 0.02216,-0.3988514 0,-0.6027087 0.376693,0.013295 0.753386,0.017727 1.134511,0.017727 h 3.155357 l -0.03545,-2.1803874 c 0.292491,0.035454 0.584982,0.035454 0.868609,0 l -0.03545,2.1803874 h 1.489045 c 0.363398,0 0.735659,-0.00443 1.116784,-0.017727 -0.01329,0.2038573 -0.01329,0.403283 0,0.6027087 -0.381125,-0.00886 -0.753386,-0.017727 -1.116784,-0.017727 h -1.489045 c -0.02659,1.6219955 0.110792,2.9958168 0.407715,4.1303273 0.327944,-0.9661066 0.540665,-1.8302845 0.638162,-2.5881021 0.305786,0.062044 0.624867,0.088634 0.957243,0.088634 -0.190562,1.2763244 -0.598277,2.4817418 -1.223144,3.6162523 0.283628,0.6869106 0.660321,1.30734608 1.13451,1.8613063 0,-0.50521172 -0.01773,-1.01042343 -0.05318,-1.5067718 0.270333,0.1772673 0.567256,0.2614692 0.886337,0.2481742 0.05761,0.74452252 0.03989,1.48904504 -0.05318,2.23356757 0,0.10636033 -0.03545,0.19942563 -0.10636,0.28362763 -0.177267,0.1639722 -0.372261,0.1772673 -0.584982,0.035453 C 82.03565,0.61285644 81.4551,-0.1759829 81.020795,-1.0623192 80.311726,-0.02087404 79.447548,0.80341875 78.432693,1.4194225 78.299742,1.1224998 78.095885,0.88762071 77.812257,0.71035344 c 0.531802,-0.29692267 1.050309,-0.66475225 1.559952,-1.09905706 0.518507,-0.44759985 0.94838,-0.94837988 1.294051,-1.50677178 z m -5.229384,1.36495797 c 1.02815,-0.17726727 1.958803,-0.41657808 2.800823,-0.72679577 l 1.364958,-0.5140751 0.05318,0.4963483 c -1.666312,0.6647523 -2.9515,1.21871251 -3.8467,1.66631236 -0.03545,-0.34567117 -0.15954,-0.64702553 -0.372261,-0.92178979 z m 1.542225,-1.54222527 h -0.797702 v -3.7226126 h 2.889456 v 3.7226126 h -0.797703 v -0.5672552 h -1.294051 z m 1.294051,-3.1730841 h -1.294051 v 2.0740271 h 1.294051 z m -6.310714,4.0771472 c 0.567255,-0.1772673 1.116783,-0.3944197 1.648585,-0.6558889 V -6.008076 h -0.531802 c -0.319081,0 -0.638162,0.013295 -0.957243,0.035454 0.02216,-0.2127208 0.02216,-0.4298732 0,-0.6558889 0.319081,0.02659 0.638162,0.035453 0.957243,0.035453 h 0.531802 v -1.4004114 c 0,-0.5406652 -0.01329,-1.085762 -0.03545,-1.6308589 0.234879,0.035454 0.478621,0.035454 0.726795,0 -0.02659,0.5450969 -0.03545,1.0901937 -0.03545,1.6308589 v 1.4004114 l 1.311778,-0.035453 c -0.01329,0.2260157 -0.01329,0.4431681 0,0.6558889 l -1.311778,-0.035454 v 3.828973 l 1.169964,-0.6913424 0.08863,0.5140751 c -0.992697,0.6027087 -1.732788,1.0636036 -2.215841,1.3826847 l -0.992697,0.70906907 c -0.06204,-0.3633979 -0.181699,-0.66475226 -0.354534,-0.90406307 z m 0,0"
       style="fill:#000000;fill-opacity:0;fill-rule:nonzero;stroke:none"
       aria-label="进程与接口区域"
       transform="matrix(0.8814374,0,0,0.8814374,41.882122,70.81918)"
       clip-path="url(#clipPath58)" />
  </g>
</svg>
